<svg width="550" height="148" viewBox="0 0 550 148" fill="none" xmlns="http://www.w3.org/2000/svg">
<rect x="1.5" y="1.5" width="547" height="145" rx="17.5" fill="#FF0000" stroke="black" stroke-width="3"/>
<g clip-path="url(#clip0_42_29)">
<path d="M43.3605 70.0236C47.1707 72.9516 51.0905 75.7429 55.0103 78.5615C57.0388 80.0118 59.0124 81.4895 61.315 82.4747C65.5089 84.2808 69.8673 84.9923 74.4176 84.5818C78.6664 84.1987 82.5314 82.8578 85.903 80.3128C89.9051 77.3301 93.3315 73.6905 96.8401 70.1604C96.895 70.1057 96.8676 70.0236 96.895 69.9415C96.5112 69.9689 96.2919 70.1878 96.0452 70.3793C93.5508 72.1581 91.0289 73.9094 88.5619 75.7429C86.6979 77.1111 84.8614 78.4794 82.7507 79.4919C79.0775 81.2433 75.2125 81.6811 71.2379 81.5169C67.1536 81.3254 63.4256 80.1213 60.0266 77.9047C55.9697 75.2777 51.9951 72.4864 47.993 69.7773C47.1433 69.2026 47.1433 69.1205 47.9108 68.4364C50.4326 66.1377 52.9545 63.8664 55.4489 61.5404C57.4499 59.6522 59.3962 57.6819 61.6713 56.1221C61.7809 56.04 61.918 55.9579 61.8632 55.739C61.5068 55.739 61.1779 55.9032 60.849 56.04C59.6154 56.6421 58.4642 57.2988 57.3677 58.0924C52.6255 61.513 47.9108 65.0158 43.3331 68.628C42.5107 69.2847 42.5107 69.3942 43.3331 70.0509L43.3605 70.0236Z" fill="url(#paint0_linear_42_29)"/>
<path d="M58.8206 33.4911C59.3414 36.9665 59.8622 40.4419 60.4378 43.9172C60.849 46.3527 61.1779 48.8156 61.9729 51.169C63.3983 55.3011 65.7556 58.8038 68.9628 61.7593C72.8278 65.3167 77.3507 67.4786 82.5588 67.889C86.8624 68.2448 91.2208 68.2995 95.5518 68.2722C95.7986 68.2722 96.1001 68.3269 96.3468 67.9711C94.3183 67.6154 92.3721 67.2596 90.4259 66.9313C87.8767 66.5208 85.2726 66.2471 82.7507 65.7546C77.4877 64.6873 73.1841 61.9782 69.6755 57.9282C67.0166 54.8633 65.2622 51.3332 64.4673 47.3652C63.5353 42.7953 62.7952 38.1706 61.8358 33.628C61.6439 32.6702 61.7262 32.506 62.713 32.5607C64.7414 32.6428 66.7699 32.807 68.7983 32.8617C72.1151 32.9438 75.4319 32.9712 78.7487 33.2175C79.6258 33.2722 80.5304 33.409 81.5446 33.5185C81.2705 33.108 80.969 33.0807 80.7223 32.9712C78.6938 32.205 76.5283 31.8766 74.3902 31.5209C71.6217 31.083 68.8257 30.7273 66.0298 30.3715C63.782 30.0705 61.5069 29.7695 59.2317 29.4685C58.2997 29.359 58.2175 29.4685 58.3271 30.4263C58.4642 31.4661 58.6013 32.4786 58.7657 33.5185L58.8206 33.4911Z" fill="url(#paint1_linear_42_29)"/>
<path d="M64.9059 63.7843C65.4541 63.237 66.1394 62.8265 66.9343 62.1971C66.2491 62.0877 65.8653 62.2519 65.4815 62.3887C61.8632 63.7296 59.0399 66.2472 55.9424 68.409C55.5038 68.71 55.7231 68.9563 55.9972 69.2026C58.6287 71.2003 61.1231 73.4442 64.0836 75.004C67.8937 77.0016 71.9232 77.3027 76.0623 76.2628C79.5984 75.3871 82.3121 73.2526 84.6147 70.5161C85.0259 70.0236 85.6289 69.6404 85.7934 68.9563C85.4919 68.8195 85.3274 69.0384 85.1355 69.1479C84.0939 69.7773 83.0523 70.4067 82.038 71.0361C79.3243 72.7327 76.3365 73.581 73.1567 73.6905C68.2775 73.882 64.3303 71.5834 60.5475 68.8742C60.1911 68.6279 60.246 68.409 60.5475 68.1354C62.0003 66.685 63.4531 65.2347 64.9333 63.8117L64.9059 63.7843Z" fill="url(#paint2_linear_42_29)"/>
<path d="M125.293 51.3057C126.253 50.6216 126.746 49.6638 127.157 48.7061C128.665 45.2581 128.829 41.509 129.405 37.8421C129.487 37.4043 129.213 37.2401 128.802 37.2948C125.704 37.76 122.525 37.979 119.509 38.9367C115.206 40.305 112.026 42.9868 110.272 47.2283C110.135 47.5567 109.943 47.9125 110.053 48.2956C110.272 48.323 110.381 48.2135 110.464 48.104C111.615 46.9273 112.821 45.8601 114.137 44.875C117.454 42.4395 121.319 41.7553 125.238 41.1807C125.869 41.0986 125.869 41.4817 125.869 41.8922C125.814 44.2456 126.033 46.6263 125.677 48.9797C125.567 49.7459 125.43 50.5122 125.293 51.2784V51.3057Z" fill="url(#paint3_linear_42_29)"/>
<path d="M87.5752 56.1494C89.5488 58.5849 91.8788 60.692 94.0991 62.8812C94.2361 63.018 94.3458 63.1822 94.5925 63.1822C94.6199 62.8538 94.4006 62.6622 94.2361 62.4433C92.7559 60.3636 91.2757 58.2565 89.7681 56.1767C86.7254 51.9351 85.3548 47.1462 85.4919 41.9742C85.629 37.0485 87.1366 32.5333 90.0148 28.5106C92.564 24.9532 95.0311 21.3136 97.4981 17.6741C98.0189 16.8805 98.0737 16.9078 98.7042 17.592C101.226 20.3011 103.803 23.0103 106.297 25.7468C107.558 27.115 108.956 28.3191 110.08 29.8242C110.464 30.3441 110.875 30.8093 111.259 31.3292C111.204 30.3988 110.765 29.66 110.327 28.9211C108.545 25.9657 106.407 23.2839 104.351 20.5474C102.432 17.9751 100.459 15.4575 98.4849 12.9125C97.9093 12.1737 97.7722 12.1737 97.2514 12.9125C96.5935 13.7882 95.9082 14.6639 95.2504 15.5396C92.8382 18.7687 90.5356 22.0525 88.1234 25.2816C83.9569 30.7819 81.8736 36.857 82.5041 43.7803C82.9426 48.4324 84.5873 52.5645 87.5203 56.1767L87.5752 56.1494Z" fill="url(#paint4_linear_42_29)"/>
<path d="M103.638 40.7976C101.253 43.9994 99.7183 47.5842 99.3345 51.5521C98.9234 55.9579 98.896 60.3637 98.9782 64.7968C98.9782 65.0705 98.8685 65.3988 99.1701 65.6999C99.4168 65.262 99.4168 64.8242 99.499 64.3863C100.294 60.4184 100.678 56.3684 101.473 52.4004C103.282 43.2879 110.957 35.8446 120.058 34.1206C122.113 33.7375 124.142 33.3543 126.198 32.9439C128.829 32.4239 131.461 31.9314 134.065 31.3841C134.75 31.2472 135.024 31.4388 134.969 32.1503C134.915 32.9986 134.86 33.8195 134.832 34.6679C134.723 38.7179 134.558 42.7679 134.613 46.818C134.613 47.2284 134.613 47.6663 134.613 48.2683C134.997 47.6389 135.052 47.0916 135.161 46.5717C136.23 40.7976 137.025 34.9689 137.848 29.1675C137.985 28.155 137.848 28.0182 136.833 28.1823C132.338 28.8391 127.87 29.4959 123.374 30.1526C120.962 30.5084 118.523 30.8368 116.193 31.6303C111.039 33.3543 106.873 36.474 103.638 40.7976Z" fill="url(#paint5_linear_42_29)"/>
<path d="M98.3752 30.2073C98.6219 29.8242 98.8686 29.9337 99.1153 30.2073C100.952 32.1503 103.063 33.8195 104.57 36.0635C104.707 36.2824 104.817 36.5834 105.201 36.6381C105.201 35.8172 104.899 35.0783 104.598 34.3668C103.172 31.1104 100.842 28.456 98.8138 25.5826C98.4574 25.0901 98.2107 25.4184 97.964 25.7195C96.8401 27.1424 95.7437 28.5381 94.6198 29.9611C91.0289 34.4216 89.4939 39.402 90.8644 45.0666C91.7964 48.925 94.0168 51.8805 97.1965 54.1791L97.3884 54.0423C96.9772 53.3308 96.6208 52.6193 96.1823 51.9352C93.77 47.9673 92.9751 43.7257 93.8249 39.1557C94.4553 35.7077 96.4838 32.9986 98.3478 30.2073H98.3752Z" fill="url(#paint6_linear_42_29)"/>
<path d="M72.115 41.2627C74.308 41.2627 76.5009 41.2627 78.7212 41.3174C79.4887 41.3174 80.2562 41.5637 81.1608 41.7279C80.8319 41.1806 80.4207 41.0438 80.0644 40.8249C78.31 39.8397 76.3912 39.4293 74.445 39.1009C72.6084 38.7999 70.7719 38.4715 68.9353 38.1978C67.9759 38.061 67.8389 38.2526 67.9485 39.183C68.1404 40.6333 68.3323 42.0837 68.4967 43.534C68.8257 46.4074 69.4013 49.1986 70.9089 51.7162C73.1019 55.3831 76.1719 57.8733 80.2562 59.1868C82.97 60.0625 85.7111 59.7889 88.4797 59.7615C88.7264 59.7615 89.0005 59.7615 89.2198 59.3237C88.0137 59.0227 86.8898 58.6943 85.7111 58.4754C81.4623 57.6544 78.0359 55.5199 75.2948 52.2087C72.8277 49.1986 72.1425 45.559 71.4572 41.8921C71.3749 41.3995 71.649 41.2354 72.0876 41.2354L72.115 41.2627Z" fill="url(#paint7_linear_42_29)"/>
<path d="M118.468 55.6568C121.785 54.7537 125.129 54.6716 128.528 55.1642C132.091 55.6841 135.381 56.9977 138.341 59.0501C141.987 61.595 145.605 64.1673 149.251 66.7396C150.155 67.369 150.155 67.5059 149.333 68.2174C146.784 70.3518 144.262 72.5137 141.74 74.6481C139.575 76.4816 137.491 78.4519 134.942 79.7654C126.636 83.9796 118.523 83.5418 110.518 78.8897C109.641 78.3698 108.764 77.8499 107.887 77.3299C107.86 77.3847 107.805 77.4394 107.777 77.4941C108.846 78.5613 110.052 79.4918 111.286 80.3401C120.167 86.4699 131.817 86.2509 140.424 79.7107C145.441 75.9069 150.265 71.8295 155.117 67.8069C155.72 67.3143 155.583 67.0133 155.062 66.6575C154.02 65.9461 152.979 65.2072 151.937 64.4957C148.1 61.8139 144.317 59.0774 140.424 56.5051C135.435 53.2213 129.926 51.7162 123.895 52.2361C119.893 52.5645 116.193 53.7412 112.794 55.9304C110.19 57.6271 108.079 59.8436 105.831 61.9234C104.433 63.2095 102.953 64.441 101.802 66.0281C101.911 65.9734 102.021 65.9734 102.103 65.8913C104.543 64.1126 107.01 62.3886 109.367 60.5278C112.136 58.3659 115.069 56.6146 118.468 55.6841V55.6568Z" fill="url(#paint8_linear_42_29)"/>
<path d="M122.415 63.7295C125.787 62.8538 129.049 63.018 132.173 64.6599C133.818 65.5082 135.216 66.6849 136.779 67.6427C137.135 67.8616 137.162 68.0806 136.861 68.3816C136.285 68.9015 135.682 69.4214 135.106 69.9688C130.118 74.6755 124.334 75.9891 117.755 74.0462C117.289 73.9093 116.823 73.5809 116.11 73.6357C116.494 73.9367 116.713 74.1556 116.988 74.3198C122.388 77.4668 127.897 77.631 133.434 74.7576C136.614 73.0884 139.191 70.5434 142.042 68.3816C142.617 67.9437 142.398 67.6154 141.932 67.287C140.041 65.9187 138.149 64.5505 136.258 63.1822C133.489 61.1846 130.419 59.9805 126.993 59.9531C123.621 59.8984 120.496 60.993 117.591 62.6349C114.274 64.4957 111.396 66.9312 108.682 69.5583C107.202 70.9813 105.721 72.3769 104.241 73.7999C104.323 73.882 104.406 73.9641 104.461 74.0735C104.789 74.0735 105.009 73.8546 105.255 73.6904C107.969 71.8296 110.655 69.9414 113.424 68.1353C116.22 66.3018 119.153 64.6599 122.442 63.8116L122.415 63.7295Z" fill="url(#paint9_linear_42_29)"/>
<path d="M45.1697 119.773C43.7717 119.773 42.456 119.527 41.2224 119.034C39.9889 118.542 38.8925 117.858 37.9879 116.982C37.0833 116.106 36.3432 115.094 35.8224 113.944C35.2742 112.795 35.0275 111.564 35.0275 110.223V96.3487C35.0275 96.1024 35.1371 95.9929 35.3838 95.9929H35.7402C36.5351 95.9929 37.2478 96.2666 37.796 96.8412C38.3717 97.3885 38.6458 98.1 38.6458 98.921V110.25C38.6458 111.071 38.8102 111.837 39.1666 112.549C39.4955 113.26 39.9615 113.89 40.5646 114.41C41.1402 114.957 41.8255 115.367 42.6204 115.668C43.4154 115.969 44.2651 116.134 45.1697 116.134C46.0743 116.134 46.924 115.969 47.719 115.668C48.5139 115.367 49.1992 114.957 49.7748 114.41C50.3504 113.862 50.8164 113.26 51.1454 112.549C51.4743 111.837 51.6388 111.071 51.6388 110.25V98.921C51.6388 98.1 51.9129 97.3885 52.4885 96.8412C53.0642 96.2939 53.7495 95.9929 54.5444 95.9929H54.9007C55.1474 95.9929 55.2571 96.1024 55.2571 96.3487V110.223C55.2571 111.536 54.983 112.768 54.4622 113.944C53.9139 115.094 53.2012 116.106 52.2967 116.982C51.3921 117.858 50.2956 118.542 49.0895 119.034C47.856 119.527 46.5403 119.773 45.1423 119.773H45.1697Z" fill="url(#paint10_linear_42_29)"/>
<path d="M60.5474 93.5025H50.9534C50.46 93.5025 50.0214 93.3931 49.6103 93.2015C49.1991 93.01 48.8428 92.7363 48.5412 92.4079C48.2397 92.0796 48.0204 91.6691 47.8559 91.2312C47.7189 90.7934 47.6641 90.3282 47.7189 89.8356L47.9108 88.2211C47.9108 88.2211 47.8834 88.0295 47.8285 87.9474C47.7737 87.8653 47.6641 87.8106 47.5544 87.8106H47.4448C46.7321 87.8106 46.129 87.5643 45.6356 87.0718C45.1422 86.5792 44.8955 85.9771 44.8955 85.2657V84.6363C44.8955 84.39 45.0052 84.2805 45.2519 84.2805H47.8559C48.4042 84.2805 48.8976 84.39 49.3636 84.6089C49.8296 84.8278 50.2407 85.1288 50.5697 85.4846C50.8986 85.8403 51.1453 86.2782 51.3098 86.7707C51.4742 87.2633 51.5291 87.7832 51.4468 88.3032L51.3372 89.5072C51.3372 89.5072 51.3372 89.7262 51.4194 89.8083C51.5017 89.8904 51.5839 89.9177 51.721 89.9177H58.0256C58.8205 89.9177 59.5332 90.1914 60.0814 90.766C60.6571 91.3407 60.9312 92.0248 60.9312 92.8184V93.1194C60.9312 93.3657 60.8215 93.4752 60.5748 93.4752L60.5474 93.5025Z" fill="url(#paint11_linear_42_29)"/>
<path d="M76.8024 119.746H76.4461C75.6511 119.746 74.9384 119.472 74.3902 118.897C73.8146 118.323 73.5405 117.639 73.5405 116.845V105.516C73.5405 103.71 72.9922 102.287 71.8684 101.22C70.7445 100.152 69.2643 99.6325 67.3455 99.6325C65.317 99.6325 63.7546 100.235 62.6307 101.411C62.0825 102.041 61.3424 102.369 60.4378 102.369C60.054 102.369 59.6977 102.314 59.3688 102.177L58.5738 101.822C58.3271 101.712 58.2449 101.575 58.3545 101.356C59.1221 99.6872 60.3007 98.3737 61.8906 97.4159C63.4531 96.4581 65.2896 95.9929 67.3729 95.9929C68.8257 95.9929 70.1414 96.2392 71.3201 96.7044C72.5262 97.1696 73.5405 97.8537 74.4176 98.7021C75.2948 99.5504 75.9801 100.563 76.4735 101.712C76.9669 102.862 77.2136 104.148 77.2136 105.543V119.417C77.2136 119.664 77.1039 119.773 76.8572 119.773L76.8024 119.746Z" fill="url(#paint12_linear_42_29)"/>
<path d="M97.7722 98.921C97.7722 98.1 98.0463 97.3885 98.622 96.8412C99.1976 96.2939 99.8829 95.9929 100.678 95.9929H101.034C101.281 95.9929 101.391 96.1024 101.391 96.3487V119.363C101.391 119.609 101.281 119.718 101.034 119.718H100.678C99.8829 119.718 99.1702 119.445 98.622 118.87C98.0463 118.295 97.7722 117.611 97.7722 116.818V115.942C97.224 116.435 96.6484 116.9 95.9905 117.365C95.3326 117.83 94.6747 118.241 93.962 118.596C93.2493 118.952 92.5092 119.226 91.7691 119.445C91.0016 119.664 90.2615 119.773 89.494 119.773C88.3153 119.773 87.2188 119.554 86.2046 119.116C85.1904 118.679 84.2858 118.077 83.5457 117.338C82.8056 116.599 82.2025 115.723 81.764 114.683C81.3254 113.671 81.1061 112.576 81.1061 111.399V96.3487C81.1061 96.1024 81.2157 95.9929 81.4624 95.9929H81.8188C82.6137 95.9929 83.3264 96.2666 83.8746 96.8412C84.4503 97.4159 84.7244 98.1 84.7244 98.8936V111.399C84.7244 112.056 84.834 112.686 85.0807 113.233C85.3274 113.808 85.6564 114.3 86.095 114.738C86.5335 115.176 87.0269 115.504 87.6026 115.751C88.1782 115.997 88.7813 116.106 89.4392 116.106C90.3163 116.106 91.2209 115.86 92.1529 115.367C93.0849 114.875 93.962 114.3 94.7296 113.643C95.4971 112.987 96.1824 112.33 96.7306 111.7C97.2788 111.044 97.6078 110.579 97.69 110.25V98.8936L97.7722 98.921Z" fill="url(#paint13_linear_42_29)"/>
<path d="M115.507 119.773C114.109 119.773 112.794 119.527 111.56 119.034C110.327 118.542 109.23 117.858 108.326 116.982C107.421 116.106 106.681 115.094 106.16 113.944C105.612 112.795 105.365 111.564 105.365 110.223V96.3487C105.365 96.1024 105.475 95.9929 105.721 95.9929H106.078C106.873 95.9929 107.585 96.2666 108.134 96.8412C108.709 97.3885 108.983 98.1 108.983 98.921V110.25C108.983 111.071 109.148 111.837 109.504 112.549C109.833 113.26 110.299 113.89 110.902 114.41C111.478 114.957 112.163 115.367 112.958 115.668C113.753 115.969 114.603 116.134 115.507 116.134C116.412 116.134 117.262 115.969 118.057 115.668C118.852 115.367 119.537 114.957 120.112 114.41C120.688 113.862 121.154 113.26 121.483 112.549C121.812 111.837 121.976 111.071 121.976 110.25V98.921C121.976 98.1 122.251 97.3885 122.826 96.8412C123.402 96.2939 124.087 95.9929 124.882 95.9929H125.238C125.485 95.9929 125.595 96.1024 125.595 96.3487V110.223C125.595 111.536 125.321 112.768 124.8 113.944C124.252 115.094 123.539 116.106 122.634 116.982C121.73 117.858 120.633 118.542 119.427 119.034C118.194 119.527 116.878 119.773 115.48 119.773H115.507Z" fill="url(#paint14_linear_42_29)"/>
<path d="M124.772 130.774H124.471C123.676 130.774 122.963 130.5 122.415 129.926C121.839 129.351 121.565 128.667 121.565 127.873V125.547C121.565 125.301 121.456 125.191 121.209 125.191H121.181C120.469 125.191 119.866 124.945 119.372 124.453C118.879 123.96 118.632 123.358 118.632 122.647V121.99C118.632 121.743 118.742 121.634 118.989 121.634H122.251C123.045 121.634 123.758 121.908 124.306 122.482C124.882 123.057 125.156 123.741 125.156 124.535V130.446C125.156 130.692 125.046 130.801 124.8 130.801L124.772 130.774Z" fill="url(#paint15_linear_42_29)"/>
<path d="M154.569 119.773C153.363 119.773 152.239 119.581 151.197 119.226C150.155 118.87 149.223 118.377 148.456 117.748C147.688 117.119 147.058 116.407 146.592 115.586C146.126 114.765 145.907 113.862 145.907 112.932V105.488C145.907 105.488 145.907 105.187 145.879 104.859C145.879 104.531 145.77 104.147 145.66 103.71C145.55 103.272 145.358 102.807 145.084 102.341C144.838 101.876 144.481 101.438 144.015 101.028C143.549 100.617 142.974 100.289 142.288 100.015C141.603 99.7417 140.753 99.6049 139.739 99.6049C138.834 99.6049 138.04 99.7143 137.354 99.9606C136.669 100.18 136.066 100.481 135.545 100.809C135.024 101.137 134.613 101.52 134.257 101.931C133.928 102.341 133.626 102.697 133.407 103.053C133.297 103.19 133.325 103.354 133.434 103.518L134.75 104.75C135.298 105.297 135.6 106.008 135.6 106.829V115.449C135.6 115.641 135.682 115.805 135.819 115.969C135.956 116.106 136.148 116.188 136.34 116.188H136.477C136.806 116.188 137.135 116.27 137.382 116.434C137.656 116.599 137.875 116.79 138.012 117.064C138.177 117.31 138.259 117.611 138.286 117.912C138.286 118.241 138.259 118.542 138.094 118.815L137.738 119.554C137.738 119.554 137.628 119.663 137.601 119.718C137.546 119.773 137.491 119.8 137.409 119.8H135.956C135.408 119.8 134.915 119.691 134.421 119.472C133.928 119.253 133.517 118.952 133.133 118.596C132.777 118.241 132.475 117.803 132.256 117.31C132.036 116.818 131.927 116.298 131.927 115.75V108.362C131.927 107.541 131.653 106.829 131.077 106.282L129.131 104.394C129.131 104.394 128.966 104.202 129.021 104.038L129.268 103.19C129.46 102.56 129.816 101.821 130.31 101.001C130.803 100.18 131.488 99.386 132.338 98.6471C133.188 97.9083 134.229 97.2789 135.435 96.7589C136.642 96.239 138.067 95.9653 139.684 95.9653C141.302 95.9653 142.727 96.239 143.96 96.7863C145.194 97.3336 146.236 98.0724 147.058 98.9481C147.88 99.8512 148.511 100.864 148.922 102.013C149.333 103.162 149.552 104.312 149.552 105.488V112.932C149.552 113.287 149.662 113.671 149.909 114.054C150.155 114.437 150.512 114.793 150.95 115.094C151.389 115.395 151.937 115.641 152.54 115.832C153.143 116.024 153.829 116.133 154.541 116.133C155.254 116.133 155.912 116.051 156.487 115.86C157.09 115.668 157.611 115.422 158.077 115.121C158.543 114.793 158.9 114.437 159.146 113.999C159.393 113.561 159.53 113.096 159.53 112.603V98.8934C159.53 98.0998 159.804 97.3883 160.38 96.841C160.956 96.2664 161.641 95.9927 162.436 95.9927H162.792C163.039 95.9927 163.148 96.1022 163.148 96.3484V112.603C163.148 113.616 162.929 114.574 162.463 115.449C162.025 116.325 161.394 117.091 160.627 117.721C159.859 118.377 158.927 118.87 157.885 119.226C156.844 119.581 155.693 119.773 154.486 119.773H154.569ZM161.915 125.656H149.772C148.977 125.656 148.264 125.383 147.716 124.808C147.168 124.233 146.866 123.549 146.866 122.756V119.718C146.866 119.527 146.948 119.39 147.113 119.362L147.305 119.28C147.579 119.198 147.825 119.171 148.045 119.171C148.675 119.171 149.223 119.39 149.717 119.855C150.183 120.293 150.43 120.868 150.43 121.552V121.771C150.43 122.017 150.539 122.126 150.786 122.126H159.393C160.215 122.126 160.928 122.4 161.476 122.975C162.025 123.522 162.326 124.233 162.326 125.054V125.301C162.326 125.547 162.216 125.656 161.97 125.656H161.915Z" fill="url(#paint16_linear_42_29)"/>
</g>
<path d="M197.356 29.856H216.752C220.365 29.856 223.252 30.7594 225.413 32.5661C227.61 34.3374 228.708 36.888 228.708 40.2181C228.708 41.7059 228.371 43.1053 227.698 44.416C227.061 45.7268 226.122 46.7896 224.882 47.6043C226.618 48.3837 227.876 49.4111 228.655 50.6864C229.47 51.9617 229.877 53.6267 229.877 55.6814C229.877 57.9841 229.328 60.0034 228.23 61.7393C227.132 63.4397 225.644 64.7505 223.766 65.6715C221.924 66.5572 219.869 67 217.602 67H197.356V29.856ZM213.882 44.2566C215.087 44.2566 215.99 43.9909 216.592 43.4595C217.23 42.9281 217.549 42.0779 217.549 40.9089C217.549 39.7044 217.248 38.8719 216.646 38.4113C216.043 37.9154 215.104 37.6674 213.829 37.6674H208.356V44.2566H213.882ZM214.52 59.1886C215.972 59.1886 217.035 58.9229 217.708 58.3915C218.381 57.8601 218.718 56.9391 218.718 55.6283C218.718 54.353 218.364 53.4142 217.655 52.8119C216.982 52.2097 215.902 51.9086 214.414 51.9086H208.356V59.1886H214.52ZM244.992 29.856H255.567L270.392 67H259.127L256.364 59.9325H244.195L241.379 67H230.113L244.992 29.856ZM253.813 51.5898L250.253 41.1746L246.693 51.5898H253.813ZM287.115 29.856H297.69L312.515 67H301.25L298.487 59.9325H286.318L283.502 67H272.236L287.115 29.856ZM295.936 51.5898L292.376 41.1746L288.815 51.5898H295.936ZM317.29 29.856H327.971L339.555 49.3048V29.856H350.555V67H339.927L328.29 47.5512V67H317.29V29.856ZM356.403 29.856H375.799C379.412 29.856 382.299 30.7594 384.46 32.5661C386.657 34.3374 387.755 36.888 387.755 40.2181C387.755 41.7059 387.418 43.1053 386.745 44.416C386.108 45.7268 385.169 46.7896 383.929 47.6043C385.665 48.3837 386.922 49.4111 387.702 50.6864C388.517 51.9617 388.924 53.6267 388.924 55.6814C388.924 57.9841 388.375 60.0034 387.277 61.7393C386.178 63.4397 384.691 64.7505 382.813 65.6715C380.971 66.5572 378.916 67 376.649 67H356.403V29.856ZM372.929 44.2566C374.134 44.2566 375.037 43.9909 375.639 43.4595C376.277 42.9281 376.596 42.0779 376.596 40.9089C376.596 39.7044 376.295 38.8719 375.692 38.4113C375.09 37.9154 374.151 37.6674 372.876 37.6674H367.403V44.2566H372.929ZM373.567 59.1886C375.019 59.1886 376.082 58.9229 376.755 58.3915C377.428 57.8601 377.765 56.9391 377.765 55.6283C377.765 54.353 377.41 53.4142 376.702 52.8119C376.029 52.2097 374.948 51.9086 373.461 51.9086H367.403V59.1886H373.567ZM411.374 67.7971C407.619 67.7971 404.2 66.9823 401.118 65.3527C398.072 63.7231 395.663 61.4559 393.892 58.5509C392.156 55.6106 391.288 52.2451 391.288 48.4546C391.288 44.664 392.156 41.2985 393.892 38.3582C395.663 35.4179 398.072 33.1329 401.118 31.5033C404.2 29.8737 407.619 29.0589 411.374 29.0589C415.129 29.0589 418.513 29.8737 421.524 31.5033C424.57 33.1329 426.962 35.4179 428.697 38.3582C430.469 41.2985 431.354 44.664 431.354 48.4546C431.354 52.2451 430.469 55.6106 428.697 58.5509C426.962 61.4559 424.57 63.7231 421.524 65.3527C418.513 66.9823 415.129 67.7971 411.374 67.7971ZM411.374 57.4882C413.004 57.4882 414.474 57.1339 415.785 56.4254C417.131 55.6814 418.194 54.6364 418.973 53.2902C419.752 51.9086 420.142 50.2967 420.142 48.4546C420.142 45.7268 419.31 43.5481 417.645 41.9185C415.98 40.2889 413.889 39.4741 411.374 39.4741C408.824 39.4741 406.698 40.2889 404.998 41.9185C403.333 43.5481 402.5 45.7268 402.5 48.4546C402.5 50.2967 402.89 51.9086 403.669 53.2902C404.448 54.6364 405.511 55.6814 406.857 56.4254C408.204 57.1339 409.709 57.4882 411.374 57.4882ZM454.898 67.7971C451.143 67.7971 447.724 66.9823 444.642 65.3527C441.596 63.7231 439.187 61.4559 437.416 58.5509C435.68 55.6106 434.812 52.2451 434.812 48.4546C434.812 44.664 435.68 41.2985 437.416 38.3582C439.187 35.4179 441.596 33.1329 444.642 31.5033C447.724 29.8737 451.143 29.0589 454.898 29.0589C458.653 29.0589 462.036 29.8737 465.048 31.5033C468.094 33.1329 470.486 35.4179 472.221 38.3582C473.993 41.2985 474.878 44.664 474.878 48.4546C474.878 52.2451 473.993 55.6106 472.221 58.5509C470.486 61.4559 468.094 63.7231 465.048 65.3527C462.036 66.9823 458.653 67.7971 454.898 67.7971ZM454.898 57.4882C456.528 57.4882 457.998 57.1339 459.309 56.4254C460.655 55.6814 461.718 54.6364 462.497 53.2902C463.276 51.9086 463.666 50.2967 463.666 48.4546C463.666 45.7268 462.834 43.5481 461.169 41.9185C459.504 40.2889 457.413 39.4741 454.898 39.4741C452.348 39.4741 450.222 40.2889 448.522 41.9185C446.857 43.5481 446.024 45.7268 446.024 48.4546C446.024 50.2967 446.414 51.9086 447.193 53.2902C447.972 54.6364 449.035 55.6814 450.381 56.4254C451.728 57.1339 453.233 57.4882 454.898 57.4882ZM479.658 29.856H490.339L501.923 49.3048V29.856H512.923V67H502.295L490.658 47.5512V67H479.658V29.856Z" fill="#F4BA11"/>
<mask id="path-20-outside-1_42_29" maskUnits="userSpaceOnUse" x="194.231" y="82.6631" width="322" height="36" fill="black">
<rect fill="white" x="194.231" y="82.6631" width="322" height="36"/>
<path d="M207.344 117.349C205.302 117.349 203.245 117.135 201.173 116.709C199.101 116.313 197.425 115.779 196.145 115.109V106.744C197.821 107.658 199.573 108.344 201.401 108.801C203.26 109.258 204.997 109.487 206.612 109.487C208.959 109.487 210.132 108.862 210.132 107.613C210.132 107.094 209.949 106.653 209.583 106.287C209.248 105.891 208.73 105.525 208.029 105.19C207.328 104.824 206.216 104.306 204.693 103.636C201.737 102.356 199.588 100.954 198.247 99.4305C196.937 97.9068 196.282 96.0175 196.282 93.7625C196.282 91.8731 196.8 90.1971 197.836 88.7344C198.903 87.2412 200.381 86.0832 202.27 85.2604C204.159 84.4376 206.338 84.0263 208.806 84.0263C210.818 84.0263 212.6 84.1939 214.154 84.5291C215.709 84.8338 217.217 85.3366 218.68 86.0375V94.1281C216.029 92.6654 213.316 91.9341 210.543 91.9341C209.324 91.9341 208.349 92.1169 207.618 92.4826C206.887 92.8178 206.521 93.3206 206.521 93.991C206.521 94.6614 206.841 95.2099 207.481 95.6366C208.151 96.0327 209.401 96.5965 211.229 97.3278L212.235 97.7392C214.398 98.6229 216.059 99.5067 217.217 100.39C218.405 101.244 219.259 102.249 219.777 103.407C220.295 104.535 220.554 105.967 220.554 107.704C220.554 110.721 219.457 113.082 217.263 114.789C215.069 116.495 211.762 117.349 207.344 117.349ZM239.853 117.349C236.501 117.349 233.713 116.724 231.488 115.475C229.264 114.225 227.603 112.503 226.506 110.309C225.44 108.115 224.906 105.601 224.906 102.767V84.7119H234.368V102.676C234.368 104.626 234.825 106.104 235.74 107.11C236.684 108.115 238.055 108.618 239.853 108.618C241.651 108.618 243.007 108.115 243.922 107.11C244.866 106.104 245.339 104.626 245.339 102.676V84.7119H254.801V102.767C254.801 105.601 254.252 108.115 253.155 110.309C252.088 112.503 250.443 114.225 248.218 115.475C245.994 116.724 243.205 117.349 239.853 117.349ZM260.04 84.7119H274.759C278.599 84.7119 281.646 85.7023 283.901 87.683C286.186 89.6333 287.329 92.4369 287.329 96.0937C287.329 99.7504 286.186 102.569 283.901 104.55C281.646 106.531 278.599 107.521 274.759 107.521H269.502V116.663H260.04V84.7119ZM272.976 100.025C274.439 100.025 275.582 99.7352 276.404 99.1562C277.227 98.5772 277.639 97.5564 277.639 96.0937C277.639 94.6614 277.227 93.6558 276.404 93.0768C275.582 92.4978 274.439 92.2083 272.976 92.2083H269.502V100.025H272.976ZM291.464 84.7119H314.639V92.6654H300.926V97.0536H310.799V104.321H300.926V108.71H314.639V116.663H291.464V84.7119ZM318.736 84.7119H333.592C337.432 84.7119 340.464 85.687 342.688 87.6373C344.913 89.5571 346.025 92.3454 346.025 96.0022C346.025 98.3791 345.522 100.406 344.517 102.082C343.542 103.758 342.14 105.038 340.311 105.921L345.66 116.663H335.969L331.307 107.293H328.198V116.663H318.736V84.7119ZM331.718 99.7962C333.181 99.7962 334.308 99.5219 335.101 98.9734C335.923 98.3944 336.335 97.404 336.335 96.0022C336.335 94.6005 335.923 93.6253 335.101 93.0768C334.308 92.4978 333.181 92.2083 331.718 92.2083H328.198V99.7962H331.718ZM377.361 117.349C375.319 117.349 373.262 117.135 371.19 116.709C369.118 116.313 367.442 115.779 366.162 115.109V106.744C367.838 107.658 369.59 108.344 371.419 108.801C373.278 109.258 375.015 109.487 376.63 109.487C378.976 109.487 380.149 108.862 380.149 107.613C380.149 107.094 379.967 106.653 379.601 106.287C379.266 105.891 378.748 105.525 378.047 105.19C377.346 104.824 376.234 104.306 374.71 103.636C371.754 102.356 369.606 100.954 368.265 99.4305C366.954 97.9068 366.299 96.0175 366.299 93.7625C366.299 91.8731 366.817 90.1971 367.853 88.7344C368.92 87.2412 370.398 86.0832 372.287 85.2604C374.177 84.4376 376.355 84.0263 378.824 84.0263C380.835 84.0263 382.618 84.1939 384.172 84.5291C385.726 84.8338 387.234 85.3366 388.697 86.0375V94.1281C386.046 92.6654 383.334 91.9341 380.561 91.9341C379.342 91.9341 378.367 92.1169 377.635 92.4826C376.904 92.8178 376.538 93.3206 376.538 93.991C376.538 94.6614 376.858 95.2099 377.498 95.6366C378.169 96.0327 379.418 96.5965 381.246 97.3278L382.252 97.7392C384.416 98.6229 386.076 99.5067 387.234 100.39C388.423 101.244 389.276 102.249 389.794 103.407C390.312 104.535 390.571 105.967 390.571 107.704C390.571 110.721 389.474 113.082 387.28 114.789C385.086 116.495 381.78 117.349 377.361 117.349ZM400.985 92.6654H392.392V84.7119H419.041V92.6654H410.447V116.663H400.985V92.6654ZM437.673 117.349C434.443 117.349 431.502 116.648 428.851 115.246C426.23 113.844 424.158 111.894 422.634 109.395C421.141 106.866 420.394 103.971 420.394 100.71C420.394 97.4497 421.141 94.5548 422.634 92.0255C424.158 89.4962 426.23 87.5307 428.851 86.1289C431.502 84.7271 434.443 84.0263 437.673 84.0263C440.903 84.0263 443.813 84.7271 446.403 86.1289C449.024 87.5307 451.081 89.4962 452.574 92.0255C454.098 94.5548 454.86 97.4497 454.86 100.71C454.86 103.971 454.098 106.866 452.574 109.395C451.081 111.894 449.024 113.844 446.403 115.246C443.813 116.648 440.903 117.349 437.673 117.349ZM437.673 108.481C439.075 108.481 440.339 108.176 441.467 107.567C442.625 106.927 443.539 106.028 444.209 104.87C444.88 103.681 445.215 102.295 445.215 100.71C445.215 98.3639 444.499 96.4898 443.067 95.088C441.634 93.6863 439.836 92.9854 437.673 92.9854C435.479 92.9854 433.65 93.6863 432.188 95.088C430.755 96.4898 430.039 98.3639 430.039 100.71C430.039 102.295 430.374 103.681 431.045 104.87C431.715 106.028 432.629 106.927 433.787 107.567C434.945 108.176 436.241 108.481 437.673 108.481ZM459.428 84.7119H474.284C478.123 84.7119 481.156 85.687 483.38 87.6373C485.605 89.5571 486.717 92.3454 486.717 96.0022C486.717 98.3791 486.214 100.406 485.208 102.082C484.233 103.758 482.832 105.038 481.003 105.921L486.351 116.663H476.661L471.998 107.293H468.89V116.663H459.428V84.7119ZM472.41 99.7962C473.872 99.7962 475 99.5219 475.792 98.9734C476.615 98.3944 477.026 97.404 477.026 96.0022C477.026 94.6005 476.615 93.6253 475.792 93.0768C475 92.4978 473.872 92.2083 472.41 92.2083H468.89V99.7962H472.41ZM491.298 84.7119H514.473V92.6654H500.76V97.0536H510.634V104.321H500.76V108.71H514.473V116.663H491.298V84.7119Z"/>
</mask>
<path d="M201.173 116.709L201.387 115.669L201.38 115.668L201.372 115.666L201.173 116.709ZM196.145 115.109H195.083V115.751L195.652 116.049L196.145 115.109ZM196.145 106.744L196.653 105.812L195.083 104.956V106.744H196.145ZM201.401 108.801L201.144 109.831L201.148 109.832L201.401 108.801ZM209.583 106.287L208.773 106.973L208.802 107.006L208.833 107.038L209.583 106.287ZM208.029 105.19L207.538 106.131L207.555 106.14L207.571 106.147L208.029 105.19ZM204.693 103.636L205.12 102.664L205.114 102.662L204.693 103.636ZM198.247 99.4305L197.443 100.123L197.451 100.132L198.247 99.4305ZM197.836 88.7344L196.972 88.1174L196.97 88.1208L197.836 88.7344ZM202.27 85.2604L202.694 86.2336L202.694 86.2336L202.27 85.2604ZM214.154 84.5291L213.931 85.5666L213.94 85.5688L213.95 85.5707L214.154 84.5291ZM218.68 86.0375H219.741V85.3691L219.138 85.0803L218.68 86.0375ZM218.68 94.1281L218.167 95.0575L219.741 95.926V94.1281H218.68ZM207.618 92.4826L208.06 93.4475L208.077 93.44L208.093 93.432L207.618 92.4826ZM207.481 95.6366L206.892 96.5197L206.916 96.5357L206.941 96.5504L207.481 95.6366ZM211.229 97.3278L211.631 96.3454L211.623 96.3423L211.229 97.3278ZM212.235 97.7392L211.833 98.7216L211.833 98.7218L212.235 97.7392ZM217.217 100.39L216.573 101.234L216.585 101.244L216.598 101.253L217.217 100.39ZM219.777 103.407L218.808 103.841L218.812 103.85L219.777 103.407ZM207.344 116.287C205.376 116.287 203.391 116.082 201.387 115.669L200.959 117.748C203.099 118.189 205.228 118.41 207.344 118.41V116.287ZM201.372 115.666C199.36 115.282 197.793 114.774 196.637 114.169L195.652 116.049C197.056 116.785 198.842 117.344 200.974 117.751L201.372 115.666ZM197.206 115.109V106.744H195.083V115.109H197.206ZM195.637 107.676C197.391 108.633 199.227 109.352 201.144 109.831L201.659 107.771C199.919 107.336 198.251 106.684 196.653 105.812L195.637 107.676ZM201.148 109.832C203.075 110.306 204.898 110.548 206.612 110.548V108.425C205.097 108.425 203.446 108.211 201.655 107.77L201.148 109.832ZM206.612 110.548C207.845 110.548 208.934 110.39 209.751 109.955C210.175 109.729 210.548 109.417 210.812 108.996C211.077 108.571 211.193 108.097 211.193 107.613H209.071C209.071 107.752 209.04 107.825 209.012 107.869C208.982 107.917 208.916 107.995 208.753 108.081C208.397 108.271 207.726 108.425 206.612 108.425V110.548ZM211.193 107.613C211.193 106.814 210.899 106.102 210.334 105.536L208.833 107.038C208.999 107.204 209.071 107.375 209.071 107.613H211.193ZM210.394 105.601C209.926 105.048 209.262 104.603 208.487 104.232L207.571 106.147C208.198 106.447 208.571 106.733 208.773 106.973L210.394 105.601ZM208.52 104.249C207.786 103.866 206.647 103.336 205.12 102.664L204.265 104.607C205.785 105.276 206.87 105.783 207.538 106.131L208.52 104.249ZM205.114 102.662C202.227 101.411 200.239 100.086 199.044 98.7293L197.451 100.132C198.938 101.822 201.246 103.3 204.271 104.61L205.114 102.662ZM199.052 98.7384C197.928 97.431 197.343 95.7966 197.343 93.7625H195.22C195.22 96.2383 195.946 98.3826 197.443 100.123L199.052 98.7384ZM197.343 93.7625C197.343 92.0803 197.8 90.6212 198.702 89.3479L196.97 88.1208C195.8 89.7729 195.22 91.6659 195.22 93.7625H197.343ZM198.7 89.3513C199.641 88.0331 200.958 86.9893 202.694 86.2336L201.846 84.2873C199.803 85.1771 198.164 86.4493 196.972 88.1174L198.7 89.3513ZM202.694 86.2336C204.426 85.4794 206.456 85.0877 208.806 85.0877V82.9648C206.221 82.9648 203.893 83.3959 201.846 84.2873L202.694 86.2336ZM208.806 85.0877C210.761 85.0877 212.466 85.2508 213.931 85.5666L214.378 83.4915C212.734 83.1369 210.874 82.9648 208.806 82.9648V85.0877ZM213.95 85.5707C215.414 85.8577 216.837 86.3317 218.221 86.9947L219.138 85.0803C217.597 84.3416 216.003 83.8099 214.359 83.4875L213.95 85.5707ZM217.618 86.0375V94.1281H219.741V86.0375H217.618ZM219.192 93.1988C216.399 91.6576 213.512 90.8726 210.543 90.8726V92.9955C213.121 92.9955 215.658 93.6733 218.167 95.0575L219.192 93.1988ZM210.543 90.8726C209.234 90.8726 208.076 91.0666 207.143 91.5332L208.093 93.432C208.622 93.1672 209.415 92.9955 210.543 92.9955V90.8726ZM207.176 91.5177C206.692 91.7394 206.254 92.0508 205.937 92.4868C205.611 92.9341 205.459 93.45 205.459 93.991H207.582C207.582 93.8615 207.613 93.7909 207.654 93.7354C207.702 93.6685 207.813 93.5609 208.06 93.4475L207.176 91.5177ZM205.459 93.991C205.459 95.0732 206.007 95.93 206.892 96.5197L208.07 94.7534C207.674 94.4899 207.582 94.2497 207.582 93.991H205.459ZM206.941 96.5504C207.69 96.9929 209.009 97.5832 210.835 98.3133L211.623 96.3423C209.792 95.6098 208.613 95.0725 208.021 94.7227L206.941 96.5504ZM210.827 98.3102L211.833 98.7216L212.637 96.7568L211.631 96.3454L210.827 98.3102ZM211.833 98.7218C213.956 99.5887 215.52 100.431 216.573 101.234L217.861 99.5466C216.598 98.5825 214.841 97.6571 212.636 96.7566L211.833 98.7218ZM216.598 101.253C217.658 102.013 218.378 102.879 218.808 103.841L220.746 102.974C220.14 101.62 219.153 100.474 217.836 99.5281L216.598 101.253ZM218.812 103.85C219.246 104.795 219.492 106.063 219.492 107.704H221.615C221.615 105.871 221.343 104.275 220.741 102.964L218.812 103.85ZM219.492 107.704C219.492 110.425 218.522 112.465 216.611 113.951L217.914 115.627C220.391 113.7 221.615 111.016 221.615 107.704H219.492ZM216.611 113.951C214.685 115.449 211.656 116.287 207.344 116.287V118.41C211.869 118.41 215.452 117.542 217.914 115.627L216.611 113.951ZM226.506 110.309L225.551 110.774L225.557 110.784L226.506 110.309ZM224.906 84.7119V83.6505H223.845V84.7119H224.906ZM234.368 84.7119H235.43V83.6505H234.368V84.7119ZM235.74 107.11L234.954 107.824L234.96 107.83L234.966 107.836L235.74 107.11ZM243.922 107.11L243.148 106.383L243.142 106.389L243.136 106.396L243.922 107.11ZM245.339 84.7119V83.6505H244.277V84.7119H245.339ZM254.801 84.7119H255.862V83.6505H254.801V84.7119ZM253.155 110.309L252.206 109.835L252.2 109.845L253.155 110.309ZM248.218 115.475L247.699 114.549L247.699 114.549L248.218 115.475ZM239.853 116.287C236.628 116.287 234.032 115.686 232.008 114.549L230.969 116.4C233.394 117.762 236.375 118.41 239.853 118.41V116.287ZM232.008 114.549C229.961 113.399 228.454 111.831 227.456 109.835L225.557 110.784C226.753 113.176 228.567 115.051 230.969 116.4L232.008 114.549ZM227.461 109.845C226.475 107.818 225.968 105.466 225.968 102.767H223.845C223.845 105.736 224.404 108.413 225.551 110.773L227.461 109.845ZM225.968 102.767V84.7119H223.845V102.767H225.968ZM224.906 85.7733H234.368V83.6505H224.906V85.7733ZM233.307 84.7119V102.676H235.43V84.7119H233.307ZM233.307 102.676C233.307 104.776 233.798 106.552 234.954 107.824L236.525 106.396C235.852 105.656 235.43 104.476 235.43 102.676H233.307ZM234.966 107.836C236.167 109.115 237.856 109.68 239.853 109.68V107.557C238.255 107.557 237.201 107.115 236.513 106.383L234.966 107.836ZM239.853 109.68C241.849 109.68 243.532 109.116 244.707 107.824L243.136 106.396C242.483 107.115 241.454 107.557 239.853 107.557V109.68ZM244.695 107.836C245.889 106.565 246.4 104.784 246.4 102.676H244.277C244.277 104.468 243.843 105.643 243.148 106.383L244.695 107.836ZM246.4 102.676V84.7119H244.277V102.676H246.4ZM245.339 85.7733H254.801V83.6505H245.339V85.7733ZM253.739 84.7119V102.767H255.862V84.7119H253.739ZM253.739 102.767C253.739 105.462 253.218 107.809 252.206 109.835L254.104 110.784C255.286 108.421 255.862 105.74 255.862 102.767H253.739ZM252.2 109.845C251.233 111.836 249.744 113.401 247.699 114.549L248.738 116.4C251.142 115.05 252.944 113.171 254.11 110.773L252.2 109.845ZM247.699 114.549C245.675 115.686 243.079 116.287 239.853 116.287V118.41C243.332 118.41 246.313 117.762 248.738 116.4L247.699 114.549ZM260.04 84.7119V83.6505H258.979V84.7119H260.04ZM283.901 87.683L283.2 88.4805L283.206 88.4855L283.212 88.4905L283.901 87.683ZM283.901 104.55L283.206 103.748L283.2 103.752L283.901 104.55ZM269.502 107.521V106.46H268.441V107.521H269.502ZM269.502 116.663V117.725H270.564V116.663H269.502ZM260.04 116.663H258.979V117.725H260.04V116.663ZM276.404 99.1562L277.015 100.024L277.015 100.024L276.404 99.1562ZM276.404 93.0768L277.015 92.2088L277.015 92.2088L276.404 93.0768ZM269.502 92.2083V91.1469H268.441V92.2083H269.502ZM269.502 100.025H268.441V101.086H269.502V100.025ZM260.04 85.7733H274.759V83.6505H260.04V85.7733ZM274.759 85.7733C278.415 85.7733 281.188 86.7131 283.2 88.4805L284.601 86.8856C282.103 84.6915 278.782 83.6505 274.759 83.6505V85.7733ZM283.212 88.4905C285.21 90.1957 286.268 92.6738 286.268 96.0937H288.391C288.391 92.2 287.163 89.071 284.59 86.8756L283.212 88.4905ZM286.268 96.0937C286.268 99.513 285.21 102.011 283.206 103.748L284.596 105.352C287.163 103.128 288.391 99.9879 288.391 96.0937H286.268ZM283.2 103.752C281.188 105.52 278.415 106.46 274.759 106.46V108.583C278.782 108.583 282.103 107.542 284.601 105.347L283.2 103.752ZM274.759 106.46H269.502V108.583H274.759V106.46ZM268.441 107.521V116.663H270.564V107.521H268.441ZM269.502 115.602H260.04V117.725H269.502V115.602ZM261.102 116.663V84.7119H258.979V116.663H261.102ZM272.976 101.086C274.563 101.086 275.949 100.774 277.015 100.024L275.794 98.2882C275.214 98.696 274.315 98.9633 272.976 98.9633V101.086ZM277.015 100.024C278.234 99.1669 278.7 97.7353 278.7 96.0937H276.577C276.577 97.3774 276.221 97.9876 275.794 98.2882L277.015 100.024ZM278.7 96.0937C278.7 94.4726 278.228 93.0622 277.015 92.2088L275.794 93.9449C276.226 94.2494 276.577 94.8502 276.577 96.0937H278.7ZM277.015 92.2088C275.949 91.4586 274.563 91.1469 272.976 91.1469V93.2698C274.315 93.2698 275.214 93.537 275.794 93.9449L277.015 92.2088ZM272.976 91.1469H269.502V93.2698H272.976V91.1469ZM268.441 92.2083V100.025H270.564V92.2083H268.441ZM269.502 101.086H272.976V98.9633H269.502V101.086ZM291.464 84.7119V83.6505H290.403V84.7119H291.464ZM314.639 84.7119H315.7V83.6505H314.639V84.7119ZM314.639 92.6654V93.7269H315.7V92.6654H314.639ZM300.926 92.6654V91.604H299.865V92.6654H300.926ZM300.926 97.0536H299.865V98.115H300.926V97.0536ZM310.799 97.0536H311.861V95.9921H310.799V97.0536ZM310.799 104.321V105.383H311.861V104.321H310.799ZM300.926 104.321V103.26H299.865V104.321H300.926ZM300.926 108.71H299.865V109.771H300.926V108.71ZM314.639 108.71H315.7V107.648H314.639V108.71ZM314.639 116.663V117.725H315.7V116.663H314.639ZM291.464 116.663H290.403V117.725H291.464V116.663ZM291.464 85.7733H314.639V83.6505H291.464V85.7733ZM313.578 84.7119V92.6654H315.7V84.7119H313.578ZM314.639 91.604H300.926V93.7269H314.639V91.604ZM299.865 92.6654V97.0536H301.987V92.6654H299.865ZM300.926 98.115H310.799V95.9921H300.926V98.115ZM309.738 97.0536V104.321H311.861V97.0536H309.738ZM310.799 103.26H300.926V105.383H310.799V103.26ZM299.865 104.321V108.71H301.987V104.321H299.865ZM300.926 109.771H314.639V107.648H300.926V109.771ZM313.578 108.71V116.663H315.7V108.71H313.578ZM314.639 115.602H291.464V117.725H314.639V115.602ZM292.526 116.663V84.7119H290.403V116.663H292.526ZM318.736 84.7119V83.6505H317.675V84.7119H318.736ZM342.688 87.6373L341.989 88.4355L341.995 88.4409L342.688 87.6373ZM344.517 102.082L343.607 101.536L343.603 101.542L343.599 101.548L344.517 102.082ZM340.311 105.921L339.85 104.966L338.883 105.433L339.361 106.394L340.311 105.921ZM345.66 116.663V117.725H347.374L346.61 116.19L345.66 116.663ZM335.969 116.663L335.019 117.136L335.312 117.725H335.969V116.663ZM331.307 107.293L332.257 106.82L331.964 106.231H331.307V107.293ZM328.198 107.293V106.231H327.137V107.293H328.198ZM328.198 116.663V117.725H329.26V116.663H328.198ZM318.736 116.663H317.675V117.725H318.736V116.663ZM335.101 98.9734L335.705 99.8461L335.711 99.8414L335.101 98.9734ZM335.101 93.0768L334.474 93.9338L334.493 93.9473L334.512 93.96L335.101 93.0768ZM328.198 92.2083V91.1469H327.137V92.2083H328.198ZM328.198 99.7962H327.137V100.858H328.198V99.7962ZM318.736 85.7733H333.592V83.6505H318.736V85.7733ZM333.592 85.7733C337.253 85.7733 340.01 86.7003 341.989 88.4355L343.388 86.8392C340.918 84.6738 337.611 83.6505 333.592 83.6505V85.7733ZM341.995 88.4409C343.93 90.1112 344.964 92.5723 344.964 96.0022H347.087C347.087 92.1186 345.896 89.0031 343.382 86.8338L341.995 88.4409ZM344.964 96.0022C344.964 98.2283 344.494 100.057 343.607 101.536L345.427 102.628C346.551 100.754 347.087 98.5299 347.087 96.0022H344.964ZM343.599 101.548C342.736 103.032 341.497 104.169 339.85 104.966L340.773 106.877C342.783 105.906 344.347 104.483 345.434 102.615L343.599 101.548ZM339.361 106.394L344.709 117.136L346.61 116.19L341.262 105.448L339.361 106.394ZM345.66 115.602H335.969V117.725H345.66V115.602ZM336.919 116.19L332.257 106.82L330.356 107.765L335.019 117.136L336.919 116.19ZM331.307 106.231H328.198V108.354H331.307V106.231ZM327.137 107.293V116.663H329.26V107.293H327.137ZM328.198 115.602H318.736V117.725H328.198V115.602ZM319.798 116.663V84.7119H317.675V116.663H319.798ZM331.718 100.858C333.292 100.858 334.665 100.566 335.705 99.8461L334.496 98.1007C333.952 98.4777 333.07 98.7347 331.718 98.7347V100.858ZM335.711 99.8414C336.918 98.992 337.396 97.6028 337.396 96.0022H335.273C335.273 97.2052 334.928 97.7967 334.49 98.1053L335.711 99.8414ZM337.396 96.0022C337.396 94.4061 336.92 93.0139 335.689 92.1936L334.512 93.96C334.927 94.2367 335.273 94.7949 335.273 96.0022H337.396ZM335.727 92.2198C334.683 91.4572 333.301 91.1469 331.718 91.1469V93.2698C333.061 93.2698 333.933 93.5385 334.474 93.9338L335.727 92.2198ZM331.718 91.1469H328.198V93.2698H331.718V91.1469ZM327.137 92.2083V99.7962H329.26V92.2083H327.137ZM328.198 100.858H331.718V98.7347H328.198V100.858ZM371.19 116.709L371.404 115.669L371.397 115.668L371.39 115.666L371.19 116.709ZM366.162 115.109H365.101V115.751L365.67 116.049L366.162 115.109ZM366.162 106.744L366.67 105.812L365.101 104.956V106.744H366.162ZM371.419 108.801L371.161 109.831L371.165 109.832L371.419 108.801ZM379.601 106.287L378.791 106.973L378.819 107.006L378.85 107.038L379.601 106.287ZM378.047 105.19L377.556 106.131L377.572 106.14L377.589 106.147L378.047 105.19ZM374.71 103.636L375.137 102.664L375.132 102.662L374.71 103.636ZM368.265 99.4305L367.46 100.123L367.468 100.132L368.265 99.4305ZM367.853 88.7344L366.99 88.1174L366.987 88.1208L367.853 88.7344ZM372.287 85.2604L372.711 86.2336L372.711 86.2336L372.287 85.2604ZM384.172 84.5291L383.948 85.5666L383.958 85.5688L383.968 85.5707L384.172 84.5291ZM388.697 86.0375H389.759V85.3691L389.156 85.0803L388.697 86.0375ZM388.697 94.1281L388.184 95.0575L389.759 95.926V94.1281H388.697ZM377.635 92.4826L378.078 93.4475L378.094 93.44L378.11 93.432L377.635 92.4826ZM377.498 95.6366L376.909 96.5197L376.933 96.5357L376.958 96.5504L377.498 95.6366ZM381.246 97.3278L381.648 96.3454L381.641 96.3423L381.246 97.3278ZM382.252 97.7392L381.85 98.7216L381.851 98.7218L382.252 97.7392ZM387.234 100.39L386.59 101.234L386.603 101.244L386.615 101.253L387.234 100.39ZM389.794 103.407L388.825 103.841L388.83 103.85L389.794 103.407ZM377.361 116.287C375.394 116.287 373.409 116.082 371.404 115.669L370.976 117.748C373.116 118.189 375.245 118.41 377.361 118.41V116.287ZM371.39 115.666C369.377 115.282 367.811 114.774 366.655 114.169L365.67 116.049C367.073 116.785 368.859 117.344 370.991 117.751L371.39 115.666ZM367.224 115.109V106.744H365.101V115.109H367.224ZM365.654 107.676C367.408 108.633 369.244 109.352 371.161 109.831L371.676 107.771C369.936 107.336 368.268 106.684 366.67 105.812L365.654 107.676ZM371.165 109.832C373.092 110.306 374.915 110.548 376.63 110.548V108.425C375.114 108.425 373.463 108.211 371.672 107.77L371.165 109.832ZM376.63 110.548C377.863 110.548 378.952 110.39 379.768 109.955C380.192 109.729 380.566 109.417 380.829 108.996C381.095 108.571 381.211 108.097 381.211 107.613H379.088C379.088 107.752 379.057 107.825 379.03 107.869C379 107.917 378.933 107.995 378.771 108.081C378.414 108.271 377.743 108.425 376.63 108.425V110.548ZM381.211 107.613C381.211 106.814 380.917 106.102 380.351 105.536L378.85 107.038C379.017 107.204 379.088 107.375 379.088 107.613H381.211ZM380.411 105.601C379.943 105.048 379.28 104.603 378.505 104.232L377.589 106.147C378.216 106.447 378.588 106.733 378.791 106.973L380.411 105.601ZM378.538 104.249C377.804 103.866 376.665 103.336 375.137 102.664L374.282 104.607C375.803 105.276 376.888 105.783 377.556 106.131L378.538 104.249ZM375.132 102.662C372.244 101.411 370.256 100.086 369.062 98.7293L367.468 100.132C368.955 101.822 371.264 103.3 374.288 104.61L375.132 102.662ZM369.07 98.7384C367.945 97.431 367.361 95.7966 367.361 93.7625H365.238C365.238 96.2383 365.964 98.3826 367.46 100.123L369.07 98.7384ZM367.361 93.7625C367.361 92.0803 367.818 90.6212 368.72 89.3479L366.987 88.1208C365.817 89.7729 365.238 91.6659 365.238 93.7625H367.361ZM368.717 89.3513C369.659 88.0331 370.976 86.9893 372.711 86.2336L371.864 84.2873C369.82 85.1771 368.181 86.4493 366.99 88.1174L368.717 89.3513ZM372.711 86.2336C374.443 85.4794 376.473 85.0877 378.824 85.0877V82.9648C376.238 82.9648 373.91 83.3959 371.864 84.2873L372.711 86.2336ZM378.824 85.0877C380.779 85.0877 382.484 85.2508 383.948 85.5666L384.396 83.4915C382.752 83.1369 380.891 82.9648 378.824 82.9648V85.0877ZM383.968 85.5707C385.432 85.8577 386.855 86.3317 388.238 86.9947L389.156 85.0803C387.614 84.3416 386.02 83.8099 384.376 83.4875L383.968 85.5707ZM387.636 86.0375V94.1281H389.759V86.0375H387.636ZM389.21 93.1988C386.417 91.6576 383.529 90.8726 380.561 90.8726V92.9955C383.138 92.9955 385.675 93.6733 388.184 95.0575L389.21 93.1988ZM380.561 90.8726C379.251 90.8726 378.094 91.0666 377.161 91.5332L378.11 93.432C378.64 93.1672 379.432 92.9955 380.561 92.9955V90.8726ZM377.193 91.5177C376.709 91.7394 376.271 92.0508 375.954 92.4868C375.629 92.9341 375.477 93.45 375.477 93.991H377.6C377.6 93.8615 377.631 93.7909 377.671 93.7354C377.72 93.6685 377.83 93.5609 378.078 93.4475L377.193 91.5177ZM375.477 93.991C375.477 95.0732 376.025 95.93 376.909 96.5197L378.087 94.7534C377.692 94.4899 377.6 94.2497 377.6 93.991H375.477ZM376.958 96.5504C377.707 96.9929 379.027 97.5832 380.852 98.3133L381.641 96.3423C379.809 95.6098 378.63 95.0725 378.038 94.7227L376.958 96.5504ZM380.845 98.3102L381.85 98.7216L382.654 96.7568L381.648 96.3454L380.845 98.3102ZM381.851 98.7218C383.973 99.5887 385.538 100.431 386.59 101.234L387.878 99.5466C386.615 98.5825 384.858 97.6571 382.653 96.7566L381.851 98.7218ZM386.615 101.253C387.675 102.013 388.395 102.879 388.825 103.841L390.763 102.974C390.157 101.62 389.171 100.474 387.853 99.5281L386.615 101.253ZM388.83 103.85C389.264 104.795 389.51 106.063 389.51 107.704H391.633C391.633 105.871 391.361 104.275 390.759 102.964L388.83 103.85ZM389.51 107.704C389.51 110.425 388.54 112.465 386.628 113.951L387.932 115.627C390.409 113.7 391.633 111.016 391.633 107.704H389.51ZM386.628 113.951C384.702 115.449 381.673 116.287 377.361 116.287V118.41C381.886 118.41 385.47 117.542 387.932 115.627L386.628 113.951ZM400.985 92.6654H402.047V91.604H400.985V92.6654ZM392.392 92.6654H391.33V93.7269H392.392V92.6654ZM392.392 84.7119V83.6505H391.33V84.7119H392.392ZM419.041 84.7119H420.102V83.6505H419.041V84.7119ZM419.041 92.6654V93.7269H420.102V92.6654H419.041ZM410.447 92.6654V91.604H409.386V92.6654H410.447ZM410.447 116.663V117.725H411.509V116.663H410.447ZM400.985 116.663H399.924V117.725H400.985V116.663ZM400.985 91.604H392.392V93.7269H400.985V91.604ZM393.453 92.6654V84.7119H391.33V92.6654H393.453ZM392.392 85.7733H419.041V83.6505H392.392V85.7733ZM417.979 84.7119V92.6654H420.102V84.7119H417.979ZM419.041 91.604H410.447V93.7269H419.041V91.604ZM409.386 92.6654V116.663H411.509V92.6654H409.386ZM410.447 115.602H400.985V117.725H410.447V115.602ZM402.047 116.663V92.6654H399.924V116.663H402.047ZM428.851 115.246L428.35 116.182L428.355 116.184L428.851 115.246ZM422.634 109.395L421.72 109.935L421.724 109.941L421.728 109.948L422.634 109.395ZM422.634 92.0255L421.725 91.4777L421.72 91.4859L422.634 92.0255ZM428.851 86.1289L428.355 85.1905L428.35 85.1929L428.851 86.1289ZM446.403 86.1289L445.898 87.0624L445.903 87.0649L446.403 86.1289ZM452.574 92.0255L451.66 92.5651L451.665 92.5732L452.574 92.0255ZM452.574 109.395L451.665 108.847L451.663 108.851L452.574 109.395ZM446.403 115.246L445.903 114.31L445.898 114.313L446.403 115.246ZM441.467 107.567L441.971 108.501L441.98 108.496L441.467 107.567ZM444.209 104.87L445.128 105.402L445.134 105.391L444.209 104.87ZM443.067 95.088L443.809 94.3295L443.809 94.3295L443.067 95.088ZM432.188 95.088L431.453 94.3216L431.445 94.3295L432.188 95.088ZM431.045 104.87L430.12 105.391L430.126 105.402L431.045 104.87ZM433.787 107.567L433.274 108.496L433.283 108.501L433.293 108.506L433.787 107.567ZM437.673 116.287C434.602 116.287 431.834 115.623 429.347 114.308L428.355 116.184C431.17 117.673 434.283 118.41 437.673 118.41V116.287ZM429.351 114.31C426.895 112.996 424.964 111.177 423.54 108.843L421.728 109.948C423.352 112.611 425.565 114.692 428.35 116.182L429.351 114.31ZM423.548 108.856C422.162 106.507 421.456 103.803 421.456 100.71H419.333C419.333 104.139 420.12 107.225 421.72 109.935L423.548 108.856ZM421.456 100.71C421.456 97.6181 422.162 94.9134 423.548 92.5651L421.72 91.4859C420.12 94.1961 419.333 97.2814 419.333 100.71H421.456ZM423.543 92.5732C424.968 90.2089 426.898 88.377 429.351 87.0649L428.35 85.1929C425.562 86.6843 423.348 88.7835 421.725 91.4778L423.543 92.5732ZM429.347 87.0673C431.834 85.7525 434.602 85.0877 437.673 85.0877V82.9648C434.283 82.9648 431.17 83.7018 428.355 85.1906L429.347 87.0673ZM437.673 85.0877C440.744 85.0877 443.478 85.7525 445.898 87.0624L446.909 85.1954C444.148 83.7017 441.062 82.9648 437.673 82.9648V85.0877ZM445.903 87.0649C448.354 88.376 450.267 90.2054 451.66 92.5651L453.488 91.4859C451.895 88.787 449.694 86.6853 446.904 85.1929L445.903 87.0649ZM451.665 92.5732C453.079 94.9202 453.798 97.622 453.798 100.71H455.921C455.921 97.2774 455.117 94.1893 453.483 91.4778L451.665 92.5732ZM453.798 100.71C453.798 103.799 453.079 106.5 451.665 108.848L453.483 109.943C455.117 107.231 455.921 104.143 455.921 100.71H453.798ZM451.663 108.851C450.271 111.181 448.357 112.997 445.903 114.31L446.904 116.182C449.691 114.691 451.891 112.607 453.485 109.94L451.663 108.851ZM445.898 114.313C443.478 115.622 440.744 116.287 437.673 116.287V118.41C441.062 118.41 444.148 117.673 446.909 116.18L445.898 114.313ZM437.673 109.542C439.234 109.542 440.675 109.202 441.971 108.501L440.962 106.633C440.004 107.151 438.915 107.42 437.673 107.42V109.542ZM441.98 108.496C443.309 107.762 444.362 106.724 445.128 105.402L443.291 104.338C442.716 105.331 441.941 106.092 440.953 106.638L441.98 108.496ZM445.134 105.391C445.907 104.02 446.276 102.448 446.276 100.71H444.153C444.153 102.142 443.852 103.343 443.285 104.348L445.134 105.391ZM446.276 100.71C446.276 98.1312 445.48 95.965 443.809 94.3295L442.324 95.8466C443.517 97.0146 444.153 98.5966 444.153 100.71H446.276ZM443.809 94.3295C442.162 92.7172 440.09 91.9239 437.673 91.9239V94.0468C439.583 94.0468 441.107 94.6554 442.324 95.8466L443.809 94.3295ZM437.673 91.9239C435.23 91.9239 433.131 92.714 431.453 94.3217L432.922 95.8544C434.17 94.6585 435.727 94.0468 437.673 94.0468V91.9239ZM431.445 94.3295C429.774 95.965 428.978 98.1312 428.978 100.71H431.101C431.101 98.5966 431.737 97.0146 432.93 95.8466L431.445 94.3295ZM428.978 100.71C428.978 102.448 429.347 104.02 430.12 105.391L431.969 104.348C431.402 103.343 431.101 102.142 431.101 100.71H428.978ZM430.126 105.402C430.892 106.724 431.945 107.762 433.274 108.496L434.301 106.638C433.313 106.092 432.538 105.331 431.963 104.338L430.126 105.402ZM433.293 108.506C434.618 109.203 436.085 109.542 437.673 109.542V107.42C436.396 107.42 435.273 107.149 434.282 106.628L433.293 108.506ZM459.428 84.7119V83.6505H458.367V84.7119H459.428ZM483.38 87.6373L482.68 88.4355L482.687 88.4409L483.38 87.6373ZM485.208 102.082L484.298 101.536L484.295 101.542L484.291 101.548L485.208 102.082ZM481.003 105.921L480.541 104.966L479.574 105.433L480.053 106.394L481.003 105.921ZM486.351 116.663V117.725H488.065L487.301 116.19L486.351 116.663ZM476.661 116.663L475.71 117.136L476.003 117.725H476.661V116.663ZM471.998 107.293L472.949 106.82L472.656 106.231H471.998V107.293ZM468.89 107.293V106.231H467.829V107.293H468.89ZM468.89 116.663V117.725H469.952V116.663H468.89ZM459.428 116.663H458.367V117.725H459.428V116.663ZM475.792 98.9734L476.396 99.8461L476.403 99.8414L475.792 98.9734ZM475.792 93.0768L475.166 93.9338L475.184 93.9473L475.203 93.96L475.792 93.0768ZM468.89 92.2083V91.1469H467.829V92.2083H468.89ZM468.89 99.7962H467.829V100.858H468.89V99.7962ZM459.428 85.7733H474.284V83.6505H459.428V85.7733ZM474.284 85.7733C477.944 85.7733 480.701 86.7003 482.68 88.4355L484.08 86.8392C481.61 84.6738 478.302 83.6505 474.284 83.6505V85.7733ZM482.687 88.4409C484.622 90.1112 485.655 92.5723 485.655 96.0022H487.778C487.778 92.1186 486.587 89.0031 484.074 86.8338L482.687 88.4409ZM485.655 96.0022C485.655 98.2283 485.186 100.057 484.298 101.536L486.119 102.628C487.243 100.754 487.778 98.5299 487.778 96.0022H485.655ZM484.291 101.548C483.427 103.032 482.189 104.169 480.541 104.966L481.465 106.877C483.474 105.906 485.039 104.483 486.126 102.615L484.291 101.548ZM480.053 106.394L485.401 117.136L487.301 116.19L481.953 105.448L480.053 106.394ZM486.351 115.602H476.661V117.725H486.351V115.602ZM477.611 116.19L472.949 106.82L471.048 107.765L475.71 117.136L477.611 116.19ZM471.998 106.231H468.89V108.354H471.998V106.231ZM467.829 107.293V116.663H469.952V107.293H467.829ZM468.89 115.602H459.428V117.725H468.89V115.602ZM460.49 116.663V84.7119H458.367V116.663H460.49ZM472.41 100.858C473.984 100.858 475.356 100.566 476.396 99.8461L475.188 98.1007C474.643 98.4777 473.761 98.7347 472.41 98.7347V100.858ZM476.403 99.8414C477.61 98.992 478.088 97.6028 478.088 96.0022H475.965C475.965 97.2052 475.62 97.7967 475.181 98.1053L476.403 99.8414ZM478.088 96.0022C478.088 94.4061 477.611 93.0139 476.381 92.1936L475.203 93.96C475.619 94.2367 475.965 94.7949 475.965 96.0022H478.088ZM476.419 92.2198C475.375 91.4572 473.993 91.1469 472.41 91.1469V93.2698C473.752 93.2698 474.625 93.5385 475.166 93.9338L476.419 92.2198ZM472.41 91.1469H468.89V93.2698H472.41V91.1469ZM467.829 92.2083V99.7962H469.952V92.2083H467.829ZM468.89 100.858H472.41V98.7347H468.89V100.858ZM491.298 84.7119V83.6505H490.237V84.7119H491.298ZM514.473 84.7119H515.535V83.6505H514.473V84.7119ZM514.473 92.6654V93.7269H515.535V92.6654H514.473ZM500.76 92.6654V91.604H499.699V92.6654H500.76ZM500.76 97.0536H499.699V98.115H500.76V97.0536ZM510.634 97.0536H511.695V95.9921H510.634V97.0536ZM510.634 104.321V105.383H511.695V104.321H510.634ZM500.76 104.321V103.26H499.699V104.321H500.76ZM500.76 108.71H499.699V109.771H500.76V108.71ZM514.473 108.71H515.535V107.648H514.473V108.71ZM514.473 116.663V117.725H515.535V116.663H514.473ZM491.298 116.663H490.237V117.725H491.298V116.663ZM491.298 85.7733H514.473V83.6505H491.298V85.7733ZM513.412 84.7119V92.6654H515.535V84.7119H513.412ZM514.473 91.604H500.76V93.7269H514.473V91.604ZM499.699 92.6654V97.0536H501.822V92.6654H499.699ZM500.76 98.115H510.634V95.9921H500.76V98.115ZM509.572 97.0536V104.321H511.695V97.0536H509.572ZM510.634 103.26H500.76V105.383H510.634V103.26ZM499.699 104.321V108.71H501.822V104.321H499.699ZM500.76 109.771H514.473V107.648H500.76V109.771ZM513.412 108.71V116.663H515.535V108.71H513.412ZM514.473 115.602H491.298V117.725H514.473V115.602ZM492.36 116.663V84.7119H490.237V116.663H492.36Z" fill="white" mask="url(#path-20-outside-1_42_29)"/>
<defs>
<linearGradient id="paint0_linear_42_29" x1="42.73" y1="70.1878" x2="96.9224" y2="70.1878" gradientUnits="userSpaceOnUse">
<stop stop-color="#EAB81F"/>
<stop offset="0.32" stop-color="#DFAE26"/>
<stop offset="0.68" stop-color="#B87F2B"/>
<stop offset="1" stop-color="#FCF38A"/>
</linearGradient>
<linearGradient id="paint1_linear_42_29" x1="58.3546" y1="48.8429" x2="96.4016" y2="48.8429" gradientUnits="userSpaceOnUse">
<stop stop-color="#EAB81F"/>
<stop offset="0.32" stop-color="#DFAE26"/>
<stop offset="0.68" stop-color="#B87F2B"/>
<stop offset="1" stop-color="#FCF38A"/>
</linearGradient>
<linearGradient id="paint2_linear_42_29" x1="55.6957" y1="69.4763" x2="85.7934" y2="69.4763" gradientUnits="userSpaceOnUse">
<stop stop-color="#EAB81F"/>
<stop offset="0.32" stop-color="#DFAE26"/>
<stop offset="0.68" stop-color="#B87F2B"/>
<stop offset="1" stop-color="#FCF38A"/>
</linearGradient>
<linearGradient id="paint3_linear_42_29" x1="110.025" y1="44.3003" x2="129.432" y2="44.3003" gradientUnits="userSpaceOnUse">
<stop stop-color="#EAB81F"/>
<stop offset="0.32" stop-color="#DFAE26"/>
<stop offset="0.68" stop-color="#B87F2B"/>
<stop offset="1" stop-color="#FCF38A"/>
</linearGradient>
<linearGradient id="paint4_linear_42_29" x1="82.4492" y1="37.76" x2="111.286" y2="37.76" gradientUnits="userSpaceOnUse">
<stop stop-color="#EAB81F"/>
<stop offset="0.32" stop-color="#DFAE26"/>
<stop offset="0.68" stop-color="#B87F2B"/>
<stop offset="1" stop-color="#FCF38A"/>
</linearGradient>
<linearGradient id="paint5_linear_42_29" x1="98.9508" y1="46.9001" x2="137.902" y2="46.9001" gradientUnits="userSpaceOnUse">
<stop stop-color="#EAB81F"/>
<stop offset="0.32" stop-color="#DFAE26"/>
<stop offset="0.68" stop-color="#B87F2B"/>
<stop offset="1" stop-color="#FCF38A"/>
</linearGradient>
<linearGradient id="paint6_linear_42_29" x1="90.371" y1="39.7577" x2="105.228" y2="39.7577" gradientUnits="userSpaceOnUse">
<stop stop-color="#EAB81F"/>
<stop offset="0.32" stop-color="#DFAE26"/>
<stop offset="0.68" stop-color="#B87F2B"/>
<stop offset="1" stop-color="#FCF38A"/>
</linearGradient>
<linearGradient id="paint7_linear_42_29" x1="67.9211" y1="49.0344" x2="89.2472" y2="49.0344" gradientUnits="userSpaceOnUse">
<stop stop-color="#EAB81F"/>
<stop offset="0.32" stop-color="#DFAE26"/>
<stop offset="0.68" stop-color="#B87F2B"/>
<stop offset="1" stop-color="#FCF38A"/>
</linearGradient>
<linearGradient id="paint8_linear_42_29" x1="101.802" y1="68.4363" x2="155.501" y2="68.4363" gradientUnits="userSpaceOnUse">
<stop stop-color="#EAB81F"/>
<stop offset="0.32" stop-color="#DFAE26"/>
<stop offset="0.68" stop-color="#B87F2B"/>
<stop offset="1" stop-color="#FCF38A"/>
</linearGradient>
<linearGradient id="paint9_linear_42_29" x1="104.186" y1="68.3268" x2="142.37" y2="68.3268" gradientUnits="userSpaceOnUse">
<stop stop-color="#EAB81F"/>
<stop offset="0.32" stop-color="#DFAE26"/>
<stop offset="0.68" stop-color="#B87F2B"/>
<stop offset="1" stop-color="#FCF38A"/>
</linearGradient>
<linearGradient id="paint10_linear_42_29" x1="28.5035" y1="111.892" x2="183.192" y2="62.2914" gradientUnits="userSpaceOnUse">
<stop stop-color="#EAB81F"/>
<stop offset="0.32" stop-color="#DFAE26"/>
<stop offset="0.37" stop-color="#C8993D"/>
<stop offset="0.57" stop-color="#EBD573"/>
<stop offset="0.74" stop-color="#B87F2B"/>
<stop offset="1" stop-color="#FCF38A"/>
</linearGradient>
<linearGradient id="paint11_linear_42_29" x1="24.0628" y1="98.0999" x2="178.779" y2="48.4992" gradientUnits="userSpaceOnUse">
<stop stop-color="#EAB81F"/>
<stop offset="0.32" stop-color="#DFAE26"/>
<stop offset="0.37" stop-color="#C8993D"/>
<stop offset="0.57" stop-color="#EBD573"/>
<stop offset="0.74" stop-color="#B87F2B"/>
<stop offset="1" stop-color="#FCF38A"/>
</linearGradient>
<linearGradient id="paint12_linear_42_29" x1="31.2721" y1="120.594" x2="185.988" y2="70.9935" gradientUnits="userSpaceOnUse">
<stop stop-color="#EAB81F"/>
<stop offset="0.32" stop-color="#DFAE26"/>
<stop offset="0.37" stop-color="#C8993D"/>
<stop offset="0.57" stop-color="#EBD573"/>
<stop offset="0.74" stop-color="#B87F2B"/>
<stop offset="1" stop-color="#FCF38A"/>
</linearGradient>
<linearGradient id="paint13_linear_42_29" x1="33.1635" y1="126.45" x2="187.852" y2="76.8221" gradientUnits="userSpaceOnUse">
<stop stop-color="#EAB81F"/>
<stop offset="0.32" stop-color="#DFAE26"/>
<stop offset="0.37" stop-color="#C8993D"/>
<stop offset="0.57" stop-color="#EBD573"/>
<stop offset="0.74" stop-color="#B87F2B"/>
<stop offset="1" stop-color="#FCF38A"/>
</linearGradient>
<linearGradient id="paint14_linear_42_29" x1="35.0274" y1="132.279" x2="189.716" y2="82.6783" gradientUnits="userSpaceOnUse">
<stop stop-color="#EAB81F"/>
<stop offset="0.32" stop-color="#DFAE26"/>
<stop offset="0.37" stop-color="#C8993D"/>
<stop offset="0.57" stop-color="#EBD573"/>
<stop offset="0.74" stop-color="#B87F2B"/>
<stop offset="1" stop-color="#FCF38A"/>
</linearGradient>
<linearGradient id="paint15_linear_42_29" x1="41.332" y1="151.9" x2="196.021" y2="102.299" gradientUnits="userSpaceOnUse">
<stop stop-color="#EAB81F"/>
<stop offset="0.32" stop-color="#DFAE26"/>
<stop offset="0.37" stop-color="#C8993D"/>
<stop offset="0.57" stop-color="#EBD573"/>
<stop offset="0.74" stop-color="#B87F2B"/>
<stop offset="1" stop-color="#FCF38A"/>
</linearGradient>
<linearGradient id="paint16_linear_42_29" x1="39.4681" y1="146.071" x2="194.157" y2="96.4701" gradientUnits="userSpaceOnUse">
<stop stop-color="#EAB81F"/>
<stop offset="0.32" stop-color="#DFAE26"/>
<stop offset="0.37" stop-color="#C8993D"/>
<stop offset="0.57" stop-color="#EBD573"/>
<stop offset="0.74" stop-color="#B87F2B"/>
<stop offset="1" stop-color="#FCF38A"/>
</linearGradient>
<clipPath id="clip0_42_29">
<rect width="128.231" height="118.409" fill="white" transform="translate(35 12.3652)"/>
</clipPath>
</defs>
</svg>
