<svg width="481" height="127" viewBox="0 0 481 127" fill="none" xmlns="http://www.w3.org/2000/svg">
<g clip-path="url(#clip0_81_46)">
<path d="M8.36048 61.0236C12.1707 63.9516 16.0905 66.7429 20.0103 69.5615C22.0388 71.0118 24.0124 72.4895 26.315 73.4747C30.5089 75.2808 34.8673 75.9923 39.4176 75.5818C43.6664 75.1987 47.5314 73.8578 50.903 71.3128C54.9051 68.3301 58.3315 64.6905 61.8401 61.1604C61.895 61.1057 61.8676 61.0236 61.895 60.9415C61.5112 60.9689 61.2919 61.1878 61.0452 61.3793C58.5508 63.1581 56.0289 64.9094 53.5619 66.7429C51.6979 68.1111 49.8614 69.4794 47.7507 70.4919C44.0775 72.2433 40.2125 72.6811 36.2379 72.5169C32.1536 72.3254 28.4256 71.1213 25.0266 68.9047C20.9697 66.2777 16.9951 63.4864 12.993 60.7773C12.1433 60.2026 12.1433 60.1205 12.9108 59.4364C15.4326 57.1377 17.9545 54.8664 20.4489 52.5404C22.4499 50.6522 24.3962 48.6819 26.6713 47.1221C26.7809 47.04 26.918 46.9579 26.8632 46.739C26.5068 46.739 26.1779 46.9032 25.849 47.04C24.6154 47.6421 23.4642 48.2988 22.3677 49.0924C17.6255 52.513 12.9108 56.0158 8.33307 59.628C7.51072 60.2847 7.51072 60.3942 8.33307 61.0509L8.36048 61.0236Z" fill="url(#paint0_linear_81_46)"/>
<path d="M23.8206 24.4911C24.3414 27.9665 24.8622 31.4419 25.4378 34.9172C25.849 37.3527 26.1779 39.8156 26.9729 42.169C28.3983 46.3011 30.7556 49.8038 33.9628 52.7593C37.8278 56.3167 42.3507 58.4786 47.5588 58.889C51.8624 59.2448 56.2208 59.2995 60.5518 59.2722C60.7986 59.2722 61.1001 59.3269 61.3468 58.9711C59.3183 58.6154 57.3721 58.2596 55.4259 57.9313C52.8767 57.5208 50.2726 57.2471 47.7507 56.7546C42.4877 55.6873 38.1841 52.9782 34.6755 48.9282C32.0166 45.8633 30.2622 42.3332 29.4673 38.3652C28.5353 33.7953 27.7952 29.1706 26.8358 24.628C26.6439 23.6702 26.7262 23.506 27.713 23.5607C29.7414 23.6428 31.7699 23.807 33.7983 23.8617C37.1151 23.9438 40.4319 23.9712 43.7487 24.2175C44.6258 24.2722 45.5304 24.409 46.5446 24.5185C46.2705 24.108 45.969 24.0807 45.7223 23.9712C43.6938 23.205 41.5283 22.8766 39.3902 22.5209C36.6217 22.083 33.8257 21.7273 31.0298 21.3715C28.782 21.0705 26.5069 20.7695 24.2317 20.4685C23.2997 20.359 23.2175 20.4685 23.3271 21.4263C23.4642 22.4661 23.6013 23.4786 23.7657 24.5185L23.8206 24.4911Z" fill="url(#paint1_linear_81_46)"/>
<path d="M29.9059 54.7843C30.4541 54.237 31.1394 53.8265 31.9343 53.1971C31.2491 53.0877 30.8653 53.2519 30.4815 53.3887C26.8632 54.7296 24.0399 57.2472 20.9424 59.409C20.5038 59.71 20.7231 59.9563 20.9972 60.2026C23.6287 62.2003 26.1231 64.4442 29.0836 66.004C32.8937 68.0016 36.9232 68.3027 41.0623 67.2628C44.5984 66.3871 47.3121 64.2526 49.6147 61.5161C50.0259 61.0236 50.6289 60.6404 50.7934 59.9563C50.4919 59.8195 50.3274 60.0384 50.1355 60.1479C49.0939 60.7773 48.0523 61.4067 47.038 62.0361C44.3243 63.7327 41.3365 64.581 38.1567 64.6905C33.2775 64.882 29.3303 62.5834 25.5475 59.8742C25.1911 59.6279 25.246 59.409 25.5475 59.1354C27.0003 57.685 28.4531 56.2347 29.9333 54.8117L29.9059 54.7843Z" fill="url(#paint2_linear_81_46)"/>
<path d="M90.2933 42.3057C91.2527 41.6216 91.7461 40.6638 92.1572 39.7061C93.6649 36.2581 93.8293 32.509 94.405 28.8421C94.4872 28.4043 94.2131 28.2401 93.8019 28.2948C90.7044 28.76 87.5247 28.979 84.5094 29.9367C80.2059 31.305 77.0261 33.9868 75.2718 38.2283C75.1347 38.5567 74.9429 38.9125 75.0525 39.2956C75.2718 39.323 75.3815 39.2135 75.4637 39.104C76.615 37.9273 77.8211 36.8601 79.1368 35.875C82.4536 33.4395 86.3186 32.7553 90.2384 32.1807C90.8689 32.0986 90.8689 32.4817 90.8689 32.8922C90.8141 35.2456 91.0334 37.6263 90.677 39.9797C90.5674 40.7459 90.4303 41.5122 90.2933 42.2784V42.3057Z" fill="url(#paint3_linear_81_46)"/>
<path d="M52.5752 47.1494C54.5488 49.5849 56.8788 51.692 59.0991 53.8812C59.2361 54.018 59.3458 54.1822 59.5925 54.1822C59.6199 53.8538 59.4006 53.6622 59.2361 53.4433C57.7559 51.3636 56.2757 49.2565 54.7681 47.1767C51.7254 42.9351 50.3548 38.1462 50.4919 32.9742C50.629 28.0485 52.1366 23.5333 55.0148 19.5106C57.564 15.9532 60.0311 12.3136 62.4981 8.67406C63.0189 7.88048 63.0737 7.90784 63.7042 8.59197C66.226 11.3011 68.8027 14.0103 71.2972 16.7468C72.5581 18.115 73.9561 19.3191 75.0799 20.8242C75.4637 21.3441 75.8749 21.8093 76.2586 22.3292C76.2038 21.3988 75.7652 20.66 75.3266 19.9211C73.5449 16.9657 71.4068 14.2839 69.3509 11.5474C67.4321 8.97508 65.4585 6.45749 63.4849 3.91254C62.9093 3.17368 62.7722 3.17368 62.2514 3.91254C61.5935 4.78822 60.9082 5.66391 60.2504 6.53959C57.8382 9.76867 55.5356 13.0525 53.1234 16.2816C48.9569 21.7819 46.8736 27.857 47.5041 34.7803C47.9426 39.4324 49.5873 43.5645 52.5203 47.1767L52.5752 47.1494Z" fill="url(#paint4_linear_81_46)"/>
<path d="M68.6381 31.7976C66.2533 34.9994 64.7183 38.5842 64.3345 42.5521C63.9234 46.9579 63.896 51.3637 63.9782 55.7968C63.9782 56.0705 63.8685 56.3988 64.1701 56.6999C64.4168 56.262 64.4168 55.8242 64.499 55.3863C65.2939 51.4184 65.6777 47.3684 66.4726 43.4004C68.2818 34.2879 75.957 26.8446 85.0576 25.1206C87.1134 24.7375 89.1419 24.3543 91.1977 23.9439C93.8292 23.4239 96.4607 22.9314 99.0648 22.3841C99.7501 22.2472 100.024 22.4388 99.9694 23.1503C99.9146 23.9986 99.8597 24.8196 99.8323 25.6679C99.7227 29.7179 99.5582 33.7679 99.613 37.818C99.613 38.2284 99.613 38.6663 99.613 39.2683C99.9968 38.6389 100.052 38.0916 100.161 37.5717C101.23 31.7976 102.025 25.9689 102.848 20.1675C102.985 19.155 102.848 19.0182 101.833 19.1823C97.3379 19.8391 92.8698 20.4959 88.3744 21.1526C85.9622 21.5084 83.5225 21.8368 81.1926 22.6303C76.0392 24.3543 71.8727 27.474 68.6381 31.7976Z" fill="url(#paint5_linear_81_46)"/>
<path d="M63.3752 21.2073C63.6219 20.8242 63.8686 20.9337 64.1153 21.2073C65.9518 23.1503 68.0625 24.8195 69.5701 27.0635C69.7072 27.2824 69.8168 27.5834 70.2006 27.6381C70.2006 26.8172 69.8991 26.0783 69.5976 25.3668C68.1722 22.1104 65.8422 19.456 63.8138 16.5826C63.4574 16.0901 63.2107 16.4184 62.964 16.7195C61.8401 18.1424 60.7437 19.5381 59.6198 20.9611C56.0289 25.4216 54.4939 30.402 55.8644 36.0666C56.7964 39.925 59.0168 42.8805 62.1965 45.1791L62.3884 45.0423C61.9772 44.3308 61.6208 43.6193 61.1823 42.9352C58.77 38.9673 57.9751 34.7257 58.8249 30.1557C59.4553 26.7077 61.4838 23.9986 63.3478 21.2073H63.3752Z" fill="url(#paint6_linear_81_46)"/>
<path d="M37.115 32.2627C39.308 32.2627 41.5009 32.2627 43.7212 32.3174C44.4887 32.3174 45.2562 32.5637 46.1608 32.7279C45.8319 32.1806 45.4207 32.0438 45.0644 31.8249C43.31 30.8397 41.3912 30.4293 39.445 30.1009C37.6084 29.7999 35.7719 29.4715 33.9353 29.1978C32.9759 29.061 32.8389 29.2526 32.9485 30.183C33.1404 31.6333 33.3323 33.0837 33.4967 34.534C33.8257 37.4074 34.4013 40.1986 35.9089 42.7162C38.1019 46.3831 41.1719 48.8733 45.2562 50.1868C47.97 51.0625 50.7111 50.7889 53.4797 50.7615C53.7264 50.7615 54.0005 50.7615 54.2198 50.3237C53.0137 50.0226 51.8898 49.6943 50.7111 49.4753C46.4623 48.6544 43.0359 46.5199 40.2948 43.2087C37.8277 40.1986 37.1425 36.559 36.4572 32.8921C36.3749 32.3995 36.649 32.2354 37.0876 32.2354L37.115 32.2627Z" fill="url(#paint7_linear_81_46)"/>
<path d="M83.4678 46.6568C86.7846 45.7537 90.1287 45.6716 93.5278 46.1642C97.0912 46.6841 100.381 47.9977 103.341 50.0501C106.987 52.595 110.605 55.1673 114.251 57.7396C115.155 58.369 115.155 58.5059 114.333 59.2174C111.784 61.3518 109.262 63.5137 106.74 65.6481C104.575 67.4816 102.491 69.4519 99.942 70.7654C91.6364 74.9796 83.5226 74.5418 75.5185 69.8897C74.6413 69.3698 73.7641 68.8499 72.887 68.3299C72.8596 68.3847 72.8047 68.4394 72.7773 68.4941C73.8464 69.5613 75.0525 70.4918 76.286 71.3401C85.1673 77.4699 96.8171 77.2509 105.424 70.7107C110.441 66.9069 115.265 62.8295 120.117 58.8069C120.72 58.3143 120.583 58.0133 120.062 57.6575C119.02 56.9461 117.979 56.2072 116.937 55.4957C113.1 52.8139 109.317 50.0774 105.424 47.5051C100.435 44.2213 94.9257 42.7162 88.8952 43.2361C84.8932 43.5645 81.1926 44.7412 77.7936 46.9304C75.1895 48.6271 73.0788 50.8436 70.8311 52.9234C69.4331 54.2095 67.9529 55.441 66.8016 57.0281C66.9113 56.9734 67.0209 56.9734 67.1032 56.8913C69.5428 55.1126 72.0098 53.3886 74.3672 51.5278C77.1357 49.3659 80.0688 47.6146 83.4678 46.6841V46.6568Z" fill="url(#paint8_linear_81_46)"/>
<path d="M87.415 54.7295C90.7866 53.8538 94.0485 54.018 97.1734 55.6599C98.8181 56.5082 100.216 57.6849 101.779 58.6427C102.135 58.8616 102.162 59.0806 101.861 59.3816C101.285 59.9015 100.682 60.4214 100.106 60.9688C95.1176 65.6755 89.3338 66.9891 82.755 65.0462C82.289 64.9093 81.8231 64.5809 81.1104 64.6357C81.4941 64.9367 81.7134 65.1556 81.9875 65.3198C87.3876 68.4668 92.8973 68.631 98.4344 65.7576C101.614 64.0884 104.191 61.5434 107.042 59.3816C107.617 58.9437 107.398 58.6154 106.932 58.287C105.041 56.9187 103.149 55.5505 101.258 54.1822C98.4892 52.1846 95.4191 50.9805 91.9927 50.9531C88.6211 50.8984 85.4962 51.993 82.5906 53.6349C79.2738 55.4957 76.3956 57.9312 73.6819 60.5583C72.2016 61.9813 70.7214 63.3769 69.2412 64.7999C69.3234 64.882 69.4057 64.9641 69.4605 65.0735C69.7894 65.0735 70.0087 64.8546 70.2554 64.6904C72.9692 62.8296 75.6555 60.9414 78.424 59.1353C81.22 57.3018 84.153 55.6599 87.4424 54.8116L87.415 54.7295Z" fill="url(#paint9_linear_81_46)"/>
<path d="M10.1697 110.773C8.77171 110.773 7.45596 110.527 6.22245 110.034C4.98893 109.542 3.89248 108.858 2.9879 107.982C2.08332 107.106 1.34321 106.094 0.822397 104.944C0.274169 103.795 0.0274658 102.564 0.0274658 101.223V87.3487C0.0274658 87.1024 0.137111 86.9929 0.383814 86.9929H0.740163C1.53509 86.9929 2.24779 87.2666 2.79602 87.8412C3.37166 88.3885 3.64577 89.1 3.64577 89.921V101.25C3.64577 102.071 3.81024 102.837 4.16659 103.549C4.49553 104.26 4.96152 104.89 5.56457 105.41C6.14021 105.957 6.8255 106.367 7.62043 106.668C8.41536 106.969 9.26511 107.134 10.1697 107.134C11.0743 107.134 11.924 106.969 12.719 106.668C13.5139 106.367 14.1992 105.957 14.7748 105.41C15.3504 104.862 15.8164 104.26 16.1454 103.549C16.4743 102.837 16.6388 102.071 16.6388 101.25V89.921C16.6388 89.1 16.9129 88.3885 17.4885 87.8412C18.0642 87.2939 18.7495 86.9929 19.5444 86.9929H19.9007C20.1474 86.9929 20.2571 87.1024 20.2571 87.3487V101.223C20.2571 102.536 19.983 103.768 19.4622 104.944C18.9139 106.094 18.2012 107.106 17.2967 107.982C16.3921 108.858 15.2956 109.542 14.0895 110.034C12.856 110.527 11.5403 110.773 10.1423 110.773H10.1697Z" fill="url(#paint10_linear_81_46)"/>
<path d="M25.5474 84.5025H15.9534C15.46 84.5025 15.0214 84.3931 14.6103 84.2015C14.1991 84.01 13.8428 83.7363 13.5412 83.4079C13.2397 83.0796 13.0204 82.6691 12.8559 82.2312C12.7189 81.7934 12.6641 81.3282 12.7189 80.8356L12.9108 79.2211C12.9108 79.2211 12.8834 79.0295 12.8285 78.9474C12.7737 78.8653 12.6641 78.8106 12.5544 78.8106H12.4448C11.7321 78.8106 11.129 78.5643 10.6356 78.0718C10.1422 77.5792 9.89551 76.9771 9.89551 76.2657V75.6363C9.89551 75.39 10.0052 75.2805 10.2519 75.2805H12.8559C13.4042 75.2805 13.8976 75.39 14.3636 75.6089C14.8296 75.8278 15.2407 76.1288 15.5697 76.4846C15.8986 76.8403 16.1453 77.2782 16.3098 77.7707C16.4742 78.2633 16.5291 78.7832 16.4468 79.3032L16.3372 80.5072C16.3372 80.5072 16.3372 80.7262 16.4194 80.8083C16.5017 80.8904 16.5839 80.9177 16.721 80.9177H23.0256C23.8205 80.9177 24.5332 81.1914 25.0814 81.766C25.6571 82.3407 25.9312 83.0248 25.9312 83.8184V84.1194C25.9312 84.3657 25.8215 84.4752 25.5748 84.4752L25.5474 84.5025Z" fill="url(#paint11_linear_81_46)"/>
<path d="M41.8024 110.746H41.4461C40.6511 110.746 39.9384 110.472 39.3902 109.897C38.8146 109.323 38.5405 108.639 38.5405 107.845V96.516C38.5405 94.7099 37.9922 93.2869 36.8684 92.2197C35.7445 91.1524 34.2643 90.6325 32.3455 90.6325C30.317 90.6325 28.7546 91.2345 27.6307 92.4112C27.0825 93.0406 26.3424 93.369 25.4378 93.369C25.054 93.369 24.6977 93.3143 24.3688 93.1774L23.5738 92.8217C23.3271 92.7122 23.2449 92.5754 23.3545 92.3565C24.1221 90.6872 25.3007 89.3737 26.8906 88.4159C28.4531 87.4581 30.2896 86.9929 32.3729 86.9929C33.8257 86.9929 35.1414 87.2392 36.3201 87.7044C37.5262 88.1696 38.5405 88.8537 39.4176 89.7021C40.2948 90.5504 40.9801 91.5629 41.4735 92.7122C41.9669 93.8616 42.2136 95.1477 42.2136 96.5433V110.417C42.2136 110.664 42.1039 110.773 41.8572 110.773L41.8024 110.746Z" fill="url(#paint12_linear_81_46)"/>
<path d="M62.7722 89.921C62.7722 89.1 63.0463 88.3885 63.622 87.8412C64.1976 87.2939 64.8829 86.9929 65.6778 86.9929H66.0342C66.2809 86.9929 66.3905 87.1024 66.3905 87.3487V110.363C66.3905 110.609 66.2809 110.718 66.0342 110.718H65.6778C64.8829 110.718 64.1702 110.445 63.622 109.87C63.0463 109.295 62.7722 108.611 62.7722 107.818V106.942C62.224 107.435 61.6484 107.9 60.9905 108.365C60.3326 108.83 59.6747 109.241 58.962 109.596C58.2493 109.952 57.5092 110.226 56.7691 110.445C56.0016 110.664 55.2615 110.773 54.494 110.773C53.3153 110.773 52.2188 110.554 51.2046 110.116C50.1904 109.679 49.2858 109.077 48.5457 108.338C47.8056 107.599 47.2025 106.723 46.764 105.683C46.3254 104.671 46.1061 103.576 46.1061 102.399V87.3487C46.1061 87.1024 46.2157 86.9929 46.4624 86.9929H46.8188C47.6137 86.9929 48.3264 87.2666 48.8746 87.8412C49.4503 88.4159 49.7244 89.1 49.7244 89.8936V102.399C49.7244 103.056 49.834 103.686 50.0807 104.233C50.3274 104.808 50.6564 105.3 51.095 105.738C51.5335 106.176 52.0269 106.504 52.6026 106.751C53.1782 106.997 53.7813 107.106 54.4392 107.106C55.3163 107.106 56.2209 106.86 57.1529 106.367C58.0849 105.875 58.962 105.3 59.7296 104.643C60.4971 103.987 61.1824 103.33 61.7306 102.7C62.2788 102.044 62.6078 101.579 62.69 101.25V89.8936L62.7722 89.921Z" fill="url(#paint13_linear_81_46)"/>
<path d="M80.5073 110.773C79.1094 110.773 77.7936 110.527 76.5601 110.034C75.3266 109.542 74.2301 108.858 73.3255 107.982C72.421 107.106 71.6809 106.094 71.16 104.944C70.6118 103.795 70.3651 102.564 70.3651 101.223V87.3487C70.3651 87.1024 70.4748 86.9929 70.7215 86.9929H71.0778C71.8727 86.9929 72.5854 87.2666 73.1337 87.8412C73.7093 88.3885 73.9834 89.1 73.9834 89.921V101.25C73.9834 102.071 74.1479 102.837 74.5042 103.549C74.8332 104.26 75.2992 104.89 75.9022 105.41C76.4779 105.957 77.1631 106.367 77.9581 106.668C78.753 106.969 79.6028 107.134 80.5073 107.134C81.4119 107.134 82.2617 106.969 83.0566 106.668C83.8515 106.367 84.5368 105.957 85.1125 105.41C85.6881 104.862 86.1541 104.26 86.483 103.549C86.812 102.837 86.9764 102.071 86.9764 101.25V89.921C86.9764 89.1 87.2505 88.3885 87.8262 87.8412C88.4018 87.2939 89.0871 86.9929 89.882 86.9929H90.2384C90.4851 86.9929 90.5947 87.1024 90.5947 87.3487V101.223C90.5947 102.536 90.3206 103.768 89.7998 104.944C89.2516 106.094 88.5389 107.106 87.6343 107.982C86.7297 108.858 85.6333 109.542 84.4272 110.034C83.1937 110.527 81.8779 110.773 80.4799 110.773H80.5073Z" fill="url(#paint14_linear_81_46)"/>
<path d="M89.7724 121.774H89.4708C88.6759 121.774 87.9632 121.5 87.415 120.926C86.8393 120.351 86.5652 119.667 86.5652 118.873V116.547C86.5652 116.301 86.4556 116.191 86.2089 116.191H86.1815C85.4688 116.191 84.8657 115.945 84.3723 115.453C83.8789 114.96 83.6322 114.358 83.6322 113.647V112.99C83.6322 112.743 83.7418 112.634 83.9885 112.634H87.2505C88.0454 112.634 88.7581 112.908 89.3064 113.482C89.882 114.057 90.1561 114.741 90.1561 115.535V121.446C90.1561 121.692 90.0465 121.801 89.7998 121.801L89.7724 121.774Z" fill="url(#paint15_linear_81_46)"/>
<path d="M119.569 110.773C118.363 110.773 117.239 110.581 116.197 110.226C115.155 109.87 114.223 109.377 113.456 108.748C112.688 108.119 112.058 107.407 111.592 106.586C111.126 105.765 110.907 104.862 110.907 103.932V96.4884C110.907 96.4884 110.907 96.1874 110.879 95.859C110.879 95.5306 110.77 95.1475 110.66 94.7097C110.55 94.2718 110.358 93.8066 110.084 93.3414C109.838 92.8762 109.481 92.4384 109.015 92.0279C108.549 91.6174 107.974 91.289 107.288 91.0154C106.603 90.7417 105.753 90.6049 104.739 90.6049C103.834 90.6049 103.04 90.7143 102.354 90.9606C101.669 91.1796 101.066 91.4806 100.545 91.809C100.024 92.1373 99.6131 92.5204 99.2568 92.9309C98.9278 93.3414 98.6263 93.6971 98.407 94.0529C98.2974 94.1897 98.3248 94.3539 98.4344 94.5181L99.7502 95.7495C100.298 96.2968 100.6 97.0083 100.6 97.8293V106.449C100.6 106.641 100.682 106.805 100.819 106.969C100.956 107.106 101.148 107.188 101.34 107.188H101.477C101.806 107.188 102.135 107.27 102.382 107.434C102.656 107.599 102.875 107.79 103.012 108.064C103.177 108.31 103.259 108.611 103.286 108.912C103.286 109.241 103.259 109.542 103.094 109.815L102.738 110.554C102.738 110.554 102.628 110.663 102.601 110.718C102.546 110.773 102.491 110.8 102.409 110.8H100.956C100.408 110.8 99.9147 110.691 99.4212 110.472C98.9278 110.253 98.5167 109.952 98.1329 109.596C97.7766 109.241 97.475 108.803 97.2557 108.31C97.0365 107.818 96.9268 107.298 96.9268 106.75V99.3617C96.9268 98.5408 96.6527 97.8293 96.0771 97.282L94.1308 95.3938C94.1308 95.3938 93.9664 95.2022 94.0212 95.038L94.2679 94.1897C94.4598 93.5603 94.8161 92.8215 95.3095 92.0005C95.8029 91.1796 96.4882 90.386 97.338 89.6471C98.1877 88.9083 99.2294 88.2789 100.435 87.7589C101.642 87.239 103.067 86.9653 104.684 86.9653C106.302 86.9653 107.727 87.239 108.96 87.7863C110.194 88.3336 111.236 89.0724 112.058 89.9481C112.88 90.8512 113.511 91.8637 113.922 93.013C114.333 94.1623 114.552 95.3117 114.552 96.4884V103.932C114.552 104.287 114.662 104.671 114.909 105.054C115.155 105.437 115.512 105.793 115.95 106.094C116.389 106.395 116.937 106.641 117.54 106.832C118.143 107.024 118.829 107.133 119.541 107.133C120.254 107.133 120.912 107.051 121.487 106.86C122.09 106.668 122.611 106.422 123.077 106.121C123.543 105.793 123.9 105.437 124.146 104.999C124.393 104.561 124.53 104.096 124.53 103.603V89.8934C124.53 89.0998 124.804 88.3883 125.38 87.841C125.956 87.2664 126.641 86.9927 127.436 86.9927H127.792C128.039 86.9927 128.148 87.1022 128.148 87.3484V103.603C128.148 104.616 127.929 105.574 127.463 106.449C127.025 107.325 126.394 108.091 125.627 108.721C124.859 109.377 123.927 109.87 122.885 110.226C121.844 110.581 120.693 110.773 119.486 110.773H119.569ZM126.915 116.656H114.772C113.977 116.656 113.264 116.383 112.716 115.808C112.168 115.233 111.866 114.549 111.866 113.756V110.718C111.866 110.527 111.948 110.39 112.113 110.362L112.305 110.28C112.579 110.198 112.825 110.171 113.045 110.171C113.675 110.171 114.223 110.39 114.717 110.855C115.183 111.293 115.43 111.868 115.43 112.552V112.771C115.43 113.017 115.539 113.126 115.786 113.126H124.393C125.215 113.126 125.928 113.4 126.476 113.975C127.025 114.522 127.326 115.233 127.326 116.054V116.301C127.326 116.547 127.216 116.656 126.97 116.656H126.915Z" fill="url(#paint16_linear_81_46)"/>
</g>
<path d="M162.356 20.856H181.752C185.365 20.856 188.252 21.7594 190.413 23.5661C192.61 25.3374 193.708 27.888 193.708 31.2181C193.708 32.7059 193.371 34.1053 192.698 35.416C192.061 36.7268 191.122 37.7896 189.882 38.6043C191.618 39.3837 192.876 40.4111 193.655 41.6864C194.47 42.9617 194.877 44.6267 194.877 46.6814C194.877 48.9841 194.328 51.0034 193.23 52.7393C192.132 54.4397 190.644 55.7505 188.766 56.6715C186.924 57.5572 184.869 58 182.602 58H162.356V20.856ZM178.882 35.2566C180.087 35.2566 180.99 34.9909 181.592 34.4595C182.23 33.9281 182.549 33.0779 182.549 31.9089C182.549 30.7044 182.248 29.8719 181.646 29.4113C181.043 28.9154 180.104 28.6674 178.829 28.6674H173.356V35.2566H178.882ZM179.52 50.1886C180.972 50.1886 182.035 49.9229 182.708 49.3915C183.381 48.8601 183.718 47.9391 183.718 46.6283C183.718 45.353 183.364 44.4142 182.655 43.8119C181.982 43.2097 180.902 42.9086 179.414 42.9086H173.356V50.1886H179.52ZM209.992 20.856H220.567L235.392 58H224.127L221.364 50.9325H209.195L206.379 58H195.113L209.992 20.856ZM218.813 42.5898L215.253 32.1746L211.693 42.5898H218.813ZM252.115 20.856H262.69L277.515 58H266.25L263.487 50.9325H251.318L248.502 58H237.236L252.115 20.856ZM260.936 42.5898L257.376 32.1746L253.815 42.5898H260.936ZM282.29 20.856H292.971L304.555 40.3048V20.856H315.555V58H304.927L293.29 38.5512V58H282.29V20.856ZM321.403 20.856H340.799C344.412 20.856 347.299 21.7594 349.46 23.5661C351.657 25.3374 352.755 27.888 352.755 31.2181C352.755 32.7059 352.418 34.1053 351.745 35.416C351.108 36.7268 350.169 37.7896 348.929 38.6043C350.665 39.3837 351.922 40.4111 352.702 41.6864C353.517 42.9617 353.924 44.6267 353.924 46.6814C353.924 48.9841 353.375 51.0034 352.277 52.7393C351.178 54.4397 349.691 55.7505 347.813 56.6715C345.971 57.5572 343.916 58 341.649 58H321.403V20.856ZM337.929 35.2566C339.134 35.2566 340.037 34.9909 340.639 34.4595C341.277 33.9281 341.596 33.0779 341.596 31.9089C341.596 30.7044 341.295 29.8719 340.692 29.4113C340.09 28.9154 339.151 28.6674 337.876 28.6674H332.403V35.2566H337.929ZM338.567 50.1886C340.019 50.1886 341.082 49.9229 341.755 49.3915C342.428 48.8601 342.765 47.9391 342.765 46.6283C342.765 45.353 342.41 44.4142 341.702 43.8119C341.029 43.2097 339.948 42.9086 338.461 42.9086H332.403V50.1886H338.567ZM376.374 58.7971C372.619 58.7971 369.2 57.9823 366.118 56.3527C363.072 54.7231 360.663 52.4559 358.892 49.5509C357.156 46.6106 356.288 43.2451 356.288 39.4546C356.288 35.664 357.156 32.2985 358.892 29.3582C360.663 26.4179 363.072 24.1329 366.118 22.5033C369.2 20.8737 372.619 20.0589 376.374 20.0589C380.129 20.0589 383.513 20.8737 386.524 22.5033C389.57 24.1329 391.962 26.4179 393.697 29.3582C395.469 32.2985 396.354 35.664 396.354 39.4546C396.354 43.2451 395.469 46.6106 393.697 49.5509C391.962 52.4559 389.57 54.7231 386.524 56.3527C383.513 57.9823 380.129 58.7971 376.374 58.7971ZM376.374 48.4882C378.004 48.4882 379.474 48.1339 380.785 47.4254C382.131 46.6814 383.194 45.6364 383.973 44.2902C384.752 42.9086 385.142 41.2967 385.142 39.4546C385.142 36.7268 384.31 34.5481 382.645 32.9185C380.98 31.2889 378.889 30.4741 376.374 30.4741C373.824 30.4741 371.698 31.2889 369.998 32.9185C368.333 34.5481 367.5 36.7268 367.5 39.4546C367.5 41.2967 367.89 42.9086 368.669 44.2902C369.448 45.6364 370.511 46.6814 371.857 47.4254C373.204 48.1339 374.709 48.4882 376.374 48.4882ZM419.898 58.7971C416.143 58.7971 412.724 57.9823 409.642 56.3527C406.596 54.7231 404.187 52.4559 402.416 49.5509C400.68 46.6106 399.812 43.2451 399.812 39.4546C399.812 35.664 400.68 32.2985 402.416 29.3582C404.187 26.4179 406.596 24.1329 409.642 22.5033C412.724 20.8737 416.143 20.0589 419.898 20.0589C423.653 20.0589 427.036 20.8737 430.048 22.5033C433.094 24.1329 435.486 26.4179 437.221 29.3582C438.993 32.2985 439.878 35.664 439.878 39.4546C439.878 43.2451 438.993 46.6106 437.221 49.5509C435.486 52.4559 433.094 54.7231 430.048 56.3527C427.036 57.9823 423.653 58.7971 419.898 58.7971ZM419.898 48.4882C421.528 48.4882 422.998 48.1339 424.309 47.4254C425.655 46.6814 426.718 45.6364 427.497 44.2902C428.276 42.9086 428.666 41.2967 428.666 39.4546C428.666 36.7268 427.834 34.5481 426.169 32.9185C424.504 31.2889 422.413 30.4741 419.898 30.4741C417.348 30.4741 415.222 31.2889 413.522 32.9185C411.857 34.5481 411.024 36.7268 411.024 39.4546C411.024 41.2967 411.414 42.9086 412.193 44.2902C412.972 45.6364 414.035 46.6814 415.381 47.4254C416.728 48.1339 418.233 48.4882 419.898 48.4882ZM444.658 20.856H455.339L466.923 40.3048V20.856H477.923V58H467.295L455.658 38.5512V58H444.658V20.856Z" fill="#F6F54D"/>
<path d="M172.344 108.349C170.302 108.349 168.245 108.135 166.173 107.709C164.101 107.313 162.425 106.779 161.145 106.109V97.744C162.821 98.6582 164.573 99.3439 166.402 99.801C168.26 100.258 169.997 100.487 171.612 100.487C173.959 100.487 175.132 99.8619 175.132 98.6125C175.132 98.0945 174.949 97.6526 174.584 97.287C174.248 96.8908 173.73 96.5251 173.029 96.1899C172.329 95.8242 171.216 95.3062 169.693 94.6358C166.737 93.3559 164.588 91.9541 163.248 90.4305C161.937 88.9068 161.282 87.0175 161.282 84.7625C161.282 82.8731 161.8 81.1971 162.836 79.7344C163.903 78.2412 165.381 77.0832 167.27 76.2604C169.159 75.4376 171.338 75.0263 173.807 75.0263C175.818 75.0263 177.6 75.1939 179.155 75.5291C180.709 75.8338 182.217 76.3366 183.68 77.0375V85.1281C181.029 83.6654 178.317 82.9341 175.544 82.9341C174.325 82.9341 173.349 83.1169 172.618 83.4826C171.887 83.8178 171.521 84.3206 171.521 84.991C171.521 85.6614 171.841 86.2099 172.481 86.6366C173.151 87.0327 174.401 87.5965 176.229 88.3278L177.235 88.7392C179.398 89.6229 181.059 90.5067 182.217 91.3904C183.406 92.2436 184.259 93.2492 184.777 94.4072C185.295 95.5347 185.554 96.967 185.554 98.704C185.554 101.721 184.457 104.082 182.263 105.789C180.069 107.495 176.762 108.349 172.344 108.349ZM204.854 108.349C201.501 108.349 198.713 107.724 196.489 106.475C194.264 105.225 192.603 103.503 191.506 101.309C190.44 99.1153 189.906 96.6013 189.906 93.7673V75.7119H199.368V93.6759C199.368 95.6262 199.825 97.1041 200.74 98.1097C201.684 99.1153 203.056 99.6182 204.854 99.6182C206.651 99.6182 208.007 99.1153 208.922 98.1097C209.866 97.1041 210.339 95.6262 210.339 93.6759V75.7119H219.801V93.7673C219.801 96.6013 219.252 99.1153 218.155 101.309C217.089 103.503 215.443 105.225 213.218 106.475C210.994 107.724 208.206 108.349 204.854 108.349ZM225.04 75.7119H239.759C243.599 75.7119 246.646 76.7023 248.901 78.683C251.187 80.6333 252.329 83.4369 252.329 87.0937C252.329 90.7504 251.187 93.5692 248.901 95.55C246.646 97.5307 243.599 98.5211 239.759 98.5211H234.502V107.663H225.04V75.7119ZM237.976 91.0247C239.439 91.0247 240.582 90.7352 241.405 90.1562C242.227 89.5772 242.639 88.5564 242.639 87.0937C242.639 85.6614 242.227 84.6558 241.405 84.0768C240.582 83.4978 239.439 83.2083 237.976 83.2083H234.502V91.0247H237.976ZM256.464 75.7119H279.639V83.6654H265.926V88.0536H275.799V95.3214H265.926V99.7096H279.639V107.663H256.464V75.7119ZM283.737 75.7119H298.592C302.432 75.7119 305.464 76.687 307.689 78.6373C309.913 80.5571 311.025 83.3454 311.025 87.0022C311.025 89.3791 310.523 91.4056 309.517 93.0816C308.542 94.7577 307.14 96.0375 305.312 96.9213L310.66 107.663H300.969L296.307 98.2926H293.198V107.663H283.737V75.7119ZM296.718 90.7962C298.181 90.7962 299.308 90.5219 300.101 89.9734C300.923 89.3944 301.335 88.404 301.335 87.0022C301.335 85.6005 300.923 84.6253 300.101 84.0768C299.308 83.4978 298.181 83.2083 296.718 83.2083H293.198V90.7962H296.718ZM342.361 108.349C340.32 108.349 338.263 108.135 336.19 107.709C334.118 107.313 332.442 106.779 331.162 106.109V97.744C332.838 98.6582 334.591 99.3439 336.419 99.801C338.278 100.258 340.015 100.487 341.63 100.487C343.976 100.487 345.15 99.8619 345.15 98.6125C345.15 98.0945 344.967 97.6526 344.601 97.287C344.266 96.8908 343.748 96.5251 343.047 96.1899C342.346 95.8242 341.234 95.3062 339.71 94.6358C336.754 93.3559 334.606 91.9541 333.265 90.4305C331.955 88.9068 331.299 87.0175 331.299 84.7625C331.299 82.8731 331.817 81.1971 332.854 79.7344C333.92 78.2412 335.398 77.0832 337.287 76.2604C339.177 75.4376 341.356 75.0263 343.824 75.0263C345.835 75.0263 347.618 75.1939 349.172 75.5291C350.726 75.8338 352.235 76.3366 353.697 77.0375V85.1281C351.046 83.6654 348.334 82.9341 345.561 82.9341C344.342 82.9341 343.367 83.1169 342.635 83.4826C341.904 83.8178 341.538 84.3206 341.538 84.991C341.538 85.6614 341.858 86.2099 342.498 86.6366C343.169 87.0327 344.418 87.5965 346.247 88.3278L347.252 88.7392C349.416 89.6229 351.077 90.5067 352.235 91.3904C353.423 92.2436 354.276 93.2492 354.794 94.4072C355.312 95.5347 355.571 96.967 355.571 98.704C355.571 101.721 354.474 104.082 352.28 105.789C350.086 107.495 346.78 108.349 342.361 108.349ZM365.985 83.6654H357.392V75.7119H384.041V83.6654H375.447V107.663H365.985V83.6654ZM402.673 108.349C399.443 108.349 396.502 107.648 393.851 106.246C391.23 104.844 389.158 102.894 387.634 100.395C386.141 97.8659 385.395 94.971 385.395 91.7104C385.395 88.4497 386.141 85.5548 387.634 83.0255C389.158 80.4962 391.23 78.5307 393.851 77.1289C396.502 75.7271 399.443 75.0263 402.673 75.0263C405.903 75.0263 408.813 75.7271 411.403 77.1289C414.024 78.5307 416.081 80.4962 417.574 83.0255C419.098 85.5548 419.86 88.4497 419.86 91.7104C419.86 94.971 419.098 97.8659 417.574 100.395C416.081 102.894 414.024 104.844 411.403 106.246C408.813 107.648 405.903 108.349 402.673 108.349ZM402.673 99.481C404.075 99.481 405.339 99.1763 406.467 98.5668C407.625 97.9269 408.539 97.0279 409.209 95.8699C409.88 94.6815 410.215 93.295 410.215 91.7104C410.215 89.3639 409.499 87.4898 408.067 86.088C406.634 84.6863 404.836 83.9854 402.673 83.9854C400.479 83.9854 398.65 84.6863 397.188 86.088C395.755 87.4898 395.039 89.3639 395.039 91.7104C395.039 93.295 395.375 94.6815 396.045 95.8699C396.715 97.0279 397.63 97.9269 398.788 98.5668C399.946 99.1763 401.241 99.481 402.673 99.481ZM424.428 75.7119H439.284C443.124 75.7119 446.156 76.687 448.38 78.6373C450.605 80.5571 451.717 83.3454 451.717 87.0022C451.717 89.3791 451.214 91.4056 450.209 93.0816C449.233 94.7577 447.832 96.0375 446.003 96.9213L451.351 107.663H441.661L436.998 98.2926H433.89V107.663H424.428V75.7119ZM437.41 90.7962C438.873 90.7962 440 90.5219 440.792 89.9734C441.615 89.3944 442.027 88.404 442.027 87.0022C442.027 85.6005 441.615 84.6253 440.792 84.0768C440 83.4978 438.873 83.2083 437.41 83.2083H433.89V90.7962H437.41ZM456.298 75.7119H479.473V83.6654H465.76V88.0536H475.634V95.3214H465.76V99.7096H479.473V107.663H456.298V75.7119Z" fill="white"/>
<defs>
<linearGradient id="paint0_linear_81_46" x1="7.73001" y1="61.1878" x2="61.9224" y2="61.1878" gradientUnits="userSpaceOnUse">
<stop stop-color="#EAB81F"/>
<stop offset="0.32" stop-color="#DFAE26"/>
<stop offset="0.68" stop-color="#B87F2B"/>
<stop offset="1" stop-color="#FCF38A"/>
</linearGradient>
<linearGradient id="paint1_linear_81_46" x1="23.3546" y1="39.8429" x2="61.4016" y2="39.8429" gradientUnits="userSpaceOnUse">
<stop stop-color="#EAB81F"/>
<stop offset="0.32" stop-color="#DFAE26"/>
<stop offset="0.68" stop-color="#B87F2B"/>
<stop offset="1" stop-color="#FCF38A"/>
</linearGradient>
<linearGradient id="paint2_linear_81_46" x1="20.6957" y1="60.4763" x2="50.7934" y2="60.4763" gradientUnits="userSpaceOnUse">
<stop stop-color="#EAB81F"/>
<stop offset="0.32" stop-color="#DFAE26"/>
<stop offset="0.68" stop-color="#B87F2B"/>
<stop offset="1" stop-color="#FCF38A"/>
</linearGradient>
<linearGradient id="paint3_linear_81_46" x1="75.0251" y1="35.3003" x2="94.4324" y2="35.3003" gradientUnits="userSpaceOnUse">
<stop stop-color="#EAB81F"/>
<stop offset="0.32" stop-color="#DFAE26"/>
<stop offset="0.68" stop-color="#B87F2B"/>
<stop offset="1" stop-color="#FCF38A"/>
</linearGradient>
<linearGradient id="paint4_linear_81_46" x1="47.4492" y1="28.76" x2="76.286" y2="28.76" gradientUnits="userSpaceOnUse">
<stop stop-color="#EAB81F"/>
<stop offset="0.32" stop-color="#DFAE26"/>
<stop offset="0.68" stop-color="#B87F2B"/>
<stop offset="1" stop-color="#FCF38A"/>
</linearGradient>
<linearGradient id="paint5_linear_81_46" x1="63.9508" y1="37.9001" x2="102.902" y2="37.9001" gradientUnits="userSpaceOnUse">
<stop stop-color="#EAB81F"/>
<stop offset="0.32" stop-color="#DFAE26"/>
<stop offset="0.68" stop-color="#B87F2B"/>
<stop offset="1" stop-color="#FCF38A"/>
</linearGradient>
<linearGradient id="paint6_linear_81_46" x1="55.371" y1="30.7577" x2="70.228" y2="30.7577" gradientUnits="userSpaceOnUse">
<stop stop-color="#EAB81F"/>
<stop offset="0.32" stop-color="#DFAE26"/>
<stop offset="0.68" stop-color="#B87F2B"/>
<stop offset="1" stop-color="#FCF38A"/>
</linearGradient>
<linearGradient id="paint7_linear_81_46" x1="32.9211" y1="40.0344" x2="54.2472" y2="40.0344" gradientUnits="userSpaceOnUse">
<stop stop-color="#EAB81F"/>
<stop offset="0.32" stop-color="#DFAE26"/>
<stop offset="0.68" stop-color="#B87F2B"/>
<stop offset="1" stop-color="#FCF38A"/>
</linearGradient>
<linearGradient id="paint8_linear_81_46" x1="66.8016" y1="59.4363" x2="120.501" y2="59.4363" gradientUnits="userSpaceOnUse">
<stop stop-color="#EAB81F"/>
<stop offset="0.32" stop-color="#DFAE26"/>
<stop offset="0.68" stop-color="#B87F2B"/>
<stop offset="1" stop-color="#FCF38A"/>
</linearGradient>
<linearGradient id="paint9_linear_81_46" x1="69.1864" y1="59.3268" x2="107.37" y2="59.3268" gradientUnits="userSpaceOnUse">
<stop stop-color="#EAB81F"/>
<stop offset="0.32" stop-color="#DFAE26"/>
<stop offset="0.68" stop-color="#B87F2B"/>
<stop offset="1" stop-color="#FCF38A"/>
</linearGradient>
<linearGradient id="paint10_linear_81_46" x1="-6.49645" y1="102.892" x2="148.192" y2="53.2914" gradientUnits="userSpaceOnUse">
<stop stop-color="#EAB81F"/>
<stop offset="0.32" stop-color="#DFAE26"/>
<stop offset="0.37" stop-color="#C8993D"/>
<stop offset="0.57" stop-color="#EBD573"/>
<stop offset="0.74" stop-color="#B87F2B"/>
<stop offset="1" stop-color="#FCF38A"/>
</linearGradient>
<linearGradient id="paint11_linear_81_46" x1="-10.9372" y1="89.0999" x2="143.779" y2="39.4992" gradientUnits="userSpaceOnUse">
<stop stop-color="#EAB81F"/>
<stop offset="0.32" stop-color="#DFAE26"/>
<stop offset="0.37" stop-color="#C8993D"/>
<stop offset="0.57" stop-color="#EBD573"/>
<stop offset="0.74" stop-color="#B87F2B"/>
<stop offset="1" stop-color="#FCF38A"/>
</linearGradient>
<linearGradient id="paint12_linear_81_46" x1="-3.72794" y1="111.594" x2="150.988" y2="61.9935" gradientUnits="userSpaceOnUse">
<stop stop-color="#EAB81F"/>
<stop offset="0.32" stop-color="#DFAE26"/>
<stop offset="0.37" stop-color="#C8993D"/>
<stop offset="0.57" stop-color="#EBD573"/>
<stop offset="0.74" stop-color="#B87F2B"/>
<stop offset="1" stop-color="#FCF38A"/>
</linearGradient>
<linearGradient id="paint13_linear_81_46" x1="-1.83648" y1="117.45" x2="152.852" y2="67.8221" gradientUnits="userSpaceOnUse">
<stop stop-color="#EAB81F"/>
<stop offset="0.32" stop-color="#DFAE26"/>
<stop offset="0.37" stop-color="#C8993D"/>
<stop offset="0.57" stop-color="#EBD573"/>
<stop offset="0.74" stop-color="#B87F2B"/>
<stop offset="1" stop-color="#FCF38A"/>
</linearGradient>
<linearGradient id="paint14_linear_81_46" x1="0.0274303" y1="123.279" x2="154.716" y2="73.6783" gradientUnits="userSpaceOnUse">
<stop stop-color="#EAB81F"/>
<stop offset="0.32" stop-color="#DFAE26"/>
<stop offset="0.37" stop-color="#C8993D"/>
<stop offset="0.57" stop-color="#EBD573"/>
<stop offset="0.74" stop-color="#B87F2B"/>
<stop offset="1" stop-color="#FCF38A"/>
</linearGradient>
<linearGradient id="paint15_linear_81_46" x1="6.33204" y1="142.9" x2="161.021" y2="93.2991" gradientUnits="userSpaceOnUse">
<stop stop-color="#EAB81F"/>
<stop offset="0.32" stop-color="#DFAE26"/>
<stop offset="0.37" stop-color="#C8993D"/>
<stop offset="0.57" stop-color="#EBD573"/>
<stop offset="0.74" stop-color="#B87F2B"/>
<stop offset="1" stop-color="#FCF38A"/>
</linearGradient>
<linearGradient id="paint16_linear_81_46" x1="4.46811" y1="137.071" x2="159.157" y2="87.4701" gradientUnits="userSpaceOnUse">
<stop stop-color="#EAB81F"/>
<stop offset="0.32" stop-color="#DFAE26"/>
<stop offset="0.37" stop-color="#C8993D"/>
<stop offset="0.57" stop-color="#EBD573"/>
<stop offset="0.74" stop-color="#B87F2B"/>
<stop offset="1" stop-color="#FCF38A"/>
</linearGradient>
<clipPath id="clip0_81_46">
<rect width="128.231" height="118.409" fill="white" transform="translate(0 3.36523)"/>
</clipPath>
</defs>
</svg>
