<?xml version="1.0" encoding="UTF-8"?>
<svg id="Layer_2" data-name="Layer 2" xmlns="http://www.w3.org/2000/svg" xmlns:xlink="http://www.w3.org/1999/xlink" viewBox="0 0 129.16 119.46">
  <defs>
    <style>
      .cls-1 {
        fill: url(#linear-gradient-12);
      }

      .cls-1, .cls-2, .cls-3, .cls-4, .cls-5, .cls-6, .cls-7, .cls-8, .cls-9, .cls-10, .cls-11, .cls-12, .cls-13, .cls-14, .cls-15, .cls-16, .cls-17 {
        stroke-width: 0px;
      }

      .cls-2 {
        fill: url(#linear-gradient-17);
      }

      .cls-3 {
        fill: url(#linear-gradient);
      }

      .cls-4 {
        fill: url(#linear-gradient-6);
      }

      .cls-5 {
        fill: url(#linear-gradient-15);
      }

      .cls-6 {
        fill: url(#linear-gradient-11);
      }

      .cls-7 {
        fill: url(#linear-gradient-5);
      }

      .cls-8 {
        fill: url(#linear-gradient-13);
      }

      .cls-9 {
        fill: url(#linear-gradient-16);
      }

      .cls-10 {
        fill: url(#linear-gradient-14);
      }

      .cls-11 {
        fill: url(#linear-gradient-2);
      }

      .cls-12 {
        fill: url(#linear-gradient-7);
      }

      .cls-13 {
        fill: url(#linear-gradient-3);
      }

      .cls-14 {
        fill: url(#linear-gradient-9);
      }

      .cls-15 {
        fill: url(#linear-gradient-8);
      }

      .cls-16 {
        fill: url(#linear-gradient-10);
      }

      .cls-17 {
        fill: url(#linear-gradient-4);
      }
    </style>
    <linearGradient id="linear-gradient" x1="7.78" y1="58.33" x2="62.35" y2="58.33" gradientUnits="userSpaceOnUse">
      <stop offset="0" stop-color="#e7a923"/>
      <stop offset="0" stop-color="#eab81f"/>
      <stop offset=".32" stop-color="#dfae26"/>
      <stop offset=".68" stop-color="#b87f2b"/>
      <stop offset="1" stop-color="#fcf38a"/>
    </linearGradient>
    <linearGradient id="linear-gradient-2" x1="23.52" y1="36.81" x2="61.85" y2="36.81" xlink:href="#linear-gradient"/>
    <linearGradient id="linear-gradient-3" x1="20.84" y1="57.63" x2="51.16" y2="57.63" xlink:href="#linear-gradient"/>
    <linearGradient id="linear-gradient-4" x1="75.57" y1="32.22" x2="95.11" y2="32.22" xlink:href="#linear-gradient"/>
    <linearGradient id="linear-gradient-5" x1="47.79" y1="25.63" x2="76.84" y2="25.63" xlink:href="#linear-gradient"/>
    <linearGradient id="linear-gradient-6" x1="64.41" y1="34.85" x2="103.65" y2="34.85" xlink:href="#linear-gradient"/>
    <linearGradient id="linear-gradient-7" x1="55.76" y1="27.63" x2="70.73" y2="27.63" xlink:href="#linear-gradient"/>
    <linearGradient id="linear-gradient-8" x1="33.17" y1="36.99" x2="54.63" y2="36.99" xlink:href="#linear-gradient"/>
    <linearGradient id="linear-gradient-9" x1="67.28" y1="56.57" x2="121.38" y2="56.57" xlink:href="#linear-gradient"/>
    <linearGradient id="linear-gradient-10" x1="69.69" y1="56.46" x2="108.15" y2="56.46" xlink:href="#linear-gradient"/>
    <linearGradient id="linear-gradient-11" x1="-6.55" y1="100.42" x2="149.3" y2="50.53" gradientUnits="userSpaceOnUse">
      <stop offset="0" stop-color="#e7a923"/>
      <stop offset="0" stop-color="#eab81f"/>
      <stop offset=".32" stop-color="#dfae26"/>
      <stop offset=".37" stop-color="#c8993d"/>
      <stop offset=".57" stop-color="#ebd573"/>
      <stop offset=".74" stop-color="#b87f2b"/>
      <stop offset="1" stop-color="#fcf38a"/>
    </linearGradient>
    <linearGradient id="linear-gradient-12" x1="-11" y1="86.5" x2="144.85" y2="36.62" xlink:href="#linear-gradient-11"/>
    <linearGradient id="linear-gradient-13" x1="-3.74" y1="109.19" x2="152.11" y2="59.3" xlink:href="#linear-gradient-11"/>
    <linearGradient id="linear-gradient-14" x1="-1.86" y1="115.08" x2="154" y2="65.19" xlink:href="#linear-gradient-11"/>
    <linearGradient id="linear-gradient-15" x1=".03" y1="120.99" x2="155.89" y2="71.1" xlink:href="#linear-gradient-11"/>
    <linearGradient id="linear-gradient-16" x1="6.37" y1="140.78" x2="162.22" y2="90.89" xlink:href="#linear-gradient-11"/>
    <linearGradient id="linear-gradient-17" x1="4.49" y1="134.9" x2="160.34" y2="85.01" xlink:href="#linear-gradient-11"/>
  </defs>
  <g id="Layer_1-2" data-name="Layer 1">
    <g>
      <g>
        <path class="cls-3" d="M8.42,58.16c3.84,2.96,7.79,5.78,11.74,8.61,2.03,1.45,4.04,2.95,6.35,3.95,4.22,1.83,8.6,2.55,13.21,2.12,4.27-.39,8.16-1.75,11.57-4.31,4.02-3.02,7.49-6.67,11.02-10.24.04-.04.03-.14.05-.23-.37.03-.6.26-.85.43-2.52,1.79-5.05,3.57-7.54,5.41-1.87,1.38-3.74,2.75-5.85,3.77-3.69,1.77-7.58,2.22-11.61,2.03-4.1-.19-7.88-1.42-11.29-3.63-4.09-2.65-8.08-5.46-12.12-8.2-.85-.58-.85-.66-.08-1.35,2.54-2.31,5.09-4.61,7.59-6.95,2.03-1.9,3.96-3.9,6.28-5.47.11-.08.24-.16.19-.39-.37,0-.7.16-1.02.31-1.23.59-2.41,1.28-3.51,2.08-4.79,3.45-9.52,6.98-14.14,10.64-.83.66-.83.77.02,1.43Z"/>
        <path class="cls-11" d="M23.99,21.32c.54,3.5,1.06,7.01,1.64,10.51.4,2.46.75,4.94,1.56,7.31,1.43,4.17,3.82,7.69,7.05,10.68,3.89,3.6,8.46,5.77,13.7,6.2,4.35.35,8.73.42,13.1.38.25,0,.55.06.81-.32-2.05-.36-4-.72-5.95-1.04-2.58-.41-5.18-.69-7.73-1.2-5.31-1.06-9.65-3.82-13.18-7.9-2.68-3.1-4.44-6.66-5.24-10.65-.93-4.61-1.68-9.26-2.66-13.87-.21-.97-.1-1.13.89-1.09,2.04.08,4.08.25,6.12.3,3.35.09,6.69.12,10.03.36.89.07,1.79.2,2.81.31-.27-.41-.57-.45-.82-.54-2.06-.79-4.22-1.11-6.38-1.46-2.8-.45-5.62-.79-8.43-1.17-2.28-.31-4.55-.61-6.83-.9-.93-.12-1.03,0-.91.96.13,1.04.27,2.08.43,3.12Z"/>
        <path class="cls-13" d="M30.13,51.87c.57-.54,1.23-.98,2.04-1.61-.68-.1-1.07.06-1.46.2-3.63,1.34-6.49,3.9-9.61,6.06-.45.31-.23.56.07.79,2.66,2.03,5.15,4.28,8.14,5.85,3.85,2.02,7.9,2.32,12.06,1.28,3.55-.89,6.3-3.04,8.61-5.79.41-.49,1.02-.88,1.18-1.58-.32-.13-.48.07-.66.18-1.05.63-2.09,1.26-3.12,1.91-2.74,1.71-5.75,2.56-8.95,2.68-4.91.19-8.89-2.13-12.7-4.86-.35-.25-.3-.48-.02-.75,1.48-1.45,2.93-2.93,4.42-4.36Z"/>
        <path class="cls-17" d="M90.95,39.3c.97-.69,1.45-1.65,1.88-2.63,1.51-3.49,1.69-7.27,2.27-10.95.07-.45-.18-.62-.62-.55-3.13.48-6.32.69-9.35,1.66-4.32,1.39-7.53,4.09-9.29,8.36-.14.35-.34.7-.23,1.09.23.03.32-.08.42-.18,1.15-1.18,2.38-2.27,3.71-3.24,3.33-2.44,7.23-3.14,11.18-3.73.64-.09.64.3.63.72-.06,2.38.17,4.77-.19,7.14-.12.78-.26,1.55-.39,2.33Z"/>
        <path class="cls-7" d="M52.96,44.18c1.99,2.45,4.33,4.57,6.56,6.79.13.13.26.31.5.3.03-.32-.2-.52-.35-.73-1.49-2.11-2.99-4.21-4.49-6.31-3.08-4.28-4.45-9.1-4.31-14.33.13-4.98,1.66-9.53,4.56-13.59,2.58-3.6,5.06-7.27,7.53-10.94.53-.79.57-.78,1.23-.08,2.55,2.74,5.12,5.47,7.65,8.23,1.26,1.38,2.69,2.61,3.81,4.12.38.51.79,1.01,1.19,1.51-.05-.94-.49-1.69-.93-2.42-1.79-2.97-3.94-5.69-6.02-8.45-1.94-2.59-3.93-5.14-5.9-7.71-.57-.74-.71-.73-1.25-.02-.67.88-1.34,1.76-2,2.65-2.42,3.25-4.75,6.58-7.19,9.82-4.19,5.56-6.29,11.67-5.65,18.67.43,4.7,2.11,8.87,5.06,12.51Z"/>
        <path class="cls-4" d="M69.14,28.68c-2.41,3.23-3.94,6.85-4.33,10.85-.43,4.43-.44,8.89-.37,13.35,0,.29-.1.62.19.92.25-.43.24-.89.33-1.31.79-4.01,1.2-8.09,1.99-12.09,1.83-9.19,9.54-16.69,18.73-18.44,2.06-.39,4.12-.78,6.18-1.18,2.64-.51,5.29-1.03,7.93-1.57.69-.14.96.06.91.76-.06.85-.12,1.7-.14,2.55-.11,4.08-.27,8.17-.22,12.25,0,.42,0,.85,0,1.45.39-.65.45-1.18.55-1.7,1.09-5.83,1.88-11.7,2.7-17.57.14-1.01-.01-1.15-1.03-1-4.52.66-9.03,1.31-13.55,1.97-2.44.36-4.9.7-7.24,1.49-5.18,1.75-9.37,4.88-12.64,9.26Z"/>
        <path class="cls-12" d="M63.84,18c.25-.38.5-.26.76,0,1.85,1.96,3.97,3.65,5.5,5.9.15.22.25.52.63.57,0-.83-.31-1.58-.62-2.28-1.45-3.27-3.77-5.98-5.82-8.86-.35-.49-.62-.16-.86.14-1.13,1.42-2.24,2.85-3.38,4.27-3.6,4.5-5.17,9.51-3.79,15.25.94,3.89,3.18,6.88,6.39,9.18l.19-.13c-.4-.71-.79-1.42-1.21-2.12-2.43-4-3.22-8.28-2.36-12.89.64-3.47,2.68-6.21,4.57-9.03Z"/>
        <path class="cls-15" d="M37.37,29.16c2.21.01,4.43,0,6.64.06.77.02,1.54.26,2.47.42-.34-.54-.74-.7-1.09-.9-1.76-1-3.69-1.42-5.66-1.73-1.85-.3-3.69-.65-5.54-.92-.98-.14-1.11.04-.99.99.19,1.46.38,2.92.56,4.39.34,2.89.91,5.71,2.43,8.26,2.2,3.69,5.31,6.21,9.4,7.55,2.72.89,5.5.61,8.28.57.24,0,.52-.01.75-.44-1.21-.3-2.36-.64-3.53-.87-4.27-.83-7.74-2.98-10.49-6.32-2.48-3.02-3.18-6.71-3.87-10.4-.09-.5.2-.67.64-.66Z"/>
        <path class="cls-14" d="M84.07,43.69c3.33-.91,6.72-1,10.12-.51,3.6.53,6.9,1.85,9.88,3.92,3.68,2.56,7.32,5.17,10.98,7.75.9.63.92.78.09,1.48-2.56,2.16-5.1,4.33-7.65,6.5-2.18,1.86-4.27,3.84-6.85,5.15-8.35,4.24-16.55,3.82-24.59-.89-.89-.52-1.77-1.06-2.65-1.58-.04.06-.08.12-.12.17,1.08,1.07,2.28,2.01,3.53,2.87,8.94,6.18,20.67,5.95,29.36-.64,5.06-3.84,9.9-7.96,14.81-12,.6-.5.47-.79-.07-1.15-1.05-.72-2.1-1.46-3.14-2.19-3.86-2.69-7.68-5.46-11.6-8.06-5.03-3.33-10.57-4.83-16.64-4.32-4.04.34-7.77,1.51-11.17,3.73-2.61,1.7-4.75,3.95-7.02,6.04-1.42,1.3-2.89,2.54-4.06,4.13.1-.04.21-.07.3-.13,2.45-1.79,4.94-3.53,7.33-5.4,2.78-2.17,5.75-3.95,9.17-4.89Z"/>
        <path class="cls-16" d="M88.05,51.82c3.39-.89,6.67-.71,9.84.94,1.64.86,3.07,2.03,4.63,3.01.36.23.39.45.08.73-.59.53-1.19,1.05-1.77,1.59-5.03,4.76-10.85,6.08-17.46,4.11-.48-.14-.93-.46-1.66-.42.39.31.61.53.88.68,5.44,3.17,11,3.33,16.56.44,3.21-1.67,5.8-4.26,8.66-6.44.58-.44.37-.77-.12-1.11-1.92-1.37-3.82-2.75-5.73-4.14-2.78-2.03-5.89-3.22-9.34-3.26-3.4-.04-6.53,1.05-9.47,2.71-3.34,1.88-6.24,4.33-8.98,6.99-1.48,1.44-2.99,2.86-4.48,4.28.08.09.16.18.23.27.33,0,.56-.22.81-.39,2.74-1.87,5.45-3.79,8.23-5.61,2.83-1.86,5.77-3.5,9.09-4.37Z"/>
      </g>
      <g>
        <path class="cls-6" d="M10.25,108.36c-1.4,0-2.73-.25-3.98-.76-1.25-.5-2.34-1.19-3.26-2.06-.92-.87-1.65-1.89-2.19-3.06-.54-1.17-.81-2.41-.81-3.74v-14.01c0-.25.12-.37.37-.37h.37c.81,0,1.5.28,2.08.85.58.57.87,1.27.87,2.1v11.43c0,.84.17,1.61.52,2.32.34.71.81,1.34,1.4,1.88.59.54,1.28.96,2.08,1.27.8.31,1.65.46,2.56.46s1.76-.15,2.56-.46c.8-.31,1.49-.73,2.08-1.27.59-.54,1.05-1.17,1.38-1.88.33-.71.5-1.49.5-2.32v-11.43c0-.84.29-1.54.87-2.1.58-.56,1.27-.85,2.08-.85h.37c.25,0,.37.12.37.37v14.01c0,1.33-.27,2.57-.81,3.74-.54,1.17-1.27,2.19-2.19,3.06-.92.87-2,1.56-3.24,2.06-1.24.5-2.56.76-3.96.76Z"/>
        <path class="cls-1" d="M25.73,81.86h-9.66c-.49,0-.95-.1-1.36-.29-.42-.2-.78-.47-1.09-.81-.31-.34-.53-.74-.68-1.18-.15-.44-.2-.91-.15-1.4l.18-1.62c0-.1-.03-.19-.09-.28-.06-.09-.15-.13-.28-.13h-.11c-.71,0-1.32-.25-1.82-.76-.5-.5-.76-1.11-.76-1.82v-.63c0-.25.12-.37.37-.37h2.62c.54,0,1.05.11,1.53.33.48.22.88.52,1.22.88.33.37.58.8.76,1.29.17.49.22,1.01.15,1.55l-.11,1.22c-.02.12,0,.22.07.29.07.07.17.11.29.11h6.34c.81,0,1.5.29,2.08.87.58.58.87,1.27.87,2.08v.29c0,.25-.12.37-.37.37Z"/>
        <path class="cls-8" d="M42.09,108.33h-.37c-.81,0-1.51-.29-2.08-.87-.58-.58-.87-1.27-.87-2.08v-11.43c0-1.82-.56-3.26-1.68-4.33-1.12-1.07-2.64-1.6-4.55-1.6-2.04,0-3.62.6-4.75,1.81-.57.64-1.3.96-2.21.96-.39,0-.75-.06-1.07-.18l-.81-.37c-.25-.1-.32-.26-.22-.48.79-1.7,1.97-3.02,3.56-3.98,1.58-.96,3.42-1.44,5.51-1.44,1.45,0,2.78.24,3.98.72,1.2.48,2.25,1.15,3.13,2.01.88.86,1.57,1.87,2.06,3.04.49,1.17.74,2.45.74,3.85v14.01c0,.25-.12.37-.37.37Z"/>
        <path class="cls-10" d="M63.21,87.32c0-.84.29-1.54.87-2.1.58-.56,1.27-.85,2.08-.85h.37c.25,0,.37.12.37.37v23.22c0,.25-.12.37-.37.37h-.37c-.81,0-1.51-.29-2.08-.87-.58-.58-.87-1.27-.87-2.08v-.88c-.54.49-1.14.97-1.79,1.44-.65.47-1.33.88-2.05,1.23-.71.36-1.45.65-2.21.87-.76.22-1.52.33-2.29.33-1.18,0-2.29-.22-3.32-.66-1.03-.44-1.92-1.04-2.67-1.79-.75-.75-1.35-1.64-1.79-2.67-.44-1.03-.66-2.14-.66-3.32v-15.19c0-.25.12-.37.37-.37h.37c.81,0,1.5.29,2.08.87.58.58.87,1.27.87,2.08v12.61c0,.66.12,1.28.37,1.86.25.58.58,1.08,1.01,1.51.43.43.93.77,1.51,1.01.58.25,1.2.37,1.86.37.88,0,1.8-.25,2.75-.74.95-.49,1.81-1.07,2.6-1.73.79-.66,1.46-1.32,2.01-1.97.55-.65.88-1.14.98-1.46v-11.46Z"/>
        <path class="cls-5" d="M81.09,108.36c-1.4,0-2.73-.25-3.98-.76-1.25-.5-2.34-1.19-3.26-2.06-.92-.87-1.65-1.89-2.19-3.06-.54-1.17-.81-2.41-.81-3.74v-14.01c0-.25.12-.37.37-.37h.37c.81,0,1.5.28,2.08.85.58.57.87,1.27.87,2.1v11.43c0,.84.17,1.61.52,2.32.34.71.81,1.34,1.4,1.88.59.54,1.28.96,2.08,1.27.8.31,1.65.46,2.56.46s1.76-.15,2.56-.46c.8-.31,1.49-.73,2.08-1.27.59-.54,1.05-1.17,1.38-1.88.33-.71.5-1.49.5-2.32v-11.43c0-.84.29-1.54.87-2.1.58-.56,1.27-.85,2.08-.85h.37c.25,0,.37.12.37.37v14.01c0,1.33-.27,2.57-.81,3.74-.54,1.17-1.27,2.19-2.19,3.06-.92.87-2,1.56-3.24,2.06-1.24.5-2.56.76-3.96.76Z"/>
        <path class="cls-9" d="M90.42,119.46h-.29c-.81,0-1.5-.29-2.08-.87-.58-.58-.87-1.27-.87-2.08v-2.36c0-.25-.12-.37-.37-.37h-.04c-.71,0-1.32-.25-1.82-.76-.5-.5-.76-1.11-.76-1.82v-.66c0-.25.12-.37.37-.37h3.28c.81,0,1.51.29,2.08.87.58.58.87,1.27.87,2.08v5.97c0,.25-.12.37-.37.37Z"/>
        <path class="cls-2" d="M120.42,108.36c-1.2,0-2.33-.18-3.39-.55-1.06-.37-1.98-.87-2.76-1.49-.79-.63-1.41-1.36-1.88-2.19-.47-.84-.7-1.73-.7-2.69v-7.52c0-.1-.01-.31-.04-.65-.02-.33-.1-.72-.22-1.16-.12-.44-.31-.9-.57-1.38-.26-.48-.62-.92-1.09-1.33-.47-.41-1.05-.74-1.75-1.01-.7-.27-1.55-.41-2.56-.41-.91,0-1.71.12-2.41.35-.7.23-1.31.52-1.82.87-.52.34-.95.72-1.29,1.12-.34.41-.63.78-.85,1.12-.1.15-.09.31.04.48l1.33,1.25c.56.57.85,1.27.85,2.1v8.7c0,.2.07.37.22.52.15.15.32.22.52.22h.15c.34,0,.65.08.92.24.27.16.48.37.65.63.16.26.25.55.28.87.02.32-.04.63-.18.92l-.37.74s-.1.1-.15.17c-.05.06-.11.09-.18.09h-1.47c-.54,0-1.06-.11-1.55-.33-.49-.22-.92-.52-1.29-.88-.37-.37-.66-.8-.88-1.29-.22-.49-.33-1.02-.33-1.58v-7.45c0-.84-.28-1.54-.85-2.1l-1.95-1.92c-.12-.07-.16-.2-.11-.37l.26-.85c.2-.64.55-1.38,1.05-2.21.5-.84,1.19-1.63,2.05-2.38.86-.75,1.9-1.39,3.13-1.92,1.23-.53,2.65-.79,4.28-.79s3.05.28,4.29.83c1.24.55,2.28,1.28,3.11,2.19.84.91,1.46,1.94,1.88,3.1.42,1.16.63,2.32.63,3.5v7.52c0,.37.12.75.37,1.14.25.39.6.74,1.05,1.05.45.31.99.56,1.6.76.61.2,1.29.29,2.03.29s1.37-.09,1.97-.28c.6-.18,1.14-.44,1.6-.76.47-.32.83-.7,1.09-1.14.26-.44.39-.91.39-1.4v-13.82c0-.81.29-1.5.87-2.08.58-.58,1.27-.87,2.08-.87h.37c.25,0,.37.12.37.37v16.4c0,1.03-.23,1.99-.68,2.88-.45.88-1.08,1.65-1.86,2.3-.79.65-1.71,1.16-2.76,1.53-1.06.37-2.2.55-3.43.55ZM127.83,114.3h-12.24c-.81,0-1.51-.29-2.08-.87-.58-.58-.87-1.27-.87-2.08v-3.06c0-.2.09-.32.26-.37l.18-.07c.27-.07.52-.11.74-.11.64,0,1.2.23,1.68.68.48.45.72,1.03.72,1.71v.22c0,.25.12.37.37.37h8.66c.84,0,1.54.28,2.1.85.56.57.85,1.27.85,2.1v.26c0,.25-.12.37-.37.37Z"/>
      </g>
    </g>
  </g>
</svg>