<svg width="94" height="131" viewBox="0 0 94 131" fill="none" xmlns="http://www.w3.org/2000/svg">
<path d="M0.621287 97.3154H6.29053C7.34672 97.3154 8.19063 97.5794 8.82227 98.1075C9.46427 98.6253 9.78527 99.3708 9.78527 100.344C9.78527 100.779 9.6869 101.188 9.49015 101.571C9.30377 101.954 9.02937 102.265 8.66695 102.503C9.17433 102.731 9.54193 103.031 9.76973 103.404C10.0079 103.777 10.127 104.263 10.127 104.864C10.127 105.537 9.96647 106.127 9.64548 106.635C9.32448 107.132 8.88958 107.515 8.34077 107.784C7.80233 108.043 7.20175 108.172 6.53904 108.172H0.621287V97.3154ZM5.45179 101.525C5.80385 101.525 6.0679 101.447 6.24393 101.292C6.43032 101.136 6.52351 100.888 6.52351 100.546C6.52351 100.194 6.4355 99.9507 6.25946 99.8161C6.08343 99.6711 5.80903 99.5986 5.43626 99.5986H3.83645V101.525H5.45179ZM5.63818 105.889C6.06272 105.889 6.37337 105.811 6.57011 105.656C6.76685 105.501 6.86522 105.232 6.86522 104.848C6.86522 104.476 6.76167 104.201 6.55457 104.025C6.35783 103.849 6.04201 103.761 5.60711 103.761H3.83645V105.889H5.63818ZM14.545 97.3154H17.6359L21.9694 108.172H18.6766L17.8689 106.107H14.312L13.4888 108.172H10.196L14.545 97.3154ZM17.1234 103.668L16.0827 100.624L15.0421 103.668H17.1234ZM26.8573 97.3154H29.9482L34.2817 108.172H30.9889L30.1812 106.107H26.6243L25.8011 108.172H22.5083L26.8573 97.3154ZM29.4356 103.668L28.395 100.624L27.3543 103.668H29.4356ZM35.6773 97.3154H38.7992L42.1852 103V97.3154H45.4004V108.172H42.294L38.8924 102.488V108.172H35.6773V97.3154ZM47.1098 97.3154H52.779C53.8352 97.3154 54.6791 97.5794 55.3108 98.1075C55.9528 98.6253 56.2738 99.3708 56.2738 100.344C56.2738 100.779 56.1754 101.188 55.9787 101.571C55.7923 101.954 55.5179 102.265 55.1555 102.503C55.6628 102.731 56.0304 103.031 56.2582 103.404C56.4964 103.777 56.6155 104.263 56.6155 104.864C56.6155 105.537 56.455 106.127 56.134 106.635C55.813 107.132 55.3781 107.515 54.8293 107.784C54.2908 108.043 53.6903 108.172 53.0275 108.172H47.1098V97.3154ZM51.9403 101.525C52.2924 101.525 52.5564 101.447 52.7324 101.292C52.9188 101.136 53.012 100.888 53.012 100.546C53.012 100.194 52.924 99.9507 52.748 99.8161C52.5719 99.6711 52.2975 99.5986 51.9248 99.5986H50.325V101.525H51.9403ZM52.1267 105.889C52.5512 105.889 52.8619 105.811 53.0586 105.656C53.2554 105.501 53.3537 105.232 53.3537 104.848C53.3537 104.476 53.2502 104.201 53.0431 104.025C52.8463 103.849 52.5305 103.761 52.0956 103.761H50.325V105.889H52.1267ZM63.1776 108.405C62.08 108.405 61.0807 108.167 60.1799 107.691C59.2894 107.215 58.5852 106.552 58.0675 105.703C57.5601 104.843 57.3064 103.86 57.3064 102.752C57.3064 101.644 57.5601 100.66 58.0675 99.8005C58.5852 98.9411 59.2894 98.2732 60.1799 97.7969C61.0807 97.3206 62.08 97.0824 63.1776 97.0824C64.2752 97.0824 65.2641 97.3206 66.1442 97.7969C67.0347 98.2732 67.7337 98.9411 68.2411 99.8005C68.7588 100.66 69.0177 101.644 69.0177 102.752C69.0177 103.86 68.7588 104.843 68.2411 105.703C67.7337 106.552 67.0347 107.215 66.1442 107.691C65.2641 108.167 64.2752 108.405 63.1776 108.405ZM63.1776 105.392C63.6539 105.392 64.0836 105.289 64.4667 105.081C64.8602 104.864 65.1709 104.559 65.3987 104.165C65.6265 103.761 65.7404 103.29 65.7404 102.752C65.7404 101.954 65.497 101.317 65.0104 100.841C64.5237 100.365 63.9128 100.127 63.1776 100.127C62.432 100.127 61.8107 100.365 61.3137 100.841C60.827 101.317 60.5837 101.954 60.5837 102.752C60.5837 103.29 60.6976 103.761 60.9254 104.165C61.1532 104.559 61.4639 104.864 61.8573 105.081C62.2508 105.289 62.6909 105.392 63.1776 105.392ZM75.8994 108.405C74.8018 108.405 73.8026 108.167 72.9017 107.691C72.0112 107.215 71.307 106.552 70.7893 105.703C70.2819 104.843 70.0282 103.86 70.0282 102.752C70.0282 101.644 70.2819 100.66 70.7893 99.8005C71.307 98.9411 72.0112 98.2732 72.9017 97.7969C73.8026 97.3206 74.8018 97.0824 75.8994 97.0824C76.997 97.0824 77.9859 97.3206 78.866 97.7969C79.7565 98.2732 80.4555 98.9411 80.9629 99.8005C81.4806 100.66 81.7395 101.644 81.7395 102.752C81.7395 103.86 81.4806 104.843 80.9629 105.703C80.4555 106.552 79.7565 107.215 78.866 107.691C77.9859 108.167 76.997 108.405 75.8994 108.405ZM75.8994 105.392C76.3757 105.392 76.8054 105.289 77.1886 105.081C77.582 104.864 77.8927 104.559 78.1205 104.165C78.3483 103.761 78.4622 103.29 78.4622 102.752C78.4622 101.954 78.2189 101.317 77.7322 100.841C77.2455 100.365 76.6346 100.127 75.8994 100.127C75.1538 100.127 74.5326 100.365 74.0355 100.841C73.5489 101.317 73.3055 101.954 73.3055 102.752C73.3055 103.29 73.4194 103.761 73.6472 104.165C73.875 104.559 74.1857 104.864 74.5792 105.081C74.9726 105.289 75.4127 105.392 75.8994 105.392ZM83.1365 97.3154H86.2585L89.6445 103V97.3154H92.8597V108.172H89.7532L86.3517 102.488V108.172H83.1365V97.3154Z" fill="white"/>
<path d="M3.54059 124.299C2.94382 124.299 2.34258 124.237 1.7369 124.112C1.13121 123.996 0.641315 123.84 0.267215 123.644V121.199C0.757108 121.466 1.26927 121.667 1.8037 121.8C2.34704 121.934 2.85474 122.001 3.32682 122.001C4.01267 122.001 4.3556 121.818 4.3556 121.453C4.3556 121.302 4.30216 121.172 4.19527 121.066C4.09729 120.95 3.94587 120.843 3.74101 120.745C3.53614 120.638 3.21103 120.487 2.76567 120.291C1.90168 119.917 1.27372 119.507 0.881808 119.061C0.498801 118.616 0.307297 118.064 0.307297 117.405C0.307297 116.852 0.458719 116.363 0.761562 115.935C1.07331 115.499 1.50531 115.16 2.05755 114.92C2.6098 114.679 3.24666 114.559 3.96814 114.559C4.55601 114.559 5.07708 114.608 5.53134 114.706C5.98561 114.795 6.42651 114.942 6.85406 115.147V117.512C6.07913 117.084 5.2864 116.87 4.47585 116.87C4.11956 116.87 3.83453 116.924 3.62076 117.031C3.40699 117.129 3.3001 117.276 3.3001 117.472C3.3001 117.667 3.39363 117.828 3.58068 117.953C3.77663 118.068 4.14183 118.233 4.67626 118.447L4.97019 118.567C5.6026 118.825 6.08804 119.084 6.42651 119.342C6.77389 119.591 7.02329 119.885 7.17471 120.224C7.32614 120.553 7.40185 120.972 7.40185 121.48C7.40185 122.362 7.08119 123.052 6.43987 123.551C5.79856 124.049 4.83213 124.299 3.54059 124.299ZM13.043 124.299C12.0632 124.299 11.2482 124.116 10.598 123.751C9.94776 123.386 9.46232 122.883 9.14166 122.241C8.82991 121.6 8.67404 120.865 8.67404 120.037V114.759H11.4397V120.01C11.4397 120.58 11.5733 121.012 11.8405 121.306C12.1167 121.6 12.5175 121.747 13.043 121.747C13.5685 121.747 13.9649 121.6 14.2321 121.306C14.5082 121.012 14.6463 120.58 14.6463 120.01V114.759H17.412V120.037C17.412 120.865 17.2516 121.6 16.931 122.241C16.6192 122.883 16.1382 123.386 15.488 123.751C14.8378 124.116 14.0228 124.299 13.043 124.299ZM18.9435 114.759H23.2457C24.368 114.759 25.2587 115.049 25.9178 115.628C26.5859 116.198 26.9199 117.017 26.9199 118.086C26.9199 119.155 26.5859 119.979 25.9178 120.558C25.2587 121.137 24.368 121.426 23.2457 121.426H21.7092V124.098H18.9435V114.759ZM22.7246 119.235C23.1522 119.235 23.4862 119.151 23.7267 118.981C23.9672 118.812 24.0874 118.514 24.0874 118.086C24.0874 117.667 23.9672 117.374 23.7267 117.204C23.4862 117.035 23.1522 116.95 22.7246 116.95H21.7092V119.235H22.7246ZM28.1285 114.759H34.9024V117.084H30.8942V118.367H33.7801V120.491H30.8942V121.774H34.9024V124.098H28.1285V114.759ZM36.1001 114.759H40.4423C41.5646 114.759 42.4509 115.044 43.1011 115.614C43.7513 116.176 44.0764 116.991 44.0764 118.059C44.0764 118.754 43.9295 119.346 43.6355 119.836C43.3505 120.326 42.9408 120.7 42.4063 120.959L43.9695 124.098H41.1371L39.7743 121.359H38.8657V124.098H36.1001V114.759ZM39.8945 119.168C40.3221 119.168 40.6516 119.088 40.8832 118.928C41.1237 118.759 41.244 118.469 41.244 118.059C41.244 117.65 41.1237 117.365 40.8832 117.204C40.6516 117.035 40.3221 116.95 39.8945 116.95H38.8657V119.168H39.8945ZM53.2357 124.299C52.639 124.299 52.0377 124.237 51.432 124.112C50.8263 123.996 50.3365 123.84 49.9624 123.644V121.199C50.4522 121.466 50.9644 121.667 51.4988 121.8C52.0422 121.934 52.5499 122.001 53.022 122.001C53.7078 122.001 54.0507 121.818 54.0507 121.453C54.0507 121.302 53.9973 121.172 53.8904 121.066C53.7924 120.95 53.641 120.843 53.4361 120.745C53.2313 120.638 52.9062 120.487 52.4608 120.291C51.5968 119.917 50.9689 119.507 50.5769 119.061C50.1939 118.616 50.0024 118.064 50.0024 117.405C50.0024 116.852 50.1539 116.363 50.4567 115.935C50.7685 115.499 51.2005 115.16 51.7527 114.92C52.3049 114.679 52.9418 114.559 53.6633 114.559C54.2512 114.559 54.7722 114.608 55.2265 114.706C55.6807 114.795 56.1217 114.942 56.5492 115.147V117.512C55.7743 117.084 54.9815 116.87 54.171 116.87C53.8147 116.87 53.5297 116.924 53.3159 117.031C53.1021 117.129 52.9952 117.276 52.9952 117.472C52.9952 117.667 53.0888 117.828 53.2758 117.953C53.4718 118.068 53.837 118.233 54.3714 118.447L54.6653 118.567C55.2977 118.825 55.7832 119.084 56.1217 119.342C56.469 119.591 56.7184 119.885 56.8699 120.224C57.0213 120.553 57.097 120.972 57.097 121.48C57.097 122.362 56.7763 123.052 56.135 123.551C55.4937 124.049 54.5273 124.299 53.2357 124.299ZM60.1409 117.084H57.6291V114.759H65.4184V117.084H62.9066V124.098H60.1409V117.084ZM70.8645 124.299C69.9203 124.299 69.0608 124.094 68.2859 123.684C67.5199 123.275 66.9142 122.704 66.4688 121.974C66.0324 121.235 65.8141 120.389 65.8141 119.436C65.8141 118.482 66.0324 117.636 66.4688 116.897C66.9142 116.158 67.5199 115.583 68.2859 115.173C69.0608 114.764 69.9203 114.559 70.8645 114.559C71.8087 114.559 72.6593 114.764 73.4164 115.173C74.1824 115.583 74.7836 116.158 75.2201 116.897C75.6654 117.636 75.8881 118.482 75.8881 119.436C75.8881 120.389 75.6654 121.235 75.2201 121.974C74.7836 122.704 74.1824 123.275 73.4164 123.684C72.6593 124.094 71.8087 124.299 70.8645 124.299ZM70.8645 121.707C71.2742 121.707 71.6439 121.618 71.9734 121.44C72.3119 121.253 72.5791 120.99 72.7751 120.651C72.971 120.304 73.069 119.899 73.069 119.436C73.069 118.75 72.8597 118.202 72.4411 117.792C72.0224 117.382 71.4969 117.178 70.8645 117.178C70.2232 117.178 69.6887 117.382 69.2612 117.792C68.8426 118.202 68.6333 118.75 68.6333 119.436C68.6333 119.899 68.7312 120.304 68.9272 120.651C69.1231 120.99 69.3904 121.253 69.7288 121.44C70.0673 121.618 70.4459 121.707 70.8645 121.707ZM77.2235 114.759H81.5657C82.688 114.759 83.5743 115.044 84.2245 115.614C84.8747 116.176 85.1998 116.991 85.1998 118.059C85.1998 118.754 85.0529 119.346 84.7589 119.836C84.4739 120.326 84.0642 120.7 83.5297 120.959L85.0929 124.098H82.2605L80.8977 121.359H79.9891V124.098H77.2235V114.759ZM81.0179 119.168C81.4455 119.168 81.775 119.088 82.0066 118.928C82.2471 118.759 82.3674 118.469 82.3674 118.059C82.3674 117.65 82.2471 117.365 82.0066 117.204C81.775 117.035 81.4455 116.95 81.0179 116.95H79.9891V119.168H81.0179ZM86.5389 114.759H93.3128V117.084H89.3046V118.367H92.1905V120.491H89.3046V121.774H93.3128V124.098H86.5389V114.759Z" fill="white"/>
<path d="M6.22689 42.2535C9.01876 44.399 11.891 46.4442 14.7632 48.5095C16.2495 49.5722 17.6956 50.655 19.3828 51.3769C22.4559 52.7003 25.6494 53.2216 28.9836 52.9208C32.0969 52.6401 34.9289 51.6576 37.3994 49.7928C40.3319 47.6072 42.8425 44.9404 45.4135 42.3537C45.4536 42.3136 45.4335 42.2535 45.4536 42.1933C45.1724 42.2134 45.0117 42.3738 44.831 42.5141C43.0032 43.8175 41.1554 45.1008 39.3477 46.4442C37.9819 47.4468 36.6361 48.4494 35.0896 49.1913C32.3981 50.4745 29.5661 50.7954 26.6537 50.6751C23.661 50.5347 20.9294 49.6524 18.4388 48.0283C15.4662 46.1033 12.5538 44.0581 9.62132 42.073C8.99867 41.6519 8.99867 41.5918 9.56106 41.0905C11.4089 39.4062 13.2568 37.7419 15.0845 36.0375C16.5508 34.654 17.9768 33.2103 19.6439 32.0673C19.7243 32.0072 19.8247 31.947 19.7845 31.7866C19.5234 31.7866 19.2824 31.9069 19.0414 32.0072C18.1375 32.4483 17.2939 32.9295 16.4905 33.511C13.0157 36.0175 9.56106 38.5841 6.2068 41.2308C5.60424 41.7121 5.60424 41.7923 6.2068 42.2735L6.22689 42.2535Z" fill="white"/>
<path d="M17.555 15.4848C17.9367 18.0313 18.3183 20.5778 18.7401 23.1244C19.0414 24.909 19.2824 26.7136 19.8649 28.438C20.9093 31.4658 22.6366 34.0323 24.9866 36.1979C27.8187 38.8046 31.1328 40.3887 34.949 40.6894C38.1024 40.9501 41.296 40.9902 44.4694 40.9701C44.6502 40.9701 44.8711 41.0102 45.0519 40.7496C43.5656 40.4889 42.1395 40.2282 40.7135 39.9876C38.8455 39.6869 36.9374 39.4863 35.0896 39.1254C31.2332 38.3434 28.0798 36.3583 25.5088 33.3907C23.5606 31.1449 22.2751 28.5583 21.6926 25.6509C21.0097 22.3023 20.4674 18.9136 19.7644 15.585C19.6238 14.8832 19.6841 14.7629 20.4072 14.803C21.8935 14.8632 23.3798 14.9835 24.8661 15.0236C27.2964 15.0838 29.7268 15.1038 32.1571 15.2843C32.7998 15.3244 33.4627 15.4246 34.2058 15.5048C34.005 15.2041 33.784 15.184 33.6033 15.1038C32.1169 14.5424 30.5302 14.3018 28.9635 14.0411C26.9349 13.7203 24.8862 13.4596 22.8375 13.1989C21.1905 12.9784 19.5234 12.7578 17.8563 12.5372C17.1734 12.457 17.1132 12.5372 17.1935 13.239C17.2939 14.001 17.3944 14.7429 17.5149 15.5048L17.555 15.4848Z" fill="white"/>
<path d="M22.014 37.6817C22.4157 37.2807 22.9178 36.9799 23.5003 36.5187C22.9982 36.4385 22.717 36.5588 22.4358 36.6591C19.7845 37.6416 17.7157 39.4863 15.4461 41.0704C15.1247 41.2909 15.2854 41.4714 15.4862 41.6519C17.4144 43.1156 19.2422 44.7598 21.4114 45.9028C24.2033 47.3665 27.1558 47.5871 30.1887 46.8251C32.7797 46.1835 34.7682 44.6195 36.4554 42.6143C36.7566 42.2534 37.1985 41.9727 37.319 41.4714C37.0981 41.3711 36.9776 41.5316 36.837 41.6118C36.0737 42.0729 35.3105 42.5341 34.5673 42.9953C32.5789 44.2385 30.3896 44.8601 28.0597 44.9403C24.4845 45.0807 21.5922 43.3963 18.8204 41.4112C18.5593 41.2308 18.5995 41.0704 18.8204 40.8699C19.8849 39.8071 20.9495 38.7444 22.0341 37.7017L22.014 37.6817Z" fill="white"/>
<path d="M66.2621 28.5382C66.9651 28.0369 67.3266 27.3351 67.6279 26.6333C68.7326 24.1068 68.8531 21.3598 69.2749 18.6729C69.3351 18.3521 69.1343 18.2317 68.833 18.2718C66.5634 18.6127 64.2335 18.7731 62.0241 19.4749C58.8707 20.4775 56.5408 22.4425 55.2553 25.5505C55.1549 25.7911 55.0143 26.0518 55.0946 26.3325C55.2553 26.3526 55.3356 26.2724 55.3959 26.1922C56.2395 25.3299 57.1232 24.5479 58.0873 23.8261C60.5177 22.0415 63.3497 21.5402 66.2219 21.1191C66.6839 21.059 66.6839 21.3397 66.6839 21.6405C66.6437 23.3649 66.8044 25.1094 66.5433 26.8338C66.4629 27.3952 66.3625 27.9567 66.2621 28.5181V28.5382Z" fill="white"/>
<path d="M38.6246 32.0873C40.0708 33.8719 41.778 35.4159 43.4049 37.02C43.5053 37.1203 43.5857 37.2406 43.7665 37.2406C43.7865 36.9999 43.6259 36.8596 43.5054 36.6992C42.4207 35.1753 41.3361 33.6313 40.2314 32.1074C38.002 28.9994 36.9977 25.4904 37.0981 21.7007C37.1985 18.0915 38.3032 14.783 40.4122 11.8354C42.2801 9.22873 44.0878 6.56189 45.8955 3.89505C46.2771 3.31356 46.3173 3.33361 46.7793 3.8349C48.6271 5.81999 50.5151 7.80508 52.3429 9.81022C53.2668 10.8128 54.2912 11.6951 55.1147 12.7979C55.3959 13.1789 55.6972 13.5197 55.9784 13.9007C55.9382 13.219 55.6168 12.6776 55.2955 12.1362C53.9899 9.97063 52.4233 8.00559 50.9169 6.00045C49.5109 4.11562 48.0647 2.27088 46.6186 0.406102C46.1968 -0.135286 46.0964 -0.135286 45.7147 0.406102C45.2327 1.04775 44.7306 1.68939 44.2485 2.33104C42.481 4.69711 40.7938 7.10328 39.0263 9.46934C35.9733 13.4997 34.4468 17.9511 34.9088 23.0241C35.2302 26.4328 36.4353 29.4606 38.5844 32.1074L38.6246 32.0873Z" fill="white"/>
<path d="M50.3946 20.8385C48.6472 23.1845 47.5224 25.8112 47.2412 28.7187C46.94 31.947 46.9199 35.1753 46.9801 38.4236C46.9801 38.6241 46.8998 38.8647 47.1207 39.0853C47.3015 38.7645 47.3015 38.4436 47.3618 38.1228C47.9442 35.2154 48.2254 32.2478 48.8079 29.3403C50.1335 22.6632 55.7574 17.2092 62.4258 15.946C63.9322 15.6652 65.4185 15.3845 66.9249 15.0837C68.8531 14.7028 70.7813 14.3418 72.6894 13.9408C73.1915 13.8406 73.3924 13.9809 73.3522 14.5022C73.3121 15.1238 73.2719 15.7254 73.2518 16.347C73.1715 19.3146 73.0509 22.2822 73.0911 25.2498C73.0911 25.5506 73.0911 25.8714 73.0911 26.3125C73.3723 25.8514 73.4125 25.4503 73.4928 25.0693C74.2762 20.8385 74.8586 16.5675 75.4612 12.3166C75.5616 11.5747 75.4612 11.4745 74.718 11.5948C71.424 12.076 68.1501 12.5573 64.8561 13.0385C63.0886 13.2992 61.301 13.5398 59.5937 14.1213C55.8177 15.3845 52.7647 17.6704 50.3946 20.8385Z" fill="white"/>
<path d="M46.5383 13.0786C46.719 12.7979 46.8998 12.8781 47.0806 13.0786C48.4263 14.5022 49.9729 15.7254 51.0776 17.3696C51.178 17.53 51.2583 17.7506 51.5395 17.7907C51.5395 17.1891 51.3186 16.6477 51.0976 16.1264C50.0532 13.7403 48.3459 11.7953 46.8596 9.68988C46.5985 9.32896 46.4177 9.56957 46.237 9.79014C45.4135 10.8328 44.6101 11.8554 43.7866 12.8981C41.1554 16.1665 40.0306 19.8158 41.0349 23.9665C41.7178 26.7937 43.3447 28.9593 45.6746 30.6436L45.8152 30.5434C45.5139 30.022 45.2528 29.5007 44.9314 28.9994C43.1639 26.0919 42.5814 22.984 43.2041 19.6354C43.666 17.1089 45.1524 15.1238 46.5182 13.0786H46.5383Z" fill="white"/>
<path d="M27.2964 21.1794C28.9033 21.1794 30.5101 21.1794 32.137 21.2195C32.6994 21.2195 33.2618 21.4 33.9246 21.5203C33.6836 21.1192 33.3823 21.019 33.1212 20.8586C31.8357 20.1367 30.4297 19.836 29.0037 19.5953C27.658 19.3748 26.3122 19.1342 24.9665 18.9336C24.2635 18.8334 24.1631 18.9737 24.2435 19.6555C24.3841 20.7182 24.5246 21.7809 24.6452 22.8437C24.8862 24.9491 25.308 26.9943 26.4127 28.839C28.0195 31.5259 30.2691 33.3506 33.2618 34.3131C35.2502 34.9547 37.2588 34.7542 39.2874 34.7342C39.4682 34.7342 39.669 34.7342 39.8297 34.4133C38.9459 34.1928 38.1224 33.9522 37.2588 33.7917C34.1455 33.1902 31.6349 31.6262 29.6263 29.2C27.8186 26.9943 27.3165 24.3275 26.8144 21.6406C26.7541 21.2797 26.955 21.1593 27.2763 21.1593L27.2964 21.1794Z" fill="white"/>
<path d="M61.2608 31.7264C63.6911 31.0647 66.1415 31.0046 68.6321 31.3655C71.2432 31.7465 73.6535 32.7089 75.8227 34.2128C78.494 36.0776 81.1453 37.9624 83.8167 39.8472C84.4795 40.3084 84.4795 40.4087 83.8769 40.93C82.009 42.494 80.1611 44.0781 78.3133 45.6421C76.7265 46.9855 75.2 48.4292 73.3321 49.3917C67.2462 52.4796 61.301 52.1588 55.436 48.7501C54.7933 48.3691 54.1506 47.9881 53.5078 47.6071C53.4878 47.6472 53.4476 47.6873 53.4275 47.7274C54.2108 48.5095 55.0946 49.1912 55.9984 49.8128C62.5061 54.3043 71.0424 54.1439 77.3492 49.3516C81.0248 46.5645 84.5598 43.5768 88.1149 40.6292C88.5568 40.2683 88.4564 40.0478 88.0748 39.7871C87.3115 39.2658 86.5483 38.7244 85.785 38.203C82.9731 36.238 80.2013 34.2328 77.3492 32.348C73.6936 29.9418 69.6565 28.839 65.2377 29.22C62.3052 29.4606 59.5937 30.3228 57.1031 31.9269C55.195 33.1701 53.6484 34.7943 52.0014 36.3182C50.9771 37.2606 49.8925 38.1629 49.0489 39.3259C49.1292 39.2858 49.2096 39.2858 49.2698 39.2256C51.0574 37.9223 52.8651 36.6591 54.5924 35.2956C56.6211 33.7115 58.7702 32.4282 61.2608 31.7465V31.7264Z" fill="white"/>
<path d="M7.55256 78.7069C6.52821 78.7069 5.56411 78.5264 4.66027 78.1655C3.75642 77.8045 2.95301 77.3033 2.29019 76.6616C1.62737 76.02 1.08507 75.2781 0.703448 74.4359C0.30174 73.5937 0.120972 72.6914 0.120972 71.7089V61.5428C0.120972 61.3624 0.201313 61.2822 0.382082 61.2822H0.643191C1.22567 61.2822 1.74789 61.4827 2.14959 61.9038C2.57139 62.3048 2.77224 62.8261 2.77224 63.4277V71.729C2.77224 72.3305 2.89275 72.8919 3.15386 73.4133C3.39489 73.9346 3.73634 74.3958 4.17822 74.7768C4.60001 75.1778 5.10214 75.4786 5.68462 75.6991C6.2671 75.9197 6.88974 76.04 7.55256 76.04C8.21538 76.04 8.83802 75.9197 9.4205 75.6991C10.003 75.4786 10.5051 75.1778 10.9269 74.7768C11.3487 74.3757 11.6901 73.9346 11.9312 73.4133C12.1722 72.8919 12.2927 72.3305 12.2927 71.729V63.4277C12.2927 62.8261 12.4936 62.3048 12.9154 61.9038C13.3371 61.5027 13.8393 61.2822 14.4218 61.2822H14.6829C14.8636 61.2822 14.944 61.3624 14.944 61.5428V71.7089C14.944 72.6714 14.7431 73.5737 14.3615 74.4359C13.9598 75.2781 13.4376 76.02 12.7748 76.6616C12.1119 77.3033 11.3085 77.8045 10.4248 78.1655C9.52093 78.5264 8.55683 78.7069 7.53248 78.7069H7.55256Z" fill="white"/>
<path d="M18.8204 59.4574H11.7905C11.429 59.4574 11.1076 59.3772 10.8063 59.2368C10.505 59.0965 10.2439 58.896 10.023 58.6553C9.80204 58.4147 9.64136 58.114 9.52084 57.7931C9.42042 57.4723 9.38025 57.1314 9.42042 56.7705L9.56102 55.5875C9.56102 55.5875 9.54093 55.4471 9.50076 55.387C9.46059 55.3268 9.38025 55.2867 9.2999 55.2867H9.21956C8.69734 55.2867 8.25547 55.1062 7.89393 54.7453C7.53239 54.3844 7.35162 53.9433 7.35162 53.4219V52.9607C7.35162 52.7803 7.43197 52.7001 7.61273 52.7001H9.52084C9.92255 52.7001 10.2841 52.7803 10.6255 52.9407C10.967 53.1011 11.2683 53.3217 11.5093 53.5823C11.7503 53.843 11.9311 54.1638 12.0516 54.5248C12.1721 54.8857 12.2123 55.2667 12.152 55.6476L12.0717 56.5299C12.0717 56.5299 12.0717 56.6903 12.1319 56.7505C12.1922 56.8106 12.2525 56.8307 12.3529 56.8307H16.9725C17.555 56.8307 18.0772 57.0312 18.4789 57.4523C18.9007 57.8733 19.1016 58.3746 19.1016 58.9561V59.1767C19.1016 59.3571 19.0212 59.4373 18.8405 59.4373L18.8204 59.4574Z" fill="white"/>
<path d="M30.7311 78.6868H30.47C29.8875 78.6868 29.3653 78.4863 28.9636 78.0652C28.5418 77.6441 28.3409 77.1428 28.3409 76.5613V68.2601C28.3409 66.9367 27.9392 65.894 27.1157 65.112C26.2922 64.33 25.2076 63.949 23.8016 63.949C22.3153 63.949 21.1704 64.3901 20.3469 65.2523C19.9452 65.7135 19.4029 65.9541 18.7401 65.9541C18.4589 65.9541 18.1978 65.914 17.9568 65.8138L17.3743 65.5531C17.1935 65.4729 17.1333 65.3727 17.2136 65.2122C17.776 63.9891 18.6397 63.0266 19.8046 62.3248C20.9495 61.623 22.2952 61.2822 23.8217 61.2822C24.8862 61.2822 25.8503 61.4626 26.714 61.8035C27.5978 62.1444 28.3409 62.6457 28.9837 63.2673C29.6264 63.8888 30.1285 64.6308 30.4901 65.4729C30.8516 66.3151 31.0324 67.2575 31.0324 68.2801V78.4462C31.0324 78.6266 30.952 78.7069 30.7713 78.7069L30.7311 78.6868Z" fill="white"/>
<path d="M46.0964 63.4277C46.0964 62.8261 46.2973 62.3048 46.7191 61.9038C47.1409 61.5027 47.643 61.2822 48.2255 61.2822H48.4866C48.6674 61.2822 48.7477 61.3624 48.7477 61.5428V78.4061C48.7477 78.5865 48.6674 78.6667 48.4866 78.6667H48.2255C47.643 78.6667 47.1208 78.4662 46.7191 78.0451C46.2973 77.6241 46.0964 77.1228 46.0964 76.5413V75.8996C45.6947 76.2606 45.2729 76.6014 44.7909 76.9423C44.3088 77.2832 43.8268 77.584 43.3046 77.8446C42.7823 78.1053 42.24 78.3058 41.6977 78.4662C41.1353 78.6266 40.593 78.7069 40.0306 78.7069C39.167 78.7069 38.3636 78.5464 37.6204 78.2256C36.8772 77.9048 36.2144 77.4637 35.6721 76.9223C35.1298 76.3809 34.6879 75.7392 34.3666 74.9773C34.0452 74.2354 33.8845 73.4333 33.8845 72.5711V61.5428C33.8845 61.3624 33.9649 61.2822 34.1456 61.2822H34.4067C34.9892 61.2822 35.5114 61.4827 35.9131 61.9038C36.3349 62.3248 36.5358 62.8261 36.5358 63.4076V72.5711C36.5358 73.0523 36.6161 73.5135 36.7969 73.9146C36.9777 74.3356 37.2187 74.6966 37.5401 75.0174C37.8614 75.3382 38.223 75.5788 38.6448 75.7593C39.0665 75.9398 39.5084 76.02 39.9905 76.02C40.6332 76.02 41.296 75.8395 41.9789 75.4786C42.6618 75.1176 43.3046 74.6966 43.867 74.2153C44.4293 73.7341 44.9315 73.2529 45.3332 72.7917C45.7349 72.3104 45.9759 71.9696 46.0362 71.729V63.4076L46.0964 63.4277Z" fill="white"/>
<path d="M59.0916 78.7069C58.0672 78.7069 57.1031 78.5264 56.1993 78.1655C55.2954 77.8045 54.492 77.3033 53.8292 76.6616C53.1664 76.02 52.6241 75.2781 52.2424 74.4359C51.8407 73.5937 51.66 72.6914 51.66 71.7089V61.5428C51.66 61.3624 51.7403 61.2822 51.9211 61.2822H52.1822C52.7647 61.2822 53.2869 61.4827 53.6886 61.9038C54.1104 62.3048 54.3112 62.8261 54.3112 63.4277V71.729C54.3112 72.3305 54.4318 72.8919 54.6929 73.4133C54.9339 73.9346 55.2753 74.3958 55.7172 74.7768C56.139 75.1778 56.6411 75.4786 57.2236 75.6991C57.8061 75.9197 58.4287 76.04 59.0916 76.04C59.7544 76.04 60.377 75.9197 60.9595 75.6991C61.542 75.4786 62.0441 75.1778 62.4659 74.7768C62.8877 74.3757 63.2291 73.9346 63.4702 73.4133C63.7112 72.8919 63.8317 72.3305 63.8317 71.729V63.4277C63.8317 62.8261 64.0326 62.3048 64.4544 61.9038C64.8762 61.5027 65.3783 61.2822 65.9608 61.2822H66.2219C66.4026 61.2822 66.483 61.3624 66.483 61.5428V71.7089C66.483 72.6714 66.2821 73.5737 65.9005 74.4359C65.4988 75.2781 64.9766 76.02 64.3138 76.6616C63.6509 77.3033 62.8475 77.8045 61.9638 78.1655C61.0599 78.5264 60.0958 78.7069 59.0715 78.7069H59.0916Z" fill="white"/>
<path d="M65.8805 86.7675H65.6595C65.0771 86.7675 64.5548 86.567 64.1531 86.1459C63.7313 85.7248 63.5305 85.2235 63.5305 84.642V82.9377C63.5305 82.7572 63.4501 82.677 63.2694 82.677H63.2493C62.7271 82.677 62.2852 82.4965 61.9237 82.1356C61.5621 81.7747 61.3813 81.3335 61.3813 80.8122V80.331C61.3813 80.1505 61.4617 80.0703 61.6425 80.0703H64.0326C64.6151 80.0703 65.1373 80.2708 65.539 80.6919C65.9608 81.113 66.1617 81.6143 66.1617 82.1958V86.5269C66.1617 86.7073 66.0813 86.7875 65.9006 86.7875L65.8805 86.7675Z" fill="white"/>
<path d="M87.7132 78.7068C86.8295 78.7068 86.006 78.5664 85.2427 78.3057C84.4795 78.0451 83.7966 77.6841 83.2342 77.223C82.6718 76.7618 82.2098 76.2404 81.8684 75.6389C81.5269 75.0374 81.3663 74.3757 81.3663 73.6939V68.2399C81.3663 68.2399 81.3663 68.0194 81.3462 67.7787C81.3462 67.5381 81.2658 67.2574 81.1855 66.9366C81.1052 66.6158 80.9646 66.2749 80.7637 65.934C80.5829 65.5931 80.3218 65.2723 79.9804 64.9715C79.6389 64.6708 79.2171 64.4301 78.715 64.2296C78.2129 64.0291 77.5902 63.9289 76.8471 63.9289C76.1842 63.9289 75.6018 64.0091 75.0996 64.1895C74.5975 64.3499 74.1556 64.5705 73.774 64.8111C73.3924 65.0517 73.0911 65.3325 72.83 65.6332C72.589 65.934 72.368 66.1947 72.2073 66.4553C72.127 66.5556 72.1471 66.6759 72.2274 66.7962L73.1915 67.6985C73.5932 68.0996 73.8142 68.6209 73.8142 69.2224V75.5386C73.8142 75.679 73.8744 75.7993 73.9748 75.9196C74.0753 76.0199 74.2159 76.08 74.3565 76.08H74.4569C74.6979 76.08 74.9389 76.1402 75.1197 76.2605C75.3206 76.3808 75.4813 76.5212 75.5817 76.7217C75.7022 76.9021 75.7624 77.1227 75.7825 77.3433C75.7825 77.5839 75.7624 77.8044 75.6419 78.005L75.3808 78.5463C75.3808 78.5463 75.3005 78.6266 75.2804 78.6667C75.2402 78.7068 75.2001 78.7268 75.1398 78.7268H74.0753C73.6736 78.7268 73.312 78.6466 72.9505 78.4862C72.589 78.3258 72.2877 78.1052 72.0065 77.8445C71.7454 77.5839 71.5244 77.2631 71.3637 76.9021C71.2031 76.5412 71.1227 76.1602 71.1227 75.7592V70.3453C71.1227 69.7438 70.9219 69.2224 70.5001 68.8214L69.074 67.4379C69.074 67.4379 68.9535 67.2975 68.9937 67.1772L69.1744 66.5556C69.315 66.0944 69.5761 65.553 69.9377 64.9515C70.2992 64.3499 70.8014 63.7685 71.424 63.2271C72.0466 62.6857 72.8099 62.2245 73.6936 61.8435C74.5774 61.4625 75.6218 61.262 76.8069 61.262C77.9919 61.262 79.0364 61.4625 79.9402 61.8636C80.844 62.2646 81.6073 62.806 82.2099 63.4476C82.8124 64.1093 83.2744 64.8512 83.5757 65.6934C83.8769 66.5355 84.0376 67.3777 84.0376 68.2399V73.6939C84.0376 73.9546 84.118 74.2353 84.2987 74.516C84.4795 74.7967 84.7406 75.0574 85.062 75.278C85.3833 75.4985 85.785 75.679 86.2269 75.8194C86.6688 75.9597 87.1709 76.0399 87.6932 76.0399C88.2154 76.0399 88.6974 75.9798 89.1192 75.8394C89.5611 75.699 89.9427 75.5186 90.2842 75.298C90.6256 75.0574 90.8867 74.7967 91.0675 74.4759C91.2483 74.1551 91.3487 73.8142 91.3487 73.4533V63.4075C91.3487 62.826 91.5496 62.3047 91.9713 61.9037C92.3931 61.4826 92.8953 61.2821 93.4777 61.2821H93.7389C93.9196 61.2821 94 61.3623 94 61.5427V73.4533C94 74.1952 93.8393 74.897 93.4978 75.5386C93.1765 76.1803 92.7145 76.7417 92.1521 77.2029C91.5897 77.6841 90.9068 78.0451 90.1436 78.3057C89.3803 78.5664 88.5367 78.7068 87.653 78.7068H87.7132ZM93.0961 83.0178H84.1983C83.6158 83.0178 83.0936 82.8173 82.6919 82.3962C82.2902 81.9751 82.0693 81.4739 82.0693 80.8924V78.6667C82.0693 78.5263 82.1295 78.426 82.25 78.406L82.3906 78.3458C82.5915 78.2857 82.7722 78.2656 82.9329 78.2656C83.3949 78.2656 83.7966 78.426 84.1581 78.7669C84.4996 79.0877 84.6804 79.5088 84.6804 80.0101V80.1705C84.6804 80.351 84.7607 80.4312 84.9415 80.4312H91.2483C91.8508 80.4312 92.373 80.6317 92.7748 81.0528C93.1765 81.4538 93.3974 81.9751 93.3974 82.5767V82.7571C93.3974 82.9376 93.3171 83.0178 93.1363 83.0178H93.0961Z" fill="white"/>
</svg>
