<?xml version="1.0" encoding="UTF-8"?>
<svg id="Layer_2" data-name="Layer 2" xmlns="http://www.w3.org/2000/svg" xmlns:xlink="http://www.w3.org/1999/xlink" viewBox="0 0 1440 28.36">
  <defs>
    <style>
      .cls-1 {
        fill: #FF0000;
      }

      .cls-1, .cls-2 {
        stroke-width: 0px;
      }

      .cls-2 {
        fill: none;
      }

      .cls-3 {
        clip-path: url(#clippath);
      }
    </style>
    <clipPath id="clippath">
      <rect class="cls-2" width="1440" height="28.36"/>
    </clipPath>
  </defs>
  <g id="OBJECTS">
    <g class="cls-3">
      <path class="cls-1" d="M1436.24-245.19c0,4.17-3.37,7.53-7.53,7.53s-7.53-3.36-7.53-7.53h-10.05c0,4.17-3.37,7.53-7.53,7.53s-7.53-3.36-7.53-7.53h-10.05c0,4.17-3.37,7.53-7.53,7.53s-7.53-3.36-7.53-7.53h-10.05c0,4.17-3.37,7.53-7.53,7.53s-7.53-3.36-7.53-7.53h-10.05c0,4.17-3.37,7.53-7.53,7.53s-7.53-3.36-7.53-7.53h-10.05c0,4.17-3.36,7.53-7.53,7.53s-7.53-3.36-7.53-7.53h-10.05c0,4.17-3.37,7.53-7.53,7.53s-7.53-3.36-7.53-7.53h-10.05c0,4.17-3.37,7.53-7.53,7.53s-7.53-3.36-7.53-7.53h-10.05c0,4.17-3.37,7.53-7.53,7.53s-7.53-3.36-7.53-7.53h-10.05c0,4.17-3.37,7.53-7.53,7.53s-7.53-3.36-7.53-7.53h-10.05c0,4.17-3.37,7.53-7.53,7.53s-7.53-3.36-7.53-7.53h-10.05c0,4.17-3.37,7.53-7.53,7.53s-7.53-3.36-7.53-7.53h-10.05c0,4.17-3.37,7.53-7.53,7.53s-7.53-3.36-7.53-7.53h-10.05c0,4.17-3.37,7.53-7.53,7.53s-7.53-3.36-7.53-7.53h-10.05c0,4.17-3.36,7.53-7.53,7.53s-7.53-3.36-7.53-7.53h-10.05c0,4.17-3.37,7.53-7.53,7.53s-7.53-3.36-7.53-7.53h-10.05c0,4.17-3.36,7.53-7.53,7.53s-7.53-3.36-7.53-7.53h-10.05c0,4.17-3.37,7.53-7.53,7.53s-7.53-3.36-7.53-7.53h-10.05c0,4.17-3.37,7.53-7.53,7.53s-7.53-3.36-7.53-7.53h-10.05c0,3.93-3,7.15-6.84,7.5-3.83-.35-6.84-3.56-6.84-7.5h-10.05c0,4.17-3.37,7.53-7.53,7.53s-7.53-3.36-7.53-7.53h-10.05c0,4.17-3.37,7.53-7.53,7.53s-7.53-3.36-7.53-7.53h-10.05c0,4.17-3.37,7.53-7.53,7.53s-7.53-3.36-7.53-7.53h-10.05c0,4.17-3.37,7.53-7.53,7.53s-7.53-3.36-7.53-7.53h-10.05c0,4.17-3.37,7.53-7.53,7.53s-7.53-3.36-7.53-7.53h-10.05c0,4.17-3.37,7.53-7.53,7.53s-7.53-3.36-7.53-7.53h-10.05c0,4.17-3.37,7.53-7.53,7.53s-7.53-3.36-7.53-7.53h-10.05c0,4.17-3.37,7.53-7.53,7.53s-7.53-3.36-7.53-7.53h-10.05c0,4.17-3.37,7.53-7.53,7.53s-7.53-3.36-7.53-7.53h-10.05c0,4.17-3.37,7.53-7.53,7.53s-7.53-3.36-7.53-7.53h-10.05c0,4.17-3.37,7.53-7.53,7.53s-7.53-3.36-7.53-7.53h-10.05c0,4.17-3.37,7.53-7.53,7.53s-7.53-3.36-7.53-7.53h-10.05c0,4.17-3.37,7.53-7.53,7.53s-7.53-3.36-7.53-7.53h-10.05c0,4.17-3.36,7.53-7.53,7.53s-7.53-3.36-7.53-7.53h-10.05c0,4.17-3.37,7.53-7.53,7.53s-7.53-3.36-7.53-7.53h-10.05c0,4.17-3.37,7.53-7.53,7.53s-7.53-3.36-7.53-7.53h-10.05c0,4.17-3.37,7.53-7.53,7.53s-7.53-3.36-7.53-7.53h-10.05c0,4.17-3.37,7.53-7.53,7.53s-7.53-3.36-7.53-7.53h-10.05c0,3.93-3,7.15-6.84,7.5-3.83-.35-6.84-3.56-6.84-7.5h-10.05c0,4.17-3.37,7.53-7.53,7.53s-7.53-3.36-7.53-7.53h-10.05c0,4.17-3.37,7.53-7.53,7.53s-7.53-3.36-7.53-7.53h-10.05c0,4.17-3.37,7.53-7.53,7.53s-7.53-3.36-7.53-7.53h-10.05c0,4.17-3.37,7.53-7.53,7.53s-7.53-3.36-7.53-7.53h-10.05c0,4.17-3.37,7.53-7.53,7.53s-7.53-3.36-7.53-7.53h-10.05c0,4.17-3.37,7.53-7.53,7.53s-7.53-3.36-7.53-7.53h-10.05c0,4.17-3.37,7.53-7.53,7.53s-7.53-3.36-7.53-7.53h-10.05c0,4.17-3.37,7.53-7.53,7.53s-7.53-3.36-7.53-7.53h-10.05c0,4.17-3.37,7.53-7.53,7.53s-7.53-3.36-7.53-7.53h-10.05c0,4.17-3.37,7.53-7.53,7.53s-7.53-3.36-7.53-7.53h-10.05c0,4.17-3.37,7.53-7.53,7.53s-7.53-3.36-7.53-7.53h-10.05c0,4.17-3.37,7.53-7.53,7.53s-7.53-3.36-7.53-7.53h-10.05c0,4.17-3.37,7.53-7.53,7.53s-7.53-3.36-7.53-7.53h-10.05c0,4.17-3.36,7.53-7.53,7.53s-7.53-3.36-7.53-7.53h-10.05c0,4.17-3.37,7.53-7.53,7.53s-7.53-3.36-7.53-7.53h-10.05c0,4.17-3.37,7.53-7.53,7.53s-7.53-3.36-7.53-7.53h-10.05c0,4.17-3.37,7.53-7.53,7.53s-7.53-3.36-7.53-7.53h-10.05c0,4.17-3.37,7.53-7.53,7.53s-7.53-3.36-7.53-7.53H7.53c0,4.17-3.36,7.53-7.53,7.53V21c4.17,0,7.53,3.38,7.53,7.53,0,0,0,0,0,0h10.05s0,0,0,0c0-4.15,3.38-7.53,7.53-7.53s7.53,3.38,7.53,7.53c0,0,0,0,0,0h10.05s0,0,0,0c0-4.15,3.38-7.53,7.53-7.53s7.53,3.38,7.53,7.53c0,0,0,0,0,0h10.05s0,0,0,0c0-4.15,3.38-7.53,7.53-7.53s7.53,3.38,7.53,7.53c0,0,0,0,0,0h10.05s0,0,0,0c0-4.15,3.38-7.53,7.53-7.53s7.53,3.38,7.53,7.53c0,0,0,0,0,0h10.05s0,0,0,0c0-4.15,3.38-7.53,7.53-7.53s7.53,3.38,7.53,7.53c0,0,0,0,0,0h10.05s0,0,0,0c0-4.15,3.38-7.53,7.53-7.53s7.53,3.38,7.53,7.53c0,0,0,0,0,0h10.05s0,0,0,0c0-4.15,3.38-7.53,7.53-7.53s7.53,3.38,7.53,7.53c0,0,0,0,0,0h10.05s0,0,0,0c0-4.15,3.38-7.53,7.53-7.53s7.53,3.38,7.53,7.53c0,0,0,0,0,0h10.05s0,0,0,0c0-4.15,3.38-7.53,7.53-7.53s7.53,3.38,7.53,7.53c0,0,0,0,0,0h10.05s0,0,0,0c0-4.15,3.38-7.53,7.53-7.53s7.53,3.38,7.53,7.53c0,0,0,0,0,0h10.05s0,0,0,0c0-4.15,3.38-7.53,7.53-7.53s7.53,3.38,7.53,7.53c0,0,0,0,0,0h10.05s0,0,0,0c0-4.15,3.38-7.53,7.53-7.53s7.53,3.38,7.53,7.53c0,0,0,0,0,0h10.05s0,0,0,0c0-4.15,3.38-7.53,7.53-7.53s7.53,3.38,7.53,7.53c0,0,0,0,0,0h10.05s0,0,0,0c0-4.15,3.38-7.53,7.53-7.53s7.53,3.38,7.53,7.53c0,0,0,0,0,0h10.05s0,0,0,0c0-4.15,3.38-7.53,7.53-7.53s7.53,3.38,7.53,7.53c0,0,0,0,0,0h10.05s0,0,0,0c0-4.15,3.38-7.53,7.53-7.53s7.53,3.38,7.53,7.53c0,0,0,0,0,0h10.05s0,0,0,0c0-4.15,3.38-7.53,7.53-7.53s7.53,3.38,7.53,7.53c0,0,0,0,0,0h10.05s0,0,0,0c0-4.15,3.38-7.53,7.53-7.53s7.53,3.38,7.53,7.53c0,0,0,0,0,0h10.05s0,0,0,0c0-3.92,3.01-7.14,6.84-7.5,3.85.35,6.85,3.58,6.85,7.5,0,0,0,0,0,0h10.05s0,0,0,0c0-4.15,3.38-7.53,7.53-7.53s7.53,3.38,7.53,7.53c0,0,0,0,0,0h10.05s0,0,0,0c0-4.15,3.38-7.53,7.53-7.53s7.53,3.38,7.53,7.53c0,0,0,0,0,0h10.05s0,0,0,0c0-4.15,3.38-7.53,7.53-7.53s7.53,3.38,7.53,7.53c0,0,0,0,0,0h10.05s0,0,0,0c0-4.15,3.38-7.53,7.53-7.53s7.53,3.38,7.53,7.53c0,0,0,0,0,0h10.05s0,0,0,0c0-4.15,3.38-7.53,7.53-7.53s7.53,3.38,7.53,7.53c0,0,0,0,0,0h10.05s0,0,0,0c0-4.15,3.38-7.53,7.53-7.53s7.53,3.38,7.53,7.53c0,0,0,0,0,0h10.05s0,0,0,0c0-4.15,3.38-7.53,7.53-7.53s7.53,3.38,7.53,7.53c0,0,0,0,0,0h10.05s0,0,0,0c0-4.15,3.38-7.53,7.53-7.53s7.53,3.38,7.53,7.53c0,0,0,0,0,0h10.05s0,0,0,0c0-4.15,3.38-7.53,7.53-7.53s7.53,3.38,7.53,7.53c0,0,0,0,0,0h10.05s0,0,0,0c0-4.15,3.38-7.53,7.53-7.53s7.53,3.38,7.53,7.53c0,0,0,0,0,0h10.05s0,0,0,0c0-4.15,3.38-7.53,7.53-7.53s7.53,3.38,7.53,7.53c0,0,0,0,0,0h10.05s0,0,0,0c0-4.15,3.38-7.53,7.53-7.53s7.53,3.38,7.53,7.53c0,0,0,0,0,0h10.05s0,0,0,0c0-4.15,3.38-7.53,7.53-7.53s7.53,3.38,7.53,7.53c0,0,0,0,0,0h10.05s0,0,0,0c0-4.15,3.38-7.53,7.53-7.53s7.53,3.38,7.53,7.53c0,0,0,0,0,0h10.05s0,0,0,0c0-4.15,3.38-7.53,7.53-7.53s7.53,3.38,7.53,7.53c0,0,0,0,0,0h10.05s0,0,0,0c0-4.15,3.38-7.53,7.53-7.53s7.53,3.38,7.53,7.53c0,0,0,0,0,0h10.05s0,0,0,0c0-4.15,3.38-7.53,7.53-7.53s7.53,3.38,7.53,7.53c0,0,0,0,0,0h10.05s0,0,0,0c0-4.15,3.38-7.53,7.53-7.53s7.53,3.38,7.53,7.53c0,0,0,0,0,0h10.05s0,0,0,0c0-3.92,3.01-7.14,6.84-7.5,3.85.35,6.85,3.58,6.85,7.5,0,0,0,0,0,0h10.05s0,0,0,0c0-4.15,3.38-7.53,7.53-7.53s7.53,3.38,7.53,7.53c0,0,0,0,0,0h10.05s0,0,0,0c0-4.15,3.38-7.53,7.53-7.53s7.53,3.38,7.53,7.53c0,0,0,0,0,0h10.05s0,0,0,0c0-4.15,3.38-7.53,7.53-7.53s7.53,3.38,7.53,7.53c0,0,0,0,0,0h10.05s0,0,0,0c0-4.15,3.38-7.53,7.53-7.53s7.53,3.38,7.53,7.53c0,0,0,0,0,0h10.05s0,0,0,0c0-4.15,3.38-7.53,7.53-7.53s7.53,3.38,7.53,7.53c0,0,0,0,0,0h10.05s0,0,0,0c0-4.15,3.38-7.53,7.53-7.53s7.53,3.38,7.53,7.53c0,0,0,0,0,0h10.05s0,0,0,0c0-4.15,3.38-7.53,7.53-7.53s7.53,3.38,7.53,7.53c0,0,0,0,0,0h10.05s0,0,0,0c0-4.15,3.38-7.53,7.53-7.53s7.53,3.38,7.53,7.53c0,0,0,0,0,0h10.05s0,0,0,0c0-4.15,3.38-7.53,7.53-7.53s7.53,3.38,7.53,7.53c0,0,0,0,0,0h10.05s0,0,0,0c0-4.15,3.38-7.53,7.53-7.53s7.53,3.38,7.53,7.53c0,0,0,0,0,0h10.05s0,0,0,0c0-4.15,3.38-7.53,7.53-7.53s7.53,3.38,7.53,7.53c0,0,0,0,0,0h10.05s0,0,0,0c0-4.15,3.38-7.53,7.53-7.53s7.53,3.38,7.53,7.53c0,0,0,0,0,0h10.05s0,0,0,0c0-4.15,3.38-7.53,7.53-7.53s7.53,3.38,7.53,7.53c0,0,0,0,0,0h10.05s0,0,0,0c0-4.15,3.38-7.53,7.53-7.53s7.53,3.38,7.53,7.53c0,0,0,0,0,0h10.05s0,0,0,0c0-4.15,3.38-7.53,7.53-7.53s7.53,3.38,7.53,7.53c0,0,0,0,0,0h10.05s0,0,0,0c0-4.15,3.38-7.53,7.53-7.53s7.53,3.38,7.53,7.53c0,0,0,0,0,0h10.05s0,0,0,0c0-4.15,3.38-7.53,7.53-7.53s7.53,3.38,7.53,7.53c0,0,0,0,0,0h10.05s0,0,0,0c0-4.15,3.38-7.53,7.53-7.53s7.53,3.38,7.53,7.53c0,0,0,0,0,0h10.05s0,0,0,0c0-4.15,3.38-7.53,7.53-7.53s7.53,3.38,7.53,7.53c0,0,0,0,0,0h3.76V-245.19h-3.76Z"/>
    </g>
  </g>
</svg>