<svg width="327" height="40" viewBox="0 0 327 40" fill="none" xmlns="http://www.w3.org/2000/svg">
<path d="M1.04591 10.7227H10.5899C12.3679 10.7227 13.7886 11.1672 14.8519 12.0562C15.9327 12.9278 16.4731 14.1829 16.4731 15.8215C16.4731 16.5537 16.3075 17.2422 15.9763 17.8872C15.6625 18.5322 15.2006 19.0551 14.5905 19.4561C15.4446 19.8396 16.0635 20.3451 16.447 20.9726C16.8479 21.6002 17.0484 22.4195 17.0484 23.4305C17.0484 24.5636 16.7782 25.5572 16.2378 26.4114C15.6974 27.2481 14.9652 27.8931 14.0414 28.3463C13.1349 28.7821 12.1239 29 11.0082 29H1.04591V10.7227ZM9.17787 17.8087C9.77055 17.8087 10.2151 17.678 10.5114 17.4165C10.8252 17.1551 10.9821 16.7367 10.9821 16.1614C10.9821 15.5688 10.8339 15.1591 10.5376 14.9325C10.2412 14.6884 9.77927 14.5664 9.15172 14.5664H6.4585V17.8087H9.17787ZM9.49164 25.1563C10.2064 25.1563 10.7293 25.0255 11.0605 24.7641C11.3917 24.5026 11.5573 24.0494 11.5573 23.4044C11.5573 22.7768 11.383 22.3149 11.0344 22.0185C10.7032 21.7222 10.1715 21.574 9.43935 21.574H6.4585V25.1563H9.49164ZM24.486 10.7227H29.6894L36.9846 29H31.4413L30.0816 25.5223H24.0938L22.7079 29H17.1646L24.486 10.7227ZM28.8265 21.4171L27.0746 16.2922L25.3227 21.4171H28.8265ZM45.2132 10.7227H50.4166L57.7118 29H52.1685L50.8088 25.5223H44.821L43.4351 29H37.8918L45.2132 10.7227ZM49.5537 21.4171L47.8018 16.2922L46.0499 21.4171H49.5537ZM60.0613 10.7227H65.317L71.0172 20.2928V10.7227H76.4298V29H71.2002L65.4738 19.4299V29H60.0613V10.7227ZM79.3074 10.7227H88.8514C90.6294 10.7227 92.0501 11.1672 93.1135 12.0562C94.1943 12.9278 94.7346 14.1829 94.7346 15.8215C94.7346 16.5537 94.569 17.2422 94.2378 17.8872C93.9241 18.5322 93.4621 19.0551 92.852 19.4561C93.7062 19.8396 94.325 20.3451 94.7085 20.9726C95.1094 21.6002 95.3099 22.4195 95.3099 23.4305C95.3099 24.5636 95.0397 25.5572 94.4993 26.4114C93.9589 27.2481 93.2268 27.8931 92.3029 28.3463C91.3964 28.7821 90.3854 29 89.2698 29H79.3074V10.7227ZM87.4394 17.8087C88.0321 17.8087 88.4766 17.678 88.7729 17.4165C89.0867 17.1551 89.2436 16.7367 89.2436 16.1614C89.2436 15.5688 89.0954 15.1591 88.7991 14.9325C88.5028 14.6884 88.0408 14.5664 87.4133 14.5664H84.72V17.8087H87.4394ZM87.7532 25.1563C88.4679 25.1563 88.9908 25.0255 89.322 24.7641C89.6533 24.5026 89.8189 24.0494 89.8189 23.4044C89.8189 22.7768 89.6445 22.3149 89.2959 22.0185C88.9647 21.7222 88.433 21.574 87.7009 21.574H84.72V25.1563H87.7532ZM106.357 29.3922C104.509 29.3922 102.827 28.9913 101.31 28.1894C99.8113 27.3876 98.6259 26.2719 97.7543 24.8425C96.9001 23.3957 96.4731 21.7396 96.4731 19.8744C96.4731 18.0092 96.9001 16.3532 97.7543 14.9063C98.6259 13.4595 99.8113 12.3351 101.31 11.5333C102.827 10.7314 104.509 10.3305 106.357 10.3305C108.205 10.3305 109.869 10.7314 111.351 11.5333C112.85 12.3351 114.027 13.4595 114.881 14.9063C115.753 16.3532 116.188 18.0092 116.188 19.8744C116.188 21.7396 115.753 23.3957 114.881 24.8425C114.027 26.2719 112.85 27.3876 111.351 28.1894C109.869 28.9913 108.205 29.3922 106.357 29.3922ZM106.357 24.3195C107.159 24.3195 107.882 24.1452 108.527 23.7966C109.19 23.4305 109.713 22.9163 110.096 22.2539C110.48 21.574 110.671 20.7809 110.671 19.8744C110.671 18.5322 110.262 17.4601 109.442 16.6582C108.623 15.8564 107.595 15.4554 106.357 15.4554C105.102 15.4554 104.056 15.8564 103.219 16.6582C102.4 17.4601 101.99 18.5322 101.99 19.8744C101.99 20.7809 102.182 21.574 102.565 22.2539C102.949 22.9163 103.472 23.4305 104.134 23.7966C104.797 24.1452 105.538 24.3195 106.357 24.3195ZM127.774 29.3922C125.926 29.3922 124.244 28.9913 122.727 28.1894C121.228 27.3876 120.043 26.2719 119.171 24.8425C118.317 23.3957 117.89 21.7396 117.89 19.8744C117.89 18.0092 118.317 16.3532 119.171 14.9063C120.043 13.4595 121.228 12.3351 122.727 11.5333C124.244 10.7314 125.926 10.3305 127.774 10.3305C129.621 10.3305 131.286 10.7314 132.768 11.5333C134.267 12.3351 135.444 13.4595 136.298 14.9063C137.169 16.3532 137.605 18.0092 137.605 19.8744C137.605 21.7396 137.169 23.3957 136.298 24.8425C135.444 26.2719 134.267 27.3876 132.768 28.1894C131.286 28.9913 129.621 29.3922 127.774 29.3922ZM127.774 24.3195C128.575 24.3195 129.299 24.1452 129.944 23.7966C130.606 23.4305 131.129 22.9163 131.513 22.2539C131.896 21.574 132.088 20.7809 132.088 19.8744C132.088 18.5322 131.678 17.4601 130.859 16.6582C130.04 15.8564 129.011 15.4554 127.774 15.4554C126.518 15.4554 125.473 15.8564 124.636 16.6582C123.817 17.4601 123.407 18.5322 123.407 19.8744C123.407 20.7809 123.599 21.574 123.982 22.2539C124.366 22.9163 124.889 23.4305 125.551 23.7966C126.213 24.1452 126.954 24.3195 127.774 24.3195ZM139.957 10.7227H145.213L150.913 20.2928V10.7227H156.326V29H151.096L145.37 19.4299V29H139.957V10.7227Z" fill="#F4BA11"/>
<mask id="path-2-outside-1_41_5" maskUnits="userSpaceOnUse" x="167.672" y="10.8247" width="159" height="18" fill="black">
<rect fill="white" x="167.672" y="10.8247" width="159" height="18"/>
<path d="M174.632 28.1621C173.628 28.1621 172.616 28.0571 171.596 27.8472C170.576 27.6523 169.752 27.3899 169.122 27.06V22.9439C169.946 23.3937 170.809 23.7311 171.708 23.956C172.623 24.181 173.478 24.2934 174.273 24.2934C175.427 24.2934 176.004 23.986 176.004 23.3712C176.004 23.1163 175.914 22.8989 175.735 22.719C175.57 22.524 175.315 22.3441 174.97 22.1792C174.625 21.9992 174.078 21.7443 173.328 21.4144C171.873 20.7846 170.816 20.0949 170.156 19.3451C169.512 18.5954 169.189 17.6657 169.189 16.5561C169.189 15.6264 169.444 14.8017 169.954 14.0819C170.479 13.3472 171.206 12.7774 172.136 12.3725C173.065 11.9677 174.138 11.7652 175.352 11.7652C176.342 11.7652 177.219 11.8477 177.984 12.0127C178.748 12.1626 179.491 12.41 180.21 12.7549V16.736C178.906 16.0163 177.571 15.6564 176.207 15.6564C175.607 15.6564 175.127 15.7464 174.767 15.9263C174.407 16.0912 174.228 16.3387 174.228 16.6685C174.228 16.9984 174.385 17.2683 174.7 17.4783C175.03 17.6732 175.645 17.9506 176.544 18.3105L177.039 18.5129C178.104 18.9478 178.921 19.3826 179.491 19.8175C180.076 20.2373 180.495 20.7321 180.75 21.302C181.005 21.8568 181.133 22.5615 181.133 23.4162C181.133 24.9007 180.593 26.0628 179.513 26.9025C178.434 27.7422 176.807 28.1621 174.632 28.1621ZM190.629 28.1621C188.98 28.1621 187.608 27.8547 186.513 27.2399C185.419 26.6251 184.601 25.7779 184.062 24.6983C183.537 23.6187 183.274 22.3816 183.274 20.9871V12.1026H187.93V20.9421C187.93 21.9017 188.155 22.629 188.605 23.1238C189.07 23.6187 189.745 23.8661 190.629 23.8661C191.514 23.8661 192.181 23.6187 192.631 23.1238C193.096 22.629 193.328 21.9017 193.328 20.9421V12.1026H197.984V20.9871C197.984 22.3816 197.714 23.6187 197.175 24.6983C196.65 25.7779 195.84 26.6251 194.745 27.2399C193.651 27.8547 192.279 28.1621 190.629 28.1621ZM200.563 12.1026H207.805C209.694 12.1026 211.194 12.59 212.304 13.5646C213.428 14.5243 213.99 15.9038 213.99 17.7032C213.99 19.5026 213.428 20.8896 212.304 21.8643C211.194 22.8389 209.694 23.3263 207.805 23.3263H205.219V27.8247H200.563V12.1026ZM206.928 19.6375C207.648 19.6375 208.21 19.4951 208.615 19.2102C209.02 18.9253 209.222 18.4229 209.222 17.7032C209.222 16.9984 209.02 16.5036 208.615 16.2187C208.21 15.9338 207.648 15.7913 206.928 15.7913H205.219V19.6375H206.928ZM216.025 12.1026H227.429V16.0163H220.681V18.1755H225.539V21.7518H220.681V23.9111H227.429V27.8247H216.025V12.1026ZM229.445 12.1026H236.755C238.644 12.1026 240.136 12.5825 241.231 13.5421C242.326 14.4868 242.873 15.8588 242.873 17.6582C242.873 18.8278 242.625 19.825 242.131 20.6497C241.651 21.4744 240.961 22.1042 240.061 22.539L242.693 27.8247H237.925L235.63 23.2138H234.101V27.8247H229.445V12.1026ZM235.833 19.5251C236.553 19.5251 237.107 19.3901 237.497 19.1202C237.902 18.8353 238.104 18.348 238.104 17.6582C238.104 16.9684 237.902 16.4886 237.497 16.2187C237.107 15.9338 236.553 15.7913 235.833 15.7913H234.101V19.5251H235.833ZM258.292 28.1621C257.287 28.1621 256.275 28.0571 255.256 27.8472C254.236 27.6523 253.411 27.3899 252.782 27.06V22.9439C253.606 23.3937 254.468 23.7311 255.368 23.956C256.283 24.181 257.138 24.2934 257.932 24.2934C259.087 24.2934 259.664 23.986 259.664 23.3712C259.664 23.1163 259.574 22.8989 259.394 22.719C259.229 22.524 258.974 22.3441 258.63 22.1792C258.285 21.9992 257.737 21.7443 256.988 21.4144C255.533 20.7846 254.476 20.0949 253.816 19.3451C253.171 18.5954 252.849 17.6657 252.849 16.5561C252.849 15.6264 253.104 14.8017 253.614 14.0819C254.139 13.3472 254.866 12.7774 255.796 12.3725C256.725 11.9677 257.797 11.7652 259.012 11.7652C260.002 11.7652 260.879 11.8477 261.643 12.0127C262.408 12.1626 263.15 12.41 263.87 12.7549V16.736C262.566 16.0163 261.231 15.6564 259.867 15.6564C259.267 15.6564 258.787 15.7464 258.427 15.9263C258.067 16.0912 257.887 16.3387 257.887 16.6685C257.887 16.9984 258.045 17.2683 258.36 17.4783C258.69 17.6732 259.304 17.9506 260.204 18.3105L260.699 18.5129C261.763 18.9478 262.581 19.3826 263.15 19.8175C263.735 20.2373 264.155 20.7321 264.41 21.302C264.665 21.8568 264.792 22.5615 264.792 23.4162C264.792 24.9007 264.253 26.0628 263.173 26.9025C262.093 27.7422 260.466 28.1621 258.292 28.1621ZM269.917 16.0163H265.688V12.1026H278.801V16.0163H274.573V27.8247H269.917V16.0163ZM287.969 28.1621C286.38 28.1621 284.933 27.8172 283.628 27.1274C282.339 26.4377 281.319 25.478 280.57 24.2484C279.835 23.0039 279.467 21.5794 279.467 19.9749C279.467 18.3705 279.835 16.946 280.57 15.7014C281.319 14.4568 282.339 13.4896 283.628 12.7999C284.933 12.1101 286.38 11.7652 287.969 11.7652C289.559 11.7652 290.991 12.1101 292.265 12.7999C293.555 13.4896 294.567 14.4568 295.302 15.7014C296.052 16.946 296.427 18.3705 296.427 19.9749C296.427 21.5794 296.052 23.0039 295.302 24.2484C294.567 25.478 293.555 26.4377 292.265 27.1274C290.991 27.8172 289.559 28.1621 287.969 28.1621ZM287.969 23.7986C288.659 23.7986 289.282 23.6486 289.836 23.3487C290.406 23.0339 290.856 22.5915 291.186 22.0217C291.516 21.4369 291.681 20.7546 291.681 19.9749C291.681 18.8203 291.328 17.8981 290.624 17.2084C289.919 16.5186 289.034 16.1737 287.969 16.1737C286.89 16.1737 285.99 16.5186 285.27 17.2084C284.566 17.8981 284.213 18.8203 284.213 19.9749C284.213 20.7546 284.378 21.4369 284.708 22.0217C285.038 22.5915 285.488 23.0339 286.058 23.3487C286.627 23.6486 287.265 23.7986 287.969 23.7986ZM298.675 12.1026H305.985C307.874 12.1026 309.366 12.5825 310.46 13.5421C311.555 14.4868 312.102 15.8588 312.102 17.6582C312.102 18.8278 311.855 19.825 311.36 20.6497C310.88 21.4744 310.191 22.1042 309.291 22.539L311.922 27.8247H307.154L304.86 23.2138H303.33V27.8247H298.675V12.1026ZM305.062 19.5251C305.782 19.5251 306.337 19.3901 306.727 19.1202C307.132 18.8353 307.334 18.348 307.334 17.6582C307.334 16.9684 307.132 16.4886 306.727 16.2187C306.337 15.9338 305.782 15.7913 305.062 15.7913H303.33V19.5251H305.062ZM314.357 12.1026H325.76V16.0163H319.013V18.1755H323.871V21.7518H319.013V23.9111H325.76V27.8247H314.357V12.1026Z"/>
</mask>
<path d="M171.596 27.8472L171.701 27.3356L171.694 27.3342L171.596 27.8472ZM169.122 27.06H168.599V27.376L168.879 27.5226L169.122 27.06ZM169.122 22.9439L169.372 22.4854L168.599 22.0641V22.9439H169.122ZM171.708 23.956L171.582 24.4627L171.584 24.4632L171.708 23.956ZM175.735 22.719L175.336 23.0563L175.35 23.0729L175.365 23.0883L175.735 22.719ZM174.97 22.1792L174.728 22.6422L174.736 22.6464L174.744 22.6503L174.97 22.1792ZM173.328 21.4144L173.538 20.9363L173.535 20.9351L173.328 21.4144ZM170.156 19.3451L169.76 19.6857L169.764 19.6902L170.156 19.3451ZM169.954 14.0819L169.529 13.7784L169.528 13.78L169.954 14.0819ZM172.136 12.3725L172.344 12.8514L172.344 12.8514L172.136 12.3725ZM177.984 12.0127L177.874 12.5233L177.883 12.5252L177.984 12.0127ZM180.21 12.7549H180.733V12.426L180.436 12.2839L180.21 12.7549ZM180.21 16.736L179.958 17.1933L180.733 17.6207V16.736H180.21ZM174.767 15.9263L174.985 16.4011L174.993 16.3974L175.001 16.3935L174.767 15.9263ZM174.7 17.4783L174.41 17.9128L174.422 17.9207L174.434 17.9279L174.7 17.4783ZM176.544 18.3105L176.742 17.8271L176.738 17.8255L176.544 18.3105ZM177.039 18.5129L176.841 18.9963L176.842 18.9964L177.039 18.5129ZM179.491 19.8175L179.174 20.2327L179.18 20.2373L179.186 20.2417L179.491 19.8175ZM180.75 21.302L180.273 21.5153L180.276 21.52L180.75 21.302ZM179.513 26.9025L179.193 26.4902L179.513 26.9025ZM174.632 27.6398C173.664 27.6398 172.688 27.5387 171.701 27.3356L171.491 28.3588C172.544 28.5756 173.591 28.6844 174.632 28.6844V27.6398ZM171.694 27.3342C170.704 27.1449 169.933 26.8952 169.364 26.5973L168.879 27.5226C169.57 27.8845 170.449 28.1597 171.498 28.3602L171.694 27.3342ZM169.644 27.06V22.9439H168.599V27.06H169.644ZM168.872 23.4024C169.735 23.8732 170.638 24.2269 171.582 24.4627L171.835 23.4493C170.979 23.2353 170.158 22.9143 169.372 22.4854L168.872 23.4024ZM171.584 24.4632C172.532 24.6964 173.429 24.8157 174.273 24.8157V23.7711C173.527 23.7711 172.714 23.6655 171.833 23.4488L171.584 24.4632ZM174.273 24.8157C174.879 24.8157 175.415 24.7379 175.817 24.5239C176.026 24.4128 176.209 24.2589 176.339 24.0518C176.47 23.843 176.527 23.6099 176.527 23.3712H175.482C175.482 23.44 175.467 23.4758 175.453 23.4976C175.439 23.521 175.406 23.5593 175.326 23.6019C175.151 23.6953 174.821 23.7711 174.273 23.7711V24.8157ZM176.527 23.3712C176.527 22.9781 176.382 22.6277 176.104 22.3496L175.365 23.0883C175.447 23.1701 175.482 23.2546 175.482 23.3712H176.527ZM176.133 22.3816C175.903 22.1094 175.576 21.8904 175.195 21.708L174.744 22.6503C175.053 22.7978 175.236 22.9386 175.336 23.0563L176.133 22.3816ZM175.211 21.7161C174.85 21.5277 174.29 21.267 173.538 20.9363L173.117 21.8925C173.866 22.2216 174.4 22.4708 174.728 22.6422L175.211 21.7161ZM173.535 20.9351C172.115 20.3199 171.136 19.6679 170.549 19.0001L169.764 19.6902C170.496 20.5218 171.632 21.2494 173.12 21.8937L173.535 20.9351ZM170.552 19.0046C169.999 18.3612 169.712 17.557 169.712 16.5561H168.667C168.667 17.7744 169.024 18.8295 169.76 19.6857L170.552 19.0046ZM169.712 16.5561C169.712 15.7284 169.936 15.0104 170.38 14.3838L169.528 13.78C168.952 14.593 168.667 15.5245 168.667 16.5561H169.712ZM170.379 14.3855C170.842 13.7369 171.49 13.2233 172.344 12.8514L171.927 11.8937C170.922 12.3315 170.115 12.9575 169.529 13.7784L170.379 14.3855ZM172.344 12.8514C173.196 12.4803 174.195 12.2875 175.352 12.2875V11.2429C174.08 11.2429 172.934 11.4551 171.927 11.8937L172.344 12.8514ZM175.352 12.2875C176.314 12.2875 177.153 12.3678 177.874 12.5232L178.094 11.5021C177.285 11.3276 176.37 11.2429 175.352 11.2429V12.2875ZM177.883 12.5252C178.604 12.6664 179.304 12.8996 179.985 13.2259L180.436 12.2839C179.678 11.9204 178.893 11.6588 178.084 11.5001L177.883 12.5252ZM179.688 12.7549V16.736H180.733V12.7549H179.688ZM180.463 16.2787C179.088 15.5203 177.668 15.1341 176.207 15.1341V16.1787C177.475 16.1787 178.724 16.5122 179.958 17.1933L180.463 16.2787ZM176.207 15.1341C175.562 15.1341 174.993 15.2295 174.534 15.4591L175.001 16.3935C175.261 16.2632 175.652 16.1787 176.207 16.1787V15.1341ZM174.55 15.4515C174.312 15.5606 174.096 15.7139 173.94 15.9284C173.78 16.1485 173.705 16.4024 173.705 16.6685H174.75C174.75 16.6048 174.765 16.5701 174.785 16.5428C174.809 16.5099 174.863 16.4569 174.985 16.4011L174.55 15.4515ZM173.705 16.6685C173.705 17.201 173.975 17.6227 174.41 17.9128L174.99 17.0437C174.795 16.914 174.75 16.7958 174.75 16.6685H173.705ZM174.434 17.9279C174.803 18.1457 175.452 18.4361 176.35 18.7954L176.738 17.8255C175.837 17.4651 175.257 17.2007 174.966 17.0286L174.434 17.9279ZM176.346 18.7939L176.841 18.9963L177.237 18.0295L176.742 17.8271L176.346 18.7939ZM176.842 18.9964C177.886 19.423 178.656 19.8374 179.174 20.2327L179.808 19.4023C179.186 18.9279 178.321 18.4725 177.237 18.0294L176.842 18.9964ZM179.186 20.2417C179.708 20.6161 180.062 21.042 180.274 21.5152L181.227 21.0887C180.929 20.4223 180.443 19.8585 179.795 19.3932L179.186 20.2417ZM180.276 21.52C180.489 21.9848 180.61 22.6087 180.61 23.4162H181.655C181.655 22.5144 181.521 21.7287 181.225 21.0839L180.276 21.52ZM180.61 23.4162C180.61 24.7554 180.133 25.7588 179.193 26.4902L179.834 27.3148C181.053 26.3668 181.655 25.0461 181.655 23.4162H180.61ZM179.193 26.4902C178.245 27.2274 176.754 27.6398 174.632 27.6398V28.6844C176.859 28.6844 178.622 28.257 179.834 27.3148L179.193 26.4902ZM184.062 24.6983L183.592 24.9266L183.594 24.9319L184.062 24.6983ZM183.274 12.1026V11.5803H182.752V12.1026H183.274ZM187.93 12.1026H188.453V11.5803H187.93V12.1026ZM188.605 23.1238L188.218 23.4752L188.224 23.4814L188.605 23.1238ZM192.631 23.1238L192.25 22.7662L192.245 22.7725L192.631 23.1238ZM193.328 12.1026V11.5803H192.806V12.1026H193.328ZM197.984 12.1026H198.507V11.5803H197.984V12.1026ZM197.175 24.6983L196.707 24.4647L196.705 24.4699L197.175 24.6983ZM194.745 27.2399L194.49 26.7845L194.49 26.7845L194.745 27.2399ZM190.629 27.6398C189.042 27.6398 187.765 27.3438 186.769 26.7845L186.257 27.6953C187.451 28.3656 188.918 28.6844 190.629 28.6844V27.6398ZM186.769 26.7845C185.762 26.2187 185.02 25.447 184.529 24.4647L183.594 24.9319C184.183 26.1088 185.076 27.0315 186.257 27.6953L186.769 26.7845ZM184.531 24.4699C184.046 23.4721 183.797 22.3152 183.797 20.9871H182.752C182.752 22.4479 183.027 23.7652 183.592 24.9266L184.531 24.4699ZM183.797 20.9871V12.1026H182.752V20.9871H183.797ZM183.274 12.6249H187.93V11.5803H183.274V12.6249ZM187.408 12.1026V20.9421H188.453V12.1026H187.408ZM187.408 20.9421C187.408 21.9756 187.65 22.8495 188.219 23.4752L188.991 22.7725C188.661 22.4085 188.453 21.8279 188.453 20.9421H187.408ZM188.224 23.4814C188.815 24.1107 189.646 24.3884 190.629 24.3884V23.3438C189.843 23.3438 189.324 23.1266 188.986 22.7662L188.224 23.4814ZM190.629 24.3884C191.611 24.3884 192.439 24.1111 193.018 23.4752L192.245 22.7725C191.923 23.1262 191.417 23.3438 190.629 23.3438V24.3884ZM193.012 23.4814C193.599 22.856 193.851 21.9796 193.851 20.9421H192.806C192.806 21.8239 192.593 22.402 192.25 22.7662L193.012 23.4814ZM193.851 20.9421V12.1026H192.806V20.9421H193.851ZM193.328 12.6249H197.984V11.5803H193.328V12.6249ZM197.462 12.1026V20.9871H198.507V12.1026H197.462ZM197.462 20.9871C197.462 22.3131 197.206 23.4681 196.707 24.4647L197.642 24.9319C198.223 23.7692 198.507 22.4501 198.507 20.9871H197.462ZM196.705 24.4699C196.229 25.4493 195.496 26.2193 194.49 26.7845L195.001 27.6953C196.184 27.0309 197.071 26.1065 197.644 24.9266L196.705 24.4699ZM194.49 26.7845C193.494 27.3438 192.216 27.6398 190.629 27.6398V28.6844C192.341 28.6844 193.808 28.3656 195.001 27.6953L194.49 26.7845ZM200.563 12.1026V11.5803H200.04V12.1026H200.563ZM212.304 13.5646L211.959 13.9571L211.965 13.9619L212.304 13.5646ZM212.304 21.8643L211.961 21.4696L211.959 21.4718L212.304 21.8643ZM205.219 23.3263V22.804H204.696V23.3263H205.219ZM205.219 27.8247V28.347H205.741V27.8247H205.219ZM200.563 27.8247H200.04V28.347H200.563V27.8247ZM208.615 19.2102L208.915 19.6373L208.915 19.6373L208.615 19.2102ZM208.615 16.2187L208.915 15.7916L208.915 15.7916L208.615 16.2187ZM205.219 15.7913V15.269H204.696V15.7913H205.219ZM205.219 19.6375H204.696V20.1598H205.219V19.6375ZM200.563 12.6249H207.805V11.5803H200.563V12.6249ZM207.805 12.6249C209.604 12.6249 210.969 13.0873 211.959 13.957L212.648 13.1722C211.419 12.0926 209.785 11.5803 207.805 11.5803V12.6249ZM211.965 13.9619C212.948 14.801 213.468 16.0204 213.468 17.7032H214.513C214.513 15.7872 213.909 14.2476 212.643 13.1673L211.965 13.9619ZM213.468 17.7032C213.468 19.3857 212.948 20.6147 211.962 21.4696L212.646 22.259C213.909 21.1645 214.513 19.6194 214.513 17.7032H213.468ZM211.959 21.4718C210.969 22.3415 209.604 22.804 207.805 22.804V23.8486C209.785 23.8486 211.419 23.3363 212.648 22.2567L211.959 21.4718ZM207.805 22.804H205.219V23.8486H207.805V22.804ZM204.696 23.3263V27.8247H205.741V23.3263H204.696ZM205.219 27.3024H200.563V28.347H205.219V27.3024ZM201.085 27.8247V12.1026H200.04V27.8247H201.085ZM206.928 20.1598C207.709 20.1598 208.391 20.0064 208.915 19.6373L208.314 18.783C208.029 18.9837 207.587 19.1152 206.928 19.1152V20.1598ZM208.915 19.6373C209.515 19.2154 209.744 18.511 209.744 17.7032H208.7C208.7 18.3349 208.524 18.6351 208.314 18.783L208.915 19.6373ZM209.744 17.7032C209.744 16.9055 209.512 16.2115 208.915 15.7916L208.314 16.6458C208.527 16.7957 208.7 17.0913 208.7 17.7032H209.744ZM208.915 15.7916C208.391 15.4224 207.709 15.269 206.928 15.269V16.3136C207.587 16.3136 208.029 16.4452 208.314 16.6458L208.915 15.7916ZM206.928 15.269H205.219V16.3136H206.928V15.269ZM204.696 15.7913V19.6375H205.741V15.7913H204.696ZM205.219 20.1598H206.928V19.1152H205.219V20.1598ZM216.025 12.1026V11.5803H215.503V12.1026H216.025ZM227.429 12.1026H227.951V11.5803H227.429V12.1026ZM227.429 16.0163V16.5386H227.951V16.0163H227.429ZM220.681 16.0163V15.494H220.159V16.0163H220.681ZM220.681 18.1755H220.159V18.6978H220.681V18.1755ZM225.539 18.1755H226.062V17.6532H225.539V18.1755ZM225.539 21.7518V22.2741H226.062V21.7518H225.539ZM220.681 21.7518V21.2295H220.159V21.7518H220.681ZM220.681 23.9111H220.159V24.4334H220.681V23.9111ZM227.429 23.9111H227.951V23.3888H227.429V23.9111ZM227.429 27.8247V28.347H227.951V27.8247H227.429ZM216.025 27.8247H215.503V28.347H216.025V27.8247ZM216.025 12.6249H227.429V11.5803H216.025V12.6249ZM226.906 12.1026V16.0163H227.951V12.1026H226.906ZM227.429 15.494H220.681V16.5386H227.429V15.494ZM220.159 16.0163V18.1755H221.203V16.0163H220.159ZM220.681 18.6978H225.539V17.6532H220.681V18.6978ZM225.017 18.1755V21.7518H226.062V18.1755H225.017ZM225.539 21.2295H220.681V22.2741H225.539V21.2295ZM220.159 21.7518V23.9111H221.203V21.7518H220.159ZM220.681 24.4334H227.429V23.3888H220.681V24.4334ZM226.906 23.9111V27.8247H227.951V23.9111H226.906ZM227.429 27.3024H216.025V28.347H227.429V27.3024ZM216.547 27.8247V12.1026H215.503V27.8247H216.547ZM229.445 12.1026V11.5803H228.923V12.1026H229.445ZM241.231 13.5421L240.887 13.9349L240.89 13.9375L241.231 13.5421ZM242.131 20.6497L241.683 20.3809L241.679 20.387L242.131 20.6497ZM240.061 22.539L239.834 22.0688L239.358 22.2987L239.594 22.7718L240.061 22.539ZM242.693 27.8247V28.347H243.536L243.16 27.5919L242.693 27.8247ZM237.925 27.8247L237.457 28.0574L237.601 28.347H237.925V27.8247ZM235.63 23.2138L236.098 22.9811L235.954 22.6915H235.63V23.2138ZM234.101 23.2138V22.6915H233.579V23.2138H234.101ZM234.101 27.8247V28.347H234.623V27.8247H234.101ZM229.445 27.8247H228.923V28.347H229.445V27.8247ZM237.497 19.1202L237.794 19.5496L237.798 19.5473L237.497 19.1202ZM237.497 16.2187L237.189 16.6404L237.198 16.647L237.207 16.6533L237.497 16.2187ZM234.101 15.7913V15.269H233.579V15.7913H234.101ZM234.101 19.5251H233.579V20.0474H234.101V19.5251ZM229.445 12.6249H236.755V11.5803H229.445V12.6249ZM236.755 12.6249C238.556 12.6249 239.913 13.0811 240.887 13.9349L241.575 13.1494C240.36 12.0839 238.732 11.5803 236.755 11.5803V12.6249ZM240.89 13.9375C241.842 14.7594 242.351 15.9705 242.351 17.6582H243.395C243.395 15.7472 242.809 14.2142 241.572 13.1467L240.89 13.9375ZM242.351 17.6582C242.351 18.7536 242.119 19.6533 241.683 20.381L242.578 20.9184C243.132 19.9966 243.395 18.902 243.395 17.6582H242.351ZM241.679 20.387C241.254 21.1173 240.645 21.677 239.834 22.0688L240.289 23.0093C241.277 22.5314 242.047 21.8314 242.582 20.9123L241.679 20.387ZM239.594 22.7718L242.225 28.0575L243.16 27.5919L240.529 22.3062L239.594 22.7718ZM242.693 27.3024H237.925V28.347H242.693V27.3024ZM238.392 27.592L236.098 22.9811L235.163 23.4465L237.457 28.0574L238.392 27.592ZM235.63 22.6915H234.101V23.7361H235.63V22.6915ZM233.579 23.2138V27.8247H234.623V23.2138H233.579ZM234.101 27.3024H229.445V28.347H234.101V27.3024ZM229.967 27.8247V12.1026H228.923V27.8247H229.967ZM235.833 20.0474C236.607 20.0474 237.283 19.9039 237.794 19.5496L237.2 18.6908C236.932 18.8763 236.498 19.0028 235.833 19.0028V20.0474ZM237.798 19.5473C238.392 19.1294 238.627 18.4458 238.627 17.6582H237.582C237.582 18.2502 237.412 18.5412 237.197 18.6931L237.798 19.5473ZM238.627 17.6582C238.627 16.8728 238.392 16.1878 237.787 15.7841L237.207 16.6533C237.412 16.7895 237.582 17.0641 237.582 17.6582H238.627ZM237.805 15.797C237.292 15.4217 236.612 15.269 235.833 15.269V16.3136C236.493 16.3136 236.923 16.4459 237.189 16.6404L237.805 15.797ZM235.833 15.269H234.101V16.3136H235.833V15.269ZM233.579 15.7913V19.5251H234.623V15.7913H233.579ZM234.101 20.0474H235.833V19.0028H234.101V20.0474ZM255.256 27.8472L255.361 27.3356L255.354 27.3342L255.256 27.8472ZM252.782 27.06H252.259V27.376L252.539 27.5226L252.782 27.06ZM252.782 22.9439L253.032 22.4854L252.259 22.0641V22.9439H252.782ZM255.368 23.956L255.241 24.4627L255.243 24.4632L255.368 23.956ZM259.394 22.719L258.996 23.0563L259.01 23.0729L259.025 23.0883L259.394 22.719ZM258.63 22.1792L258.388 22.6422L258.396 22.6464L258.404 22.6503L258.63 22.1792ZM256.988 21.4144L257.198 20.9363L257.195 20.9351L256.988 21.4144ZM253.816 19.3451L253.42 19.6857L253.424 19.6902L253.816 19.3451ZM253.614 14.0819L253.189 13.7784L253.188 13.78L253.614 14.0819ZM255.796 12.3725L256.004 12.8514L256.004 12.8514L255.796 12.3725ZM261.643 12.0127L261.533 12.5233L261.543 12.5252L261.643 12.0127ZM263.87 12.7549H264.393V12.426L264.096 12.2839L263.87 12.7549ZM263.87 16.736L263.618 17.1933L264.393 17.6207V16.736H263.87ZM258.427 15.9263L258.645 16.4011L258.653 16.3974L258.661 16.3935L258.427 15.9263ZM258.36 17.4783L258.07 17.9128L258.082 17.9207L258.094 17.9279L258.36 17.4783ZM260.204 18.3105L260.402 17.8271L260.398 17.8255L260.204 18.3105ZM260.699 18.5129L260.501 18.9963L260.501 18.9964L260.699 18.5129ZM263.15 19.8175L262.834 20.2327L262.84 20.2373L262.846 20.2417L263.15 19.8175ZM264.41 21.302L263.933 21.5153L263.935 21.52L264.41 21.302ZM263.173 26.9025L262.852 26.4902L263.173 26.9025ZM258.292 27.6398C257.324 27.6398 256.347 27.5387 255.361 27.3356L255.15 28.3588C256.203 28.5756 257.251 28.6844 258.292 28.6844V27.6398ZM255.354 27.3342C254.364 27.1449 253.593 26.8952 253.024 26.5973L252.539 27.5226C253.23 27.8845 254.109 28.1597 255.158 28.3602L255.354 27.3342ZM253.304 27.06V22.9439H252.259V27.06H253.304ZM252.531 23.4024C253.395 23.8732 254.298 24.2269 255.241 24.4627L255.495 23.4493C254.639 23.2353 253.818 22.9143 253.032 22.4854L252.531 23.4024ZM255.243 24.4632C256.192 24.6964 257.089 24.8157 257.932 24.8157V23.7711C257.186 23.7711 256.374 23.6655 255.493 23.4488L255.243 24.4632ZM257.932 24.8157C258.539 24.8157 259.075 24.7379 259.477 24.5239C259.685 24.4128 259.869 24.2589 259.999 24.0518C260.129 23.843 260.186 23.6099 260.186 23.3712H259.142C259.142 23.44 259.127 23.4758 259.113 23.4976C259.099 23.521 259.066 23.5593 258.986 23.6019C258.81 23.6953 258.48 23.7711 257.932 23.7711V24.8157ZM260.186 23.3712C260.186 22.9781 260.042 22.6277 259.764 22.3496L259.025 23.0883C259.107 23.1701 259.142 23.2546 259.142 23.3712H260.186ZM259.793 22.3816C259.563 22.1094 259.236 21.8904 258.855 21.708L258.404 22.6503C258.713 22.7978 258.896 22.9386 258.996 23.0563L259.793 22.3816ZM258.871 21.7161C258.51 21.5277 257.949 21.267 257.198 20.9363L256.777 21.8925C257.525 22.2216 258.059 22.4708 258.388 22.6422L258.871 21.7161ZM257.195 20.9351C255.774 20.3199 254.796 19.6679 254.208 19.0001L253.424 19.6902C254.156 20.5218 255.292 21.2494 256.78 21.8937L257.195 20.9351ZM254.212 19.0046C253.659 18.3612 253.371 17.557 253.371 16.5561H252.327C252.327 17.7744 252.684 18.8295 253.42 19.6857L254.212 19.0046ZM253.371 16.5561C253.371 15.7284 253.596 15.0104 254.04 14.3838L253.188 13.78C252.612 14.593 252.327 15.5245 252.327 16.5561H253.371ZM254.039 14.3855C254.502 13.7369 255.15 13.2233 256.004 12.8514L255.587 11.8937C254.582 12.3315 253.775 12.9575 253.189 13.7784L254.039 14.3855ZM256.004 12.8514C256.856 12.4803 257.855 12.2875 259.012 12.2875V11.2429C257.739 11.2429 256.594 11.4551 255.587 11.8937L256.004 12.8514ZM259.012 12.2875C259.974 12.2875 260.813 12.3678 261.533 12.5232L261.754 11.5021C260.945 11.3276 260.029 11.2429 259.012 11.2429V12.2875ZM261.543 12.5252C262.263 12.6664 262.964 12.8996 263.645 13.2259L264.096 12.2839C263.337 11.9204 262.553 11.6588 261.744 11.5001L261.543 12.5252ZM263.348 12.7549V16.736H264.393V12.7549H263.348ZM264.123 16.2787C262.748 15.5203 261.327 15.1341 259.867 15.1341V16.1787C261.135 16.1787 262.383 16.5122 263.618 17.1933L264.123 16.2787ZM259.867 15.1341C259.222 15.1341 258.653 15.2295 258.194 15.4591L258.661 16.3935C258.921 16.2632 259.311 16.1787 259.867 16.1787V15.1341ZM258.209 15.4515C257.971 15.5606 257.756 15.7139 257.6 15.9284C257.44 16.1485 257.365 16.4024 257.365 16.6685H258.41C258.41 16.6048 258.425 16.5701 258.445 16.5428C258.469 16.5099 258.523 16.4569 258.645 16.4011L258.209 15.4515ZM257.365 16.6685C257.365 17.201 257.635 17.6227 258.07 17.9128L258.649 17.0437C258.455 16.914 258.41 16.7958 258.41 16.6685H257.365ZM258.094 17.9279C258.462 18.1457 259.112 18.4361 260.01 18.7954L260.398 17.8255C259.497 17.4651 258.917 17.2007 258.625 17.0286L258.094 17.9279ZM260.006 18.7939L260.501 18.9963L260.897 18.0295L260.402 17.8271L260.006 18.7939ZM260.501 18.9964C261.546 19.423 262.316 19.8374 262.834 20.2327L263.467 19.4023C262.846 18.9279 261.981 18.4725 260.896 18.0294L260.501 18.9964ZM262.846 20.2417C263.367 20.6161 263.722 21.042 263.933 21.5152L264.887 21.0887C264.589 20.4223 264.103 19.8585 263.455 19.3932L262.846 20.2417ZM263.935 21.52C264.149 21.9848 264.27 22.6087 264.27 23.4162H265.315C265.315 22.5144 265.181 21.7287 264.885 21.0839L263.935 21.52ZM264.27 23.4162C264.27 24.7554 263.793 25.7588 262.852 26.4902L263.494 27.3148C264.712 26.3668 265.315 25.0461 265.315 23.4162H264.27ZM262.852 26.4902C261.904 27.2274 260.414 27.6398 258.292 27.6398V28.6844C260.519 28.6844 262.282 28.257 263.494 27.3148L262.852 26.4902ZM269.917 16.0163H270.439V15.494H269.917V16.0163ZM265.688 16.0163H265.166V16.5386H265.688V16.0163ZM265.688 12.1026V11.5803H265.166V12.1026H265.688ZM278.801 12.1026H279.324V11.5803H278.801V12.1026ZM278.801 16.0163V16.5386H279.324V16.0163H278.801ZM274.573 16.0163V15.494H274.05V16.0163H274.573ZM274.573 27.8247V28.347H275.095V27.8247H274.573ZM269.917 27.8247H269.394V28.347H269.917V27.8247ZM269.917 15.494H265.688V16.5386H269.917V15.494ZM266.211 16.0163V12.1026H265.166V16.0163H266.211ZM265.688 12.6249H278.801V11.5803H265.688V12.6249ZM278.279 12.1026V16.0163H279.324V12.1026H278.279ZM278.801 15.494H274.573V16.5386H278.801V15.494ZM274.05 16.0163V27.8247H275.095V16.0163H274.05ZM274.573 27.3024H269.917V28.347H274.573V27.3024ZM270.439 27.8247V16.0163H269.394V27.8247H270.439ZM283.628 27.1274L283.382 27.588L283.384 27.5892L283.628 27.1274ZM280.57 24.2484L280.12 24.514L280.124 24.5204L280.57 24.2484ZM280.57 15.7014L280.122 15.4319L280.12 15.4359L280.57 15.7014ZM283.628 12.7999L283.384 12.3381L283.382 12.3393L283.628 12.7999ZM292.265 12.7999L292.017 13.2592L292.019 13.2604L292.265 12.7999ZM295.302 15.7014L294.852 15.9669L294.855 15.9709L295.302 15.7014ZM295.302 24.2484L294.855 23.9789L294.854 23.9805L295.302 24.2484ZM292.265 27.1274L292.019 26.6669L292.017 26.6681L292.265 27.1274ZM289.836 23.3487L290.085 23.8082L290.089 23.8059L289.836 23.3487ZM291.186 22.0217L291.638 22.2834L291.641 22.2783L291.186 22.0217ZM290.624 17.2084L290.989 16.8351L290.989 16.8351L290.624 17.2084ZM285.27 17.2084L284.909 16.8312L284.905 16.8351L285.27 17.2084ZM284.708 22.0217L284.253 22.2783L284.256 22.2834L284.708 22.0217ZM286.058 23.3487L285.805 23.806L285.814 23.8109L286.058 23.3487ZM287.969 27.6398C286.458 27.6398 285.096 27.3127 283.873 26.6657L283.384 27.5892C284.77 28.3217 286.302 28.6844 287.969 28.6844V27.6398ZM283.875 26.6669C282.666 26.0204 281.716 25.1253 281.015 23.9765L280.124 24.5204C280.923 25.8308 282.012 26.855 283.382 27.588L283.875 26.6669ZM281.019 23.9829C280.337 22.8274 279.99 21.4965 279.99 19.9749H278.945C278.945 21.6622 279.332 23.1803 280.12 24.514L281.019 23.9829ZM279.99 19.9749C279.99 18.4533 280.337 17.1224 281.019 15.9669L280.12 15.4359C279.332 16.7695 278.945 18.2876 278.945 19.9749H279.99ZM281.017 15.9709C281.718 14.8075 282.668 13.9061 283.875 13.2604L283.382 12.3393C282.01 13.0732 280.921 14.1061 280.122 15.4319L281.017 15.9709ZM283.873 13.2616C285.096 12.6147 286.458 12.2875 287.969 12.2875V11.2429C286.302 11.2429 284.77 11.6056 283.384 12.3381L283.873 13.2616ZM287.969 12.2875C289.481 12.2875 290.826 12.6147 292.017 13.2592L292.514 12.3405C291.156 11.6055 289.637 11.2429 287.969 11.2429V12.2875ZM292.019 13.2604C293.225 13.9056 294.167 14.8058 294.852 15.9669L295.752 15.4359C294.968 14.1078 293.885 13.0737 292.512 12.3393L292.019 13.2604ZM294.855 15.9709C295.55 17.1258 295.904 18.4552 295.904 19.9749H296.949C296.949 18.2857 296.553 16.7661 295.749 15.4319L294.855 15.9709ZM295.904 19.9749C295.904 21.4946 295.55 22.824 294.855 23.9789L295.749 24.518C296.553 23.1837 296.949 21.6641 296.949 19.9749H295.904ZM294.854 23.9805C294.169 25.127 293.227 26.0208 292.019 26.6669L292.512 27.588C293.883 26.8545 294.966 25.8291 295.75 24.5164L294.854 23.9805ZM292.017 26.6681C290.826 27.3126 289.481 27.6398 287.969 27.6398V28.6844C289.637 28.6844 291.156 28.3218 292.514 27.5868L292.017 26.6681ZM287.969 24.3209C288.738 24.3209 289.447 24.1531 290.085 23.8082L289.588 22.8893C289.116 23.1442 288.581 23.2763 287.969 23.2763V24.3209ZM290.089 23.8059C290.743 23.4446 291.261 22.9343 291.638 22.2834L290.734 21.76C290.451 22.2488 290.07 22.6231 289.584 22.8916L290.089 23.8059ZM291.641 22.2783C292.021 21.6034 292.203 20.8299 292.203 19.9749H291.158C291.158 20.6794 291.01 21.2704 290.731 21.7651L291.641 22.2783ZM292.203 19.9749C292.203 18.7058 291.811 17.6399 290.989 16.8351L290.258 17.5816C290.845 18.1564 291.158 18.9348 291.158 19.9749H292.203ZM290.989 16.8351C290.178 16.0417 289.159 15.6514 287.969 15.6514V16.696C288.909 16.696 289.659 16.9955 290.258 17.5816L290.989 16.8351ZM287.969 15.6514C286.767 15.6514 285.734 16.0402 284.909 16.8313L285.632 17.5855C286.246 16.997 287.012 16.696 287.969 16.696V15.6514ZM284.905 16.8351C284.083 17.6399 283.691 18.7058 283.691 19.9749H284.736C284.736 18.9348 285.049 18.1564 285.636 17.5816L284.905 16.8351ZM283.691 19.9749C283.691 20.8299 283.872 21.6034 284.253 22.2783L285.163 21.7651C284.884 21.2704 284.736 20.6794 284.736 19.9749H283.691ZM284.256 22.2834C284.633 22.9343 285.151 23.4446 285.805 23.8059L286.31 22.8916C285.824 22.6231 285.443 22.2488 285.16 21.76L284.256 22.2834ZM285.814 23.8109C286.466 24.154 287.188 24.3209 287.969 24.3209V23.2763C287.341 23.2763 286.789 23.1433 286.301 22.8866L285.814 23.8109ZM298.675 12.1026V11.5803H298.152V12.1026H298.675ZM310.46 13.5421L310.116 13.9349L310.119 13.9375L310.46 13.5421ZM311.36 20.6497L310.912 20.3809L310.909 20.387L311.36 20.6497ZM309.291 22.539L309.064 22.0688L308.588 22.2987L308.823 22.7718L309.291 22.539ZM311.922 27.8247V28.347H312.766L312.39 27.5919L311.922 27.8247ZM307.154 27.8247L306.687 28.0574L306.831 28.347H307.154V27.8247ZM304.86 23.2138L305.328 22.9811L305.183 22.6915H304.86V23.2138ZM303.33 23.2138V22.6915H302.808V23.2138H303.33ZM303.33 27.8247V28.347H303.853V27.8247H303.33ZM298.675 27.8247H298.152V28.347H298.675V27.8247ZM306.727 19.1202L307.024 19.5496L307.027 19.5473L306.727 19.1202ZM306.727 16.2187L306.419 16.6404L306.428 16.647L306.437 16.6533L306.727 16.2187ZM303.33 15.7913V15.269H302.808V15.7913H303.33ZM303.33 19.5251H302.808V20.0474H303.33V19.5251ZM298.675 12.6249H305.985V11.5803H298.675V12.6249ZM305.985 12.6249C307.786 12.6249 309.142 13.0811 310.116 13.9349L310.805 13.1494C309.589 12.0839 307.962 11.5803 305.985 11.5803V12.6249ZM310.119 13.9375C311.072 14.7594 311.58 15.9705 311.58 17.6582H312.625C312.625 15.7472 312.039 14.2142 310.802 13.1467L310.119 13.9375ZM311.58 17.6582C311.58 18.7536 311.349 19.6533 310.912 20.381L311.808 20.9184C312.361 19.9966 312.625 18.902 312.625 17.6582H311.58ZM310.909 20.387C310.484 21.1173 309.874 21.677 309.064 22.0688L309.518 23.0093C310.507 22.5314 311.277 21.8314 311.812 20.9123L310.909 20.387ZM308.823 22.7718L311.455 28.0575L312.39 27.5919L309.758 22.3062L308.823 22.7718ZM311.922 27.3024H307.154V28.347H311.922V27.3024ZM307.622 27.592L305.328 22.9811L304.392 23.4465L306.687 28.0574L307.622 27.592ZM304.86 22.6915H303.33V23.7361H304.86V22.6915ZM302.808 23.2138V27.8247H303.853V23.2138H302.808ZM303.33 27.3024H298.675V28.347H303.33V27.3024ZM299.197 27.8247V12.1026H298.152V27.8247H299.197ZM305.062 20.0474C305.837 20.0474 306.512 19.9039 307.024 19.5496L306.429 18.6908C306.161 18.8763 305.727 19.0028 305.062 19.0028V20.0474ZM307.027 19.5473C307.621 19.1294 307.856 18.4458 307.856 17.6582H306.812C306.812 18.2502 306.642 18.5412 306.426 18.6931L307.027 19.5473ZM307.856 17.6582C307.856 16.8728 307.622 16.1878 307.016 15.7841L306.437 16.6533C306.641 16.7895 306.812 17.0641 306.812 17.6582H307.856ZM307.035 15.797C306.521 15.4217 305.841 15.269 305.062 15.269V16.3136C305.723 16.3136 306.152 16.4459 306.419 16.6404L307.035 15.797ZM305.062 15.269H303.33V16.3136H305.062V15.269ZM302.808 15.7913V19.5251H303.853V15.7913H302.808ZM303.33 20.0474H305.062V19.0028H303.33V20.0474ZM314.357 12.1026V11.5803H313.834V12.1026H314.357ZM325.76 12.1026H326.283V11.5803H325.76V12.1026ZM325.76 16.0163V16.5386H326.283V16.0163H325.76ZM319.013 16.0163V15.494H318.49V16.0163H319.013ZM319.013 18.1755H318.49V18.6978H319.013V18.1755ZM323.871 18.1755H324.393V17.6532H323.871V18.1755ZM323.871 21.7518V22.2741H324.393V21.7518H323.871ZM319.013 21.7518V21.2295H318.49V21.7518H319.013ZM319.013 23.9111H318.49V24.4334H319.013V23.9111ZM325.76 23.9111H326.283V23.3888H325.76V23.9111ZM325.76 27.8247V28.347H326.283V27.8247H325.76ZM314.357 27.8247H313.834V28.347H314.357V27.8247ZM314.357 12.6249H325.76V11.5803H314.357V12.6249ZM325.238 12.1026V16.0163H326.283V12.1026H325.238ZM325.76 15.494H319.013V16.5386H325.76V15.494ZM318.49 16.0163V18.1755H319.535V16.0163H318.49ZM319.013 18.6978H323.871V17.6532H319.013V18.6978ZM323.349 18.1755V21.7518H324.393V18.1755H323.349ZM323.871 21.2295H319.013V22.2741H323.871V21.2295ZM318.49 21.7518V23.9111H319.535V21.7518H318.49ZM319.013 24.4334H325.76V23.3888H319.013V24.4334ZM325.238 23.9111V27.8247H326.283V23.9111H325.238ZM325.76 27.3024H314.357V28.347H325.76V27.3024ZM314.879 27.8247V12.1026H313.834V27.8247H314.879Z" fill="white" mask="url(#path-2-outside-1_41_5)"/>
</svg>
