<svg width="558" height="221" viewBox="0 0 558 221" fill="none" xmlns="http://www.w3.org/2000/svg">
<path d="M3.70292 36.2915H37.492C43.787 36.2915 48.8168 37.8653 52.5814 41.0128C56.4078 44.0985 58.3209 48.542 58.3209 54.3433C58.3209 56.9353 57.7346 59.3731 56.562 61.6565C55.4512 63.94 53.8157 65.7914 51.6557 67.2109C54.6797 68.5686 56.8706 70.3584 58.2283 72.5801C59.6478 74.8019 60.3575 77.7025 60.3575 81.282C60.3575 85.2935 59.4009 88.8112 57.4878 91.8353C55.5746 94.7976 52.9826 97.0811 49.7116 98.6857C46.5024 100.229 42.923 101 38.9732 101H3.70292V36.2915ZM32.4931 61.3788C34.5914 61.3788 36.1651 60.9159 37.2143 59.9902C38.3252 59.0645 38.8806 57.5833 38.8806 55.5467C38.8806 53.4484 38.356 51.9981 37.3069 51.1958C36.2577 50.3318 34.6223 49.8998 32.4005 49.8998H22.8655V61.3788H32.4931ZM33.604 87.3918C36.1343 87.3918 37.9857 86.9289 39.1583 86.0032C40.3309 85.0775 40.9172 83.4729 40.9172 81.1894C40.9172 78.9677 40.3001 77.3322 39.0658 76.283C37.8932 75.2339 36.0109 74.7093 33.4188 74.7093H22.8655V87.3918H33.604ZM86.6895 36.2915H105.111L130.939 101H111.314L106.5 88.6878H85.3009L80.3945 101H60.769L86.6895 36.2915ZM102.057 74.1539L95.8542 56.0096L89.6518 74.1539H102.057ZM160.072 36.2915H178.494L204.321 101H184.696L179.882 88.6878H158.683L153.777 101H134.151L160.072 36.2915ZM175.439 74.1539L169.236 56.0096L163.034 74.1539H175.439ZM212.639 36.2915H231.246L251.427 70.1732V36.2915H270.59V101H252.075L231.802 67.1183V101H212.639V36.2915ZM280.778 36.2915H314.567C320.862 36.2915 325.892 37.8653 329.656 41.0128C333.483 44.0985 335.396 48.542 335.396 54.3433C335.396 56.9353 334.81 59.3731 333.637 61.6565C332.526 63.94 330.891 65.7914 328.731 67.2109C331.755 68.5686 333.946 70.3584 335.303 72.5801C336.723 74.8019 337.433 77.7025 337.433 81.282C337.433 85.2935 336.476 88.8112 334.563 91.8353C332.65 94.7976 330.058 97.0811 326.787 98.6857C323.577 100.229 319.998 101 316.048 101H280.778V36.2915ZM309.568 61.3788C311.666 61.3788 313.24 60.9159 314.289 59.9902C315.4 59.0645 315.956 57.5833 315.956 55.5467C315.956 53.4484 315.431 51.9981 314.382 51.1958C313.333 50.3318 311.697 49.8998 309.476 49.8998H299.941V61.3788H309.568ZM310.679 87.3918C313.209 87.3918 315.061 86.9289 316.233 86.0032C317.406 85.0775 317.992 83.4729 317.992 81.1894C317.992 78.9677 317.375 77.3322 316.141 76.283C314.968 75.2339 313.086 74.7093 310.494 74.7093H299.941V87.3918H310.679ZM376.543 102.389C370.001 102.389 364.046 100.969 358.677 98.1302C353.369 95.2913 349.172 91.3416 346.087 86.2809C343.063 81.1585 341.551 75.2956 341.551 68.6921C341.551 62.0885 343.063 56.2256 346.087 51.1032C349.172 45.9808 353.369 42.0002 358.677 39.1613C364.046 36.3224 370.001 34.903 376.543 34.903C383.085 34.903 388.979 36.3224 394.225 39.1613C399.532 42.0002 403.698 45.9808 406.722 51.1032C409.808 56.2256 411.351 62.0885 411.351 68.6921C411.351 75.2956 409.808 81.1585 406.722 86.2809C403.698 91.3416 399.532 95.2913 394.225 98.1302C388.979 100.969 383.085 102.389 376.543 102.389ZM376.543 84.4295C379.382 84.4295 381.943 83.8123 384.227 82.578C386.572 81.282 388.423 79.4614 389.781 77.1162C391.139 74.7093 391.818 71.9013 391.818 68.6921C391.818 63.94 390.367 60.1445 387.467 57.3056C384.566 54.4667 380.925 53.0472 376.543 53.0472C372.1 53.0472 368.397 54.4667 365.434 57.3056C362.534 60.1445 361.083 63.94 361.083 68.6921C361.083 71.9013 361.762 74.7093 363.12 77.1162C364.478 79.4614 366.329 81.282 368.674 82.578C371.02 83.8123 373.643 84.4295 376.543 84.4295ZM452.366 102.389C445.824 102.389 439.869 100.969 434.5 98.1302C429.192 95.2913 424.995 91.3416 421.91 86.2809C418.886 81.1585 417.374 75.2956 417.374 68.6921C417.374 62.0885 418.886 56.2256 421.91 51.1032C424.995 45.9808 429.192 42.0002 434.5 39.1613C439.869 36.3224 445.824 34.903 452.366 34.903C458.908 34.903 464.802 36.3224 470.048 39.1613C475.355 42.0002 479.521 45.9808 482.545 51.1032C485.631 56.2256 487.174 62.0885 487.174 68.6921C487.174 75.2956 485.631 81.1585 482.545 86.2809C479.521 91.3416 475.355 95.2913 470.048 98.1302C464.802 100.969 458.908 102.389 452.366 102.389ZM452.366 84.4295C455.205 84.4295 457.766 83.8123 460.05 82.578C462.395 81.282 464.246 79.4614 465.604 77.1162C466.962 74.7093 467.641 71.9013 467.641 68.6921C467.641 63.94 466.19 60.1445 463.29 57.3056C460.389 54.4667 456.748 53.0472 452.366 53.0472C447.923 53.0472 444.22 54.4667 441.257 57.3056C438.357 60.1445 436.906 63.94 436.906 68.6921C436.906 71.9013 437.585 74.7093 438.943 77.1162C440.301 79.4614 442.152 81.282 444.497 82.578C446.843 83.8123 449.465 84.4295 452.366 84.4295ZM495.5 36.2915H514.107L534.288 70.1732V36.2915H553.451V101H534.936L514.663 67.1183V101H495.5V36.2915Z" fill="#F6F54D"/>
<mask id="path-2-outside-1_17_4" maskUnits="userSpaceOnUse" x="-1" y="128.455" width="560" height="63" fill="black">
<rect fill="white" x="-1" y="128.455" width="560" height="63"/>
<path d="M21.1022 188.649C17.5454 188.649 13.962 188.277 10.352 187.534C6.74209 186.844 3.82229 185.915 1.59262 184.747V170.175C4.51242 171.767 7.56494 172.962 10.7502 173.758C13.9885 174.554 17.0145 174.953 19.8281 174.953C23.9158 174.953 25.9597 173.864 25.9597 171.688C25.9597 170.785 25.6412 170.015 25.0041 169.378C24.4202 168.688 23.5177 168.051 22.2967 167.467C21.0757 166.83 19.138 165.928 16.4836 164.76C11.3341 162.53 7.59149 160.088 5.25564 157.434C2.97289 154.779 1.83151 151.488 1.83151 147.559C1.83151 144.268 2.734 141.348 4.53897 138.8C6.39702 136.199 8.97176 134.181 12.2632 132.748C15.5546 131.315 19.3503 130.598 23.6504 130.598C27.1542 130.598 30.2598 130.89 32.9672 131.474C35.6747 132.005 38.3025 132.881 40.8507 134.102V148.197C36.2321 145.648 31.5073 144.374 26.6764 144.374C24.5529 144.374 22.8541 144.693 21.58 145.33C20.3059 145.914 19.6689 146.79 19.6689 147.958C19.6689 149.126 20.2263 150.081 21.3411 150.824C22.509 151.514 24.6856 152.497 27.8708 153.771L29.6227 154.487C33.3919 156.027 36.2852 157.566 38.3025 159.106C40.3729 160.592 41.8594 162.344 42.7618 164.362C43.6643 166.326 44.1156 168.821 44.1156 171.847C44.1156 177.103 42.2044 181.217 38.3821 184.19C34.5598 187.163 28.7999 188.649 21.1022 188.649ZM77.7372 188.649C71.8976 188.649 67.0402 187.561 63.1648 185.384C59.2894 183.208 56.3961 180.208 54.485 176.386C52.6269 172.564 51.6979 168.184 51.6979 163.247V131.793H68.1815V163.088C68.1815 166.485 68.9778 169.06 70.5705 170.812C72.2162 172.564 74.6051 173.44 77.7372 173.44C80.8694 173.44 83.2318 172.564 84.8244 170.812C86.4701 169.06 87.293 166.485 87.293 163.088V131.793H103.777V163.247C103.777 168.184 102.821 172.564 100.91 176.386C99.0518 180.208 96.1851 183.208 92.3097 185.384C88.4343 187.561 83.5769 188.649 77.7372 188.649ZM112.905 131.793H138.546C145.235 131.793 150.544 133.518 154.472 136.969C158.454 140.366 160.445 145.25 160.445 151.621C160.445 157.991 158.454 162.902 154.472 166.352C150.544 169.803 145.235 171.528 138.546 171.528H129.389V187.455H112.905V131.793ZM135.44 158.469C137.989 158.469 139.979 157.965 141.413 156.956C142.846 155.947 143.563 154.169 143.563 151.621C143.563 149.126 142.846 147.374 141.413 146.365C139.979 145.356 137.989 144.852 135.44 144.852H129.389V158.469H135.44ZM167.648 131.793H208.021V145.648H184.132V153.293H201.332V165.954H184.132V173.599H208.021V187.455H167.648V131.793ZM215.159 131.793H241.039C247.728 131.793 253.01 133.491 256.886 136.889C260.761 140.233 262.699 145.091 262.699 151.461C262.699 155.602 261.823 159.133 260.071 162.052C258.372 164.972 255.93 167.202 252.745 168.741L262.062 187.455H245.18L237.058 171.13H231.643V187.455H215.159V131.793ZM237.774 158.071C240.323 158.071 242.287 157.593 243.667 156.637C245.1 155.629 245.817 153.903 245.817 151.461C245.817 149.019 245.1 147.321 243.667 146.365C242.287 145.356 240.323 144.852 237.774 144.852H231.643V158.071H237.774ZM317.289 188.649C313.732 188.649 310.149 188.277 306.539 187.534C302.929 186.844 300.009 185.915 297.779 184.747V170.175C300.699 171.767 303.752 172.962 306.937 173.758C310.175 174.554 313.201 174.953 316.015 174.953C320.103 174.953 322.146 173.864 322.146 171.688C322.146 170.785 321.828 170.015 321.191 169.378C320.607 168.688 319.704 168.051 318.483 167.467C317.262 166.83 315.325 165.928 312.67 164.76C307.521 162.53 303.778 160.088 301.442 157.434C299.16 154.779 298.018 151.488 298.018 147.559C298.018 144.268 298.921 141.348 300.726 138.8C302.584 136.199 305.159 134.181 308.45 132.748C311.741 131.315 315.537 130.598 319.837 130.598C323.341 130.598 326.447 130.89 329.154 131.474C331.861 132.005 334.489 132.881 337.037 134.102V148.197C332.419 145.648 327.694 144.374 322.863 144.374C320.74 144.374 319.041 144.693 317.767 145.33C316.493 145.914 315.856 146.79 315.856 147.958C315.856 149.126 316.413 150.081 317.528 150.824C318.696 151.514 320.872 152.497 324.058 153.771L325.809 154.487C329.579 156.027 332.472 157.566 334.489 159.106C336.56 160.592 338.046 162.344 338.949 164.362C339.851 166.326 340.302 168.821 340.302 171.847C340.302 177.103 338.391 181.217 334.569 184.19C330.747 187.163 324.987 188.649 317.289 188.649ZM358.445 145.648H343.474V131.793H389.899V145.648H374.928V187.455H358.445V145.648ZM422.358 188.649C416.73 188.649 411.608 187.428 406.989 184.986C402.423 182.544 398.813 179.146 396.159 174.793C393.558 170.387 392.257 165.344 392.257 159.663C392.257 153.983 393.558 148.94 396.159 144.533C398.813 140.127 402.423 136.703 406.989 134.261C411.608 131.819 416.73 130.598 422.358 130.598C427.985 130.598 433.055 131.819 437.567 134.261C442.133 136.703 445.716 140.127 448.317 144.533C450.972 148.94 452.299 153.983 452.299 159.663C452.299 165.344 450.972 170.387 448.317 174.793C445.716 179.146 442.133 182.544 437.567 184.986C433.055 187.428 427.985 188.649 422.358 188.649ZM422.358 173.201C424.8 173.201 427.003 172.67 428.967 171.608C430.984 170.493 432.577 168.927 433.745 166.91C434.913 164.839 435.497 162.424 435.497 159.663C435.497 155.576 434.249 152.311 431.754 149.869C429.259 147.427 426.127 146.206 422.358 146.206C418.535 146.206 415.35 147.427 412.802 149.869C410.307 152.311 409.059 155.576 409.059 159.663C409.059 162.424 409.643 164.839 410.811 166.91C411.979 168.927 413.572 170.493 415.589 171.608C417.606 172.67 419.863 173.201 422.358 173.201ZM460.258 131.793H486.138C492.827 131.793 498.109 133.491 501.984 136.889C505.86 140.233 507.797 145.091 507.797 151.461C507.797 155.602 506.921 159.133 505.17 162.052C503.471 164.972 501.029 167.202 497.844 168.741L507.16 187.455H490.279L482.156 171.13H476.741V187.455H460.258V131.793ZM482.873 158.071C485.421 158.071 487.385 157.593 488.766 156.637C490.199 155.629 490.916 153.903 490.916 151.461C490.916 149.019 490.199 147.321 488.766 146.365C487.385 145.356 485.421 144.852 482.873 144.852H476.741V158.071H482.873ZM515.779 131.793H556.151V145.648H532.262V153.293H549.462V165.954H532.262V173.599H556.151V187.455H515.779V131.793Z"/>
</mask>
<path d="M10.352 187.534L10.7249 185.723L10.7121 185.72L10.6993 185.718L10.352 187.534ZM1.59262 184.747H-0.256516V185.866L0.734608 186.385L1.59262 184.747ZM1.59262 170.175L2.47808 168.551L-0.256516 167.06V170.175H1.59262ZM10.7502 173.758L10.3017 175.552L10.3086 175.554L10.7502 173.758ZM25.0041 169.378L23.5925 170.573L23.6422 170.632L23.6966 170.686L25.0041 169.378ZM22.2967 167.467L21.4413 169.107L21.4698 169.122L21.4989 169.135L22.2967 167.467ZM16.4836 164.76L17.2283 163.067L17.2184 163.063L16.4836 164.76ZM5.25564 157.434L3.85366 158.639L3.86052 158.647L3.86747 158.655L5.25564 157.434ZM4.53897 138.8L3.03425 137.725L3.03003 137.731L4.53897 138.8ZM12.2632 132.748L13.0015 134.443L12.2632 132.748ZM32.9672 131.474L32.5774 133.282L32.5944 133.285L32.6114 133.289L32.9672 131.474ZM40.8507 134.102H42.6998V132.937L41.6497 132.434L40.8507 134.102ZM40.8507 148.197L39.9574 149.816L42.6998 151.329V148.197H40.8507ZM21.58 145.33L22.3504 147.011L22.3789 146.998L22.407 146.984L21.58 145.33ZM21.3411 150.824L20.3154 152.363L20.3572 152.391L20.4004 152.416L21.3411 150.824ZM27.8708 153.771L28.571 152.059L28.5643 152.056L28.5576 152.054L27.8708 153.771ZM29.6227 154.487L28.9226 156.199L28.9235 156.199L29.6227 154.487ZM38.3025 159.106L37.1807 160.576L37.2021 160.592L37.2241 160.608L38.3025 159.106ZM42.7618 164.362L41.0739 165.117L41.0777 165.125L41.0816 165.134L42.7618 164.362ZM38.3821 184.19L37.2469 182.73L38.3821 184.19ZM21.1022 186.8C17.6751 186.8 14.2166 186.442 10.7249 185.723L9.97914 189.345C13.7073 190.113 17.4156 190.498 21.1022 190.498V186.8ZM10.6993 185.718C7.19338 185.048 4.46436 184.164 2.45063 183.109L0.734608 186.385C3.18021 187.666 6.2908 188.64 10.0048 189.35L10.6993 185.718ZM3.44176 184.747V170.175H-0.256516V184.747H3.44176ZM0.707157 171.798C3.76298 173.465 6.96217 174.717 10.3017 175.552L11.1987 171.964C8.16772 171.206 5.26186 170.07 2.47808 168.551L0.707157 171.798ZM10.3086 175.554C13.6656 176.379 16.8413 176.802 19.8281 176.802V173.103C17.1877 173.103 14.3114 172.73 11.1917 171.962L10.3086 175.554ZM19.8281 176.802C21.9757 176.802 23.8732 176.526 25.2959 175.768C26.0348 175.375 26.6849 174.83 27.1438 174.097C27.6066 173.358 27.8088 172.532 27.8088 171.688H24.1106C24.1106 171.931 24.0573 172.058 24.0091 172.135C23.9571 172.218 23.8408 172.353 23.5577 172.504C22.9366 172.835 21.7682 173.103 19.8281 173.103V176.802ZM27.8088 171.688C27.8088 170.296 27.2962 169.055 26.3117 168.071L23.6966 170.686C23.9862 170.975 24.1106 171.275 24.1106 171.688H27.8088ZM26.4157 168.184C25.6004 167.22 24.4446 166.445 23.0945 165.799L21.4989 169.135C22.5907 169.658 23.2399 170.156 23.5925 170.573L26.4157 168.184ZM23.152 165.828C21.8735 165.161 19.8887 164.238 17.2283 163.067L15.7389 166.452C18.3872 167.618 20.2778 168.5 21.4413 169.107L23.152 165.828ZM17.2184 163.063C12.1881 160.885 8.72446 158.576 6.64382 156.212L3.86747 158.655C6.45851 161.6 10.4802 164.175 15.7489 166.457L17.2184 163.063ZM6.65763 156.228C4.69891 153.95 3.68065 151.103 3.68065 147.559H-0.0176232C-0.0176232 151.873 1.24687 155.608 3.85366 158.639L6.65763 156.228ZM3.68065 147.559C3.68065 144.629 4.47662 142.087 6.04791 139.869L3.03003 137.731C0.991374 140.609 -0.0176232 143.907 -0.0176232 147.559H3.68065ZM6.04367 139.875C7.684 137.578 9.9783 135.76 13.0015 134.443L11.5249 131.053C7.96521 132.603 5.11005 134.819 3.03426 137.725L6.04367 139.875ZM13.0015 134.443C16.0186 133.13 19.5551 132.447 23.6504 132.447V128.749C19.1456 128.749 15.0905 129.5 11.5249 131.053L13.0015 134.443ZM23.6504 132.447C27.0558 132.447 30.0265 132.731 32.5774 133.282L33.3571 129.666C30.4931 129.049 27.2525 128.749 23.6504 128.749V132.447ZM32.6114 133.289C35.1618 133.789 37.641 134.614 40.0516 135.769L41.6497 132.434C38.964 131.147 36.1875 130.221 33.323 129.659L32.6114 133.289ZM39.0016 134.102V148.197H42.6998V134.102H39.0016ZM41.744 146.577C36.8776 143.893 31.8479 142.525 26.6764 142.525V146.223C31.1667 146.223 35.5866 147.404 39.9574 149.816L41.744 146.577ZM26.6764 142.525C24.3951 142.525 22.3788 142.863 20.753 143.676L22.407 146.984C23.3294 146.523 24.7107 146.223 26.6764 146.223V142.525ZM20.8095 143.649C19.9666 144.035 19.2035 144.578 18.6512 145.337C18.0845 146.116 17.8197 147.015 17.8197 147.958H21.518C21.518 147.732 21.5718 147.609 21.6421 147.512C21.7268 147.396 21.9193 147.208 22.3504 147.011L20.8095 143.649ZM17.8197 147.958C17.8197 149.843 18.7744 151.336 20.3154 152.363L22.3668 149.286C21.6782 148.827 21.518 148.408 21.518 147.958H17.8197ZM20.4004 152.416C21.7051 153.187 24.004 154.216 27.1841 155.488L28.5576 152.054C25.3673 150.778 23.313 149.842 22.2818 149.232L20.4004 152.416ZM27.1707 155.482L28.9226 156.199L30.3229 152.776L28.571 152.059L27.1707 155.482ZM28.9235 156.199C32.621 157.709 35.3468 159.176 37.1807 160.576L39.4243 157.636C37.2236 155.956 34.1629 154.344 30.3219 152.776L28.9235 156.199ZM37.2241 160.608C39.0701 161.933 40.3243 163.441 41.0739 165.117L44.4498 163.606C43.3944 161.247 41.6757 159.251 39.3809 157.604L37.2241 160.608ZM41.0816 165.134C41.8376 166.779 42.2664 168.988 42.2664 171.847H45.9647C45.9647 168.654 45.491 165.873 44.4421 163.59L41.0816 165.134ZM42.2664 171.847C42.2664 176.588 40.5763 180.141 37.2469 182.73L39.5174 185.649C43.8326 182.293 45.9647 177.617 45.9647 171.847H42.2664ZM37.2469 182.73C33.8912 185.34 28.6148 186.8 21.1022 186.8V190.498C28.985 190.498 35.2285 188.985 39.5174 185.649L37.2469 182.73ZM54.485 176.386L52.8219 177.194L52.8265 177.204L52.8311 177.213L54.485 176.386ZM51.6979 131.793V129.943H49.8488V131.793H51.6979ZM68.1815 131.793H70.0307V129.943H68.1815V131.793ZM70.5705 170.812L69.2022 172.056L69.2124 172.067L69.2227 172.078L70.5705 170.812ZM84.8244 170.812L83.4767 169.546L83.4663 169.557L83.4562 169.568L84.8244 170.812ZM87.293 131.793V129.943H85.4438V131.793H87.293ZM103.777 131.793H105.626V129.943H103.777V131.793ZM100.91 176.386L99.256 175.559L99.2513 175.568L99.2468 175.577L100.91 176.386ZM92.3097 185.384L91.4042 183.772L92.3097 185.384ZM77.7373 186.8C72.1183 186.8 67.5957 185.752 64.0703 183.772L62.2593 186.996C66.4846 189.37 71.677 190.498 77.7373 190.498V186.8ZM64.0703 183.772C60.5036 181.769 57.8778 179.037 56.1389 175.559L52.8311 177.213C54.9145 181.38 58.0752 184.646 62.2593 186.996L64.0703 183.772ZM56.1481 175.577C54.4308 172.045 53.5471 167.949 53.5471 163.247H49.8488C49.8488 168.419 50.8231 173.082 52.8219 177.194L56.1481 175.577ZM53.5471 163.247V131.793H49.8488V163.247H53.5471ZM51.6979 133.642H68.1815V129.943H51.6979V133.642ZM66.3324 131.793V163.088H70.0307V131.793H66.3324ZM66.3324 163.088C66.3324 166.747 67.1886 169.841 69.2022 172.056L71.9387 169.568C70.7671 168.279 70.0307 166.223 70.0307 163.088H66.3324ZM69.2227 172.078C71.3156 174.306 74.2574 175.289 77.7373 175.289V171.59C74.9528 171.59 73.1167 170.822 71.9182 169.546L69.2227 172.078ZM77.7373 175.289C81.2134 175.289 84.146 174.307 86.1927 172.056L83.4562 169.568C82.3176 170.82 80.5254 171.59 77.7373 171.59V175.289ZM86.1721 172.078C88.2523 169.863 89.1421 166.761 89.1421 163.088H85.4438C85.4438 166.21 84.6879 168.256 83.4767 169.546L86.1721 172.078ZM89.1421 163.088V131.793H85.4438V163.088H89.1421ZM87.293 133.642H103.777V129.943H87.293V133.642ZM101.927 131.793V163.247H105.626V131.793H101.927ZM101.927 163.247C101.927 167.941 101.02 172.031 99.256 175.559L102.564 177.213C104.622 173.097 105.626 168.426 105.626 163.247H101.927ZM99.2468 175.577C97.5613 179.045 94.967 181.771 91.4042 183.772L93.2152 186.996C97.4031 184.644 100.542 181.372 102.573 177.194L99.2468 175.577ZM91.4042 183.772C87.8788 185.752 83.3562 186.8 77.7373 186.8V190.498C83.7975 190.498 88.9899 189.37 93.2152 186.996L91.4042 183.772ZM112.905 131.793V129.943H111.056V131.793H112.905ZM154.472 136.969L153.252 138.358L153.262 138.367L153.272 138.375L154.472 136.969ZM154.472 166.352L153.261 164.955L153.252 164.963L154.472 166.352ZM129.389 171.528V169.679H127.539V171.528H129.389ZM129.389 187.455V189.304H131.238V187.455H129.389ZM112.905 187.455H111.056V189.304H112.905V187.455ZM141.413 156.956L142.477 158.468V158.468L141.413 156.956ZM141.413 146.365L142.477 144.853V144.853L141.413 146.365ZM129.389 144.852V143.003H127.539V144.852H129.389ZM129.389 158.469H127.539V160.318H129.389V158.469ZM112.905 133.642H138.546V129.943H112.905V133.642ZM138.546 133.642C144.915 133.642 149.747 135.279 153.252 138.358L155.693 135.579C151.341 131.757 145.555 129.943 138.546 129.943V133.642ZM153.272 138.375C156.753 141.346 158.595 145.663 158.595 151.621H162.294C162.294 144.837 160.154 139.386 155.673 135.562L153.272 138.375ZM158.595 151.621C158.595 157.577 156.753 161.929 153.261 164.955L155.683 167.75C160.154 163.875 162.294 158.405 162.294 151.621H158.595ZM153.252 164.963C149.747 168.042 144.915 169.679 138.546 169.679V173.378C145.555 173.378 151.341 171.564 155.693 167.742L153.252 164.963ZM138.546 169.679H129.389V173.378H138.546V169.679ZM127.539 171.528V187.455H131.238V171.528H127.539ZM129.389 185.605H112.905V189.304H129.389V185.605ZM114.754 187.455V131.793H111.056V187.455H114.754ZM135.44 160.318C138.204 160.318 140.62 159.775 142.477 158.468L140.349 155.444C139.339 156.154 137.773 156.62 135.44 156.62V160.318ZM142.477 158.468C144.6 156.974 145.412 154.481 145.412 151.621H141.714C141.714 153.857 141.093 154.92 140.349 155.444L142.477 158.468ZM145.412 151.621C145.412 148.797 144.59 146.34 142.477 144.853L140.349 147.877C141.102 148.408 141.714 149.454 141.714 151.621H145.412ZM142.477 144.853C140.62 143.546 138.204 143.003 135.44 143.003V146.701C137.773 146.701 139.339 147.167 140.349 147.877L142.477 144.853ZM135.44 143.003H129.389V146.701H135.44V143.003ZM127.539 144.852V158.469H131.238V144.852H127.539ZM129.389 160.318H135.44V156.62H129.389V160.318ZM167.648 131.793V129.943H165.799V131.793H167.648ZM208.021 131.793H209.87V129.943H208.021V131.793ZM208.021 145.648V147.497H209.87V145.648H208.021ZM184.132 145.648V143.799H182.283V145.648H184.132ZM184.132 153.293H182.283V155.142H184.132V153.293ZM201.332 153.293H203.181V151.444H201.332V153.293ZM201.332 165.954V167.803H203.181V165.954H201.332ZM184.132 165.954V164.105H182.283V165.954H184.132ZM184.132 173.599H182.283V175.448H184.132V173.599ZM208.021 173.599H209.87V171.75H208.021V173.599ZM208.021 187.455V189.304H209.87V187.455H208.021ZM167.648 187.455H165.799V189.304H167.648V187.455ZM167.648 133.642H208.021V129.943H167.648V133.642ZM206.172 131.793V145.648H209.87V131.793H206.172ZM208.021 143.799H184.132V147.497H208.021V143.799ZM182.283 145.648V153.293H185.981V145.648H182.283ZM184.132 155.142H201.332V151.444H184.132V155.142ZM199.483 153.293V165.954H203.181V153.293H199.483ZM201.332 164.105H184.132V167.803H201.332V164.105ZM182.283 165.954V173.599H185.981V165.954H182.283ZM184.132 175.448H208.021V171.75H184.132V175.448ZM206.172 173.599V187.455H209.87V173.599H206.172ZM208.021 185.605H167.648V189.304H208.021V185.605ZM169.497 187.455V131.793H165.799V187.455H169.497ZM215.159 131.793V129.943H213.31V131.793H215.159ZM256.886 136.889L255.667 138.279L255.672 138.284L255.678 138.289L256.886 136.889ZM260.071 162.052L258.485 161.101L258.479 161.112L258.473 161.122L260.071 162.052ZM252.745 168.741L251.94 167.076L250.256 167.891L251.09 169.565L252.745 168.741ZM262.062 187.455V189.304H265.048L263.717 186.63L262.062 187.455ZM245.18 187.455L243.525 188.278L244.035 189.304H245.18V187.455ZM237.058 171.13L238.713 170.307L238.203 169.281H237.058V171.13ZM231.643 171.13V169.281H229.794V171.13H231.643ZM231.643 187.455V189.304H233.492V187.455H231.643ZM215.159 187.455H213.31V189.304H215.159V187.455ZM243.667 156.637L244.72 158.158L244.725 158.154L244.731 158.15L243.667 156.637ZM243.667 146.365L242.576 147.858L242.608 147.881L242.641 147.904L243.667 146.365ZM231.643 144.852V143.003H229.794V144.852H231.643ZM231.643 158.071H229.794V159.92H231.643V158.071ZM215.159 133.642H241.039V129.943H215.159V133.642ZM241.039 133.642C247.416 133.642 252.219 135.257 255.667 138.279L258.105 135.498C253.802 131.726 248.04 129.943 241.039 129.943V133.642ZM255.678 138.289C259.049 141.199 260.85 145.486 260.85 151.461H264.548C264.548 144.696 262.473 139.268 258.094 135.489L255.678 138.289ZM260.85 151.461C260.85 155.339 260.031 158.525 258.485 161.101L261.657 163.004C263.615 159.74 264.548 155.865 264.548 151.461H260.85ZM258.473 161.122C256.968 163.708 254.81 165.689 251.94 167.076L253.55 170.406C257.05 168.714 259.776 166.236 261.669 162.982L258.473 161.122ZM251.09 169.565L260.406 188.279L263.717 186.63L254.4 167.917L251.09 169.565ZM262.062 185.605H245.18V189.304H262.062V185.605ZM246.836 186.631L238.713 170.307L235.402 171.954L243.525 188.278L246.836 186.631ZM237.058 169.281H231.643V172.979H237.058V169.281ZM229.794 171.13V187.455H233.492V171.13H229.794ZM231.643 185.605H215.159V189.304H231.643V185.605ZM217.008 187.455V131.793H213.31V187.455H217.008ZM237.774 159.92C240.516 159.92 242.908 159.412 244.72 158.158L242.615 155.117C241.666 155.774 240.129 156.222 237.774 156.222V159.92ZM244.731 158.15C246.834 156.67 247.666 154.25 247.666 151.461H243.968C243.968 153.557 243.367 154.588 242.603 155.125L244.731 158.15ZM247.666 151.461C247.666 148.681 246.836 146.255 244.693 144.826L242.641 147.904C243.365 148.386 243.968 149.358 243.968 151.461H247.666ZM244.758 144.872C242.94 143.543 240.532 143.003 237.774 143.003V146.701C240.113 146.701 241.634 147.169 242.576 147.858L244.758 144.872ZM237.774 143.003H231.643V146.701H237.774V143.003ZM229.794 144.852V158.071H233.492V144.852H229.794ZM231.643 159.92H237.774V156.222H231.643V159.92ZM306.539 187.534L306.912 185.723L306.899 185.72L306.886 185.718L306.539 187.534ZM297.779 184.747H295.93V185.866L296.921 186.385L297.779 184.747ZM297.779 170.175L298.665 168.551L295.93 167.06V170.175H297.779ZM306.937 173.758L306.488 175.552L306.495 175.554L306.937 173.758ZM321.191 169.378L319.779 170.573L319.829 170.632L319.883 170.686L321.191 169.378ZM318.483 167.467L317.628 169.107L317.657 169.122L317.686 169.135L318.483 167.467ZM312.67 164.76L313.415 163.067L313.405 163.063L312.67 164.76ZM301.442 157.434L300.04 158.639L300.047 158.647L300.054 158.655L301.442 157.434ZM300.726 138.8L299.221 137.725L299.217 137.731L300.726 138.8ZM308.45 132.748L309.188 134.443L308.45 132.748ZM329.154 131.474L328.764 133.282L328.781 133.285L328.798 133.289L329.154 131.474ZM337.037 134.102H338.887V132.937L337.837 132.434L337.037 134.102ZM337.037 148.197L336.144 149.816L338.887 151.329V148.197H337.037ZM317.767 145.33L318.537 147.011L318.566 146.998L318.594 146.984L317.767 145.33ZM317.528 150.824L316.502 152.363L316.544 152.391L316.587 152.416L317.528 150.824ZM324.058 153.771L324.758 152.059L324.751 152.056L324.744 152.054L324.058 153.771ZM325.809 154.487L325.109 156.199L325.11 156.199L325.809 154.487ZM334.489 159.106L333.367 160.576L333.389 160.592L333.411 160.608L334.489 159.106ZM338.949 164.362L337.261 165.117L337.264 165.125L337.268 165.134L338.949 164.362ZM334.569 184.19L333.434 182.73L334.569 184.19ZM317.289 186.8C313.862 186.8 310.403 186.442 306.912 185.723L306.166 189.345C309.894 190.113 313.602 190.498 317.289 190.498V186.8ZM306.886 185.718C303.38 185.048 300.651 184.164 298.637 183.109L296.921 186.385C299.367 187.666 302.478 188.64 306.192 189.35L306.886 185.718ZM299.629 184.747V170.175H295.93V184.747H299.629ZM296.894 171.798C299.95 173.465 303.149 174.717 306.488 175.552L307.385 171.964C304.354 171.206 301.449 170.07 298.665 168.551L296.894 171.798ZM306.495 175.554C309.852 176.379 313.028 176.802 316.015 176.802V173.103C313.374 173.103 310.498 172.73 307.379 171.962L306.495 175.554ZM316.015 176.802C318.162 176.802 320.06 176.526 321.483 175.768C322.222 175.375 322.872 174.83 323.331 174.097C323.793 173.358 323.996 172.532 323.996 171.688H320.297C320.297 171.931 320.244 172.058 320.196 172.135C320.144 172.218 320.028 172.353 319.744 172.504C319.123 172.835 317.955 173.103 316.015 173.103V176.802ZM323.996 171.688C323.996 170.296 323.483 169.055 322.498 168.071L319.883 170.686C320.173 170.975 320.297 171.275 320.297 171.688H323.996ZM322.603 168.184C321.787 167.22 320.631 166.445 319.281 165.799L317.686 169.135C318.778 169.658 319.427 170.156 319.779 170.573L322.603 168.184ZM319.339 165.828C318.06 165.161 316.075 164.238 313.415 163.067L311.926 166.452C314.574 167.618 316.465 168.5 317.628 169.107L319.339 165.828ZM313.405 163.063C308.375 160.885 304.911 158.576 302.831 156.212L300.054 158.655C302.645 161.6 306.667 164.175 311.936 166.457L313.405 163.063ZM302.844 156.228C300.886 153.95 299.867 151.103 299.867 147.559H296.169C296.169 151.873 297.434 155.608 300.04 158.639L302.844 156.228ZM299.867 147.559C299.867 144.629 300.663 142.087 302.235 139.869L299.217 137.731C297.178 140.609 296.169 143.907 296.169 147.559H299.867ZM302.23 139.875C303.871 137.578 306.165 135.76 309.188 134.443L307.712 131.053C304.152 132.603 301.297 134.819 299.221 137.725L302.23 139.875ZM309.188 134.443C312.205 133.13 315.742 132.447 319.837 132.447V128.749C315.332 128.749 311.277 129.5 307.712 131.053L309.188 134.443ZM319.837 132.447C323.243 132.447 326.213 132.731 328.764 133.282L329.544 129.666C326.68 129.049 323.439 128.749 319.837 128.749V132.447ZM328.798 133.289C331.349 133.789 333.828 134.614 336.238 135.769L337.837 132.434C335.151 131.147 332.374 130.221 329.51 129.659L328.798 133.289ZM335.188 134.102V148.197H338.887V134.102H335.188ZM337.931 146.577C333.064 143.893 328.035 142.525 322.863 142.525V146.223C327.354 146.223 331.773 147.404 336.144 149.816L337.931 146.577ZM322.863 142.525C320.582 142.525 318.566 142.863 316.94 143.676L318.594 146.984C319.516 146.523 320.897 146.223 322.863 146.223V142.525ZM316.996 143.649C316.153 144.035 315.39 144.578 314.838 145.337C314.271 146.116 314.006 147.015 314.006 147.958H317.705C317.705 147.732 317.759 147.609 317.829 147.512C317.914 147.396 318.106 147.208 318.537 147.011L316.996 143.649ZM314.006 147.958C314.006 149.843 314.961 151.336 316.502 152.363L318.554 149.286C317.865 148.827 317.705 148.408 317.705 147.958H314.006ZM316.587 152.416C317.892 153.187 320.191 154.216 323.371 155.488L324.744 152.054C321.554 150.778 319.5 149.842 318.469 149.232L316.587 152.416ZM323.357 155.482L325.109 156.199L326.51 152.776L324.758 152.059L323.357 155.482ZM325.11 156.199C328.808 157.709 331.534 159.176 333.367 160.576L335.611 157.636C333.41 155.956 330.35 154.344 326.509 152.776L325.11 156.199ZM333.411 160.608C335.257 161.933 336.511 163.441 337.261 165.117L340.637 163.606C339.581 161.247 337.862 159.251 335.568 157.604L333.411 160.608ZM337.268 165.134C338.024 166.779 338.453 168.988 338.453 171.847H342.151C342.151 168.654 341.678 165.873 340.629 163.59L337.268 165.134ZM338.453 171.847C338.453 176.588 336.763 180.141 333.434 182.73L335.704 185.649C340.019 182.293 342.151 177.617 342.151 171.847H338.453ZM333.434 182.73C330.078 185.34 324.802 186.8 317.289 186.8V190.498C325.172 190.498 331.415 188.985 335.704 185.649L333.434 182.73ZM358.445 145.648H360.294V143.799H358.445V145.648ZM343.474 145.648H341.625V147.497H343.474V145.648ZM343.474 131.793V129.943H341.625V131.793H343.474ZM389.899 131.793H391.748V129.943H389.899V131.793ZM389.899 145.648V147.497H391.748V145.648H389.899ZM374.928 145.648V143.799H373.079V145.648H374.928ZM374.928 187.455V189.304H376.777V187.455H374.928ZM358.445 187.455H356.595V189.304H358.445V187.455ZM358.445 143.799H343.474V147.497H358.445V143.799ZM345.323 145.648V131.793H341.625V145.648H345.323ZM343.474 133.642H389.899V129.943H343.474V133.642ZM388.05 131.793V145.648H391.748V131.793H388.05ZM389.899 143.799H374.928V147.497H389.899V143.799ZM373.079 145.648V187.455H376.777V145.648H373.079ZM374.928 185.605H358.445V189.304H374.928V185.605ZM360.294 187.455V145.648H356.595V187.455H360.294ZM406.989 184.986L406.117 186.617L406.125 186.621L406.989 184.986ZM396.159 174.793L394.567 175.733L394.573 175.745L394.58 175.756L396.159 174.793ZM396.159 144.533L394.575 143.579L394.571 143.586L394.567 143.593L396.159 144.533ZM406.989 134.261L406.125 132.626L406.117 132.631L406.989 134.261ZM437.567 134.261L436.687 135.887L436.695 135.892L437.567 134.261ZM448.317 144.533L446.725 145.474L446.729 145.481L446.733 145.488L448.317 144.533ZM448.317 174.793L446.733 173.839L446.73 173.845L448.317 174.793ZM437.567 184.986L436.695 183.355L436.687 183.36L437.567 184.986ZM428.967 171.608L429.846 173.235L429.854 173.231L429.861 173.226L428.967 171.608ZM433.745 166.91L435.345 167.836L435.35 167.827L435.355 167.818L433.745 166.91ZM431.754 149.869L433.048 148.547L431.754 149.869ZM412.802 149.869L411.523 148.534L411.516 148.54L411.509 148.547L412.802 149.869ZM410.811 166.91L409.201 167.818L409.206 167.827L409.211 167.836L410.811 166.91ZM415.589 171.608L414.695 173.226L414.711 173.236L414.728 173.244L415.589 171.608ZM422.358 186.8C417.008 186.8 412.185 185.642 407.853 183.351L406.125 186.621C411.03 189.214 416.453 190.498 422.358 190.498V186.8ZM407.861 183.355C403.582 181.067 400.218 177.898 397.738 173.831L394.58 175.756C397.409 180.395 401.265 184.021 406.117 186.617L407.861 183.355ZM397.751 173.853C395.336 169.762 394.106 165.05 394.106 159.663H390.408C390.408 165.637 391.779 171.012 394.567 175.733L397.751 173.853ZM394.106 159.663C394.106 154.276 395.336 149.564 397.751 145.474L394.567 143.593C391.779 148.315 390.408 153.69 390.408 159.663H394.106ZM397.743 145.488C400.224 141.369 403.587 138.178 407.861 135.892L406.117 132.631C401.259 135.229 397.403 138.886 394.575 143.579L397.743 145.488ZM407.853 135.896C412.185 133.605 417.008 132.447 422.358 132.447V128.749C416.453 128.749 411.03 130.033 406.125 132.626L407.853 135.896ZM422.358 132.447C427.708 132.447 432.471 133.605 436.687 135.887L438.447 132.635C433.639 130.033 428.262 128.749 422.358 128.749V132.447ZM436.695 135.892C440.966 138.176 444.298 141.363 446.725 145.474L449.91 143.593C447.134 138.892 443.3 135.23 438.439 132.631L436.695 135.892ZM446.733 145.488C449.197 149.576 450.45 154.283 450.45 159.663H454.148C454.148 153.683 452.747 148.303 449.901 143.579L446.733 145.488ZM450.45 159.663C450.45 165.044 449.197 169.75 446.733 173.839L449.901 175.747C452.747 171.024 454.148 165.644 454.148 159.663H450.45ZM446.73 173.845C444.305 177.904 440.971 181.068 436.695 183.355L438.439 186.617C443.294 184.02 447.128 180.389 449.905 175.742L446.73 173.845ZM436.687 183.36C432.471 185.642 427.708 186.8 422.358 186.8V190.498C428.262 190.498 433.639 189.214 438.447 186.612L436.687 183.36ZM422.358 175.05C425.077 175.05 427.587 174.456 429.846 173.235L428.088 169.981C426.418 170.884 424.522 171.352 422.358 171.352V175.05ZM429.861 173.226C432.176 171.947 434.011 170.141 435.345 167.836L432.145 165.983C431.143 167.714 429.793 169.039 428.073 169.99L429.861 173.226ZM435.355 167.818C436.703 165.429 437.346 162.69 437.346 159.663H433.648C433.648 162.157 433.122 164.25 432.134 166.001L435.355 167.818ZM437.346 159.663C437.346 155.17 435.959 151.397 433.048 148.547L430.461 151.19C432.54 153.225 433.648 155.981 433.648 159.663H437.346ZM433.048 148.547C430.178 145.738 426.568 144.357 422.358 144.357V148.055C425.686 148.055 428.34 149.115 430.461 151.19L433.048 148.547ZM422.358 144.357C418.102 144.357 414.445 145.733 411.523 148.534L414.081 151.204C416.255 149.121 418.969 148.055 422.358 148.055V144.357ZM411.509 148.547C408.597 151.397 407.21 155.17 407.21 159.663H410.908C410.908 155.981 412.016 153.225 414.095 151.19L411.509 148.547ZM407.21 159.663C407.21 162.69 407.853 165.429 409.201 167.818L412.422 166.001C411.434 164.25 410.908 162.157 410.908 159.663H407.21ZM409.211 167.836C410.545 170.141 412.38 171.947 414.695 173.226L416.483 169.99C414.763 169.039 413.413 167.714 412.411 165.983L409.211 167.836ZM414.728 173.244C417.035 174.459 419.591 175.05 422.358 175.05V171.352C420.134 171.352 418.178 170.881 416.45 169.972L414.728 173.244ZM460.258 131.793V129.943H458.409V131.793H460.258ZM501.984 136.889L500.765 138.279L500.771 138.284L500.776 138.289L501.984 136.889ZM505.17 162.052L503.584 161.101L503.578 161.112L503.571 161.122L505.17 162.052ZM497.844 168.741L497.039 167.076L495.354 167.891L496.188 169.565L497.844 168.741ZM507.16 187.455V189.304H510.147L508.816 186.63L507.16 187.455ZM490.279 187.455L488.623 188.278L489.133 189.304H490.279V187.455ZM482.156 171.13L483.812 170.307L483.302 169.281H482.156V171.13ZM476.741 171.13V169.281H474.892V171.13H476.741ZM476.741 187.455V189.304H478.59V187.455H476.741ZM460.258 187.455H458.409V189.304H460.258V187.455ZM488.766 156.637L489.818 158.158L489.824 158.154L489.83 158.15L488.766 156.637ZM488.766 146.365L487.675 147.858L487.707 147.881L487.74 147.904L488.766 146.365ZM476.741 144.852V143.003H474.892V144.852H476.741ZM476.741 158.071H474.892V159.92H476.741V158.071ZM460.258 133.642H486.138V129.943H460.258V133.642ZM486.138 133.642C492.515 133.642 497.317 135.257 500.765 138.279L503.203 135.498C498.9 131.726 493.139 129.943 486.138 129.943V133.642ZM500.776 138.289C504.148 141.199 505.948 145.486 505.948 151.461H509.647C509.647 144.696 507.572 139.268 503.192 135.489L500.776 138.289ZM505.948 151.461C505.948 155.339 505.13 158.525 503.584 161.101L506.755 163.004C508.713 159.74 509.647 155.865 509.647 151.461H505.948ZM503.571 161.122C502.067 163.708 499.909 165.689 497.039 167.076L498.648 170.406C502.149 168.714 504.875 166.236 506.768 162.982L503.571 161.122ZM496.188 169.565L505.505 188.279L508.816 186.63L499.499 167.917L496.188 169.565ZM507.16 185.605H490.279V189.304H507.16V185.605ZM491.934 186.631L483.812 170.307L480.501 171.954L488.623 188.278L491.934 186.631ZM482.156 169.281H476.741V172.979H482.156V169.281ZM474.892 171.13V187.455H478.59V171.13H474.892ZM476.741 185.605H460.258V189.304H476.741V185.605ZM462.107 187.455V131.793H458.409V187.455H462.107ZM482.873 159.92C485.615 159.92 488.006 159.412 489.818 158.158L487.713 155.117C486.764 155.774 485.228 156.222 482.873 156.222V159.92ZM489.83 158.15C491.932 156.67 492.765 154.25 492.765 151.461H489.066C489.066 153.557 488.465 154.588 487.701 155.125L489.83 158.15ZM492.765 151.461C492.765 148.681 491.935 146.255 489.791 144.826L487.74 147.904C488.463 148.386 489.066 149.358 489.066 151.461H492.765ZM489.857 144.872C488.038 143.543 485.631 143.003 482.873 143.003V146.701C485.212 146.701 486.732 147.169 487.675 147.858L489.857 144.872ZM482.873 143.003H476.741V146.701H482.873V143.003ZM474.892 144.852V158.071H478.59V144.852H474.892ZM476.741 159.92H482.873V156.222H476.741V159.92ZM515.779 131.793V129.943H513.929V131.793H515.779ZM556.151 131.793H558.001V129.943H556.151V131.793ZM556.151 145.648V147.497H558.001V145.648H556.151ZM532.262 145.648V143.799H530.413V145.648H532.262ZM532.262 153.293H530.413V155.142H532.262V153.293ZM549.462 153.293H551.312V151.444H549.462V153.293ZM549.462 165.954V167.803H551.312V165.954H549.462ZM532.262 165.954V164.105H530.413V165.954H532.262ZM532.262 173.599H530.413V175.448H532.262V173.599ZM556.151 173.599H558.001V171.75H556.151V173.599ZM556.151 187.455V189.304H558.001V187.455H556.151ZM515.779 187.455H513.929V189.304H515.779V187.455ZM515.779 133.642H556.151V129.943H515.779V133.642ZM554.302 131.793V145.648H558.001V131.793H554.302ZM556.151 143.799H532.262V147.497H556.151V143.799ZM530.413 145.648V153.293H534.111V145.648H530.413ZM532.262 155.142H549.462V151.444H532.262V155.142ZM547.613 153.293V165.954H551.312V153.293H547.613ZM549.462 164.105H532.262V167.803H549.462V164.105ZM530.413 165.954V173.599H534.111V165.954H530.413ZM532.262 175.448H556.151V171.75H532.262V175.448ZM554.302 173.599V187.455H558.001V173.599H554.302ZM556.151 185.605H515.779V189.304H556.151V185.605ZM517.628 187.455V131.793H513.929V187.455H517.628Z" fill="white" mask="url(#path-2-outside-1_17_4)"/>
</svg>
