<svg width="327" height="40" viewBox="0 0 327 40" fill="none" xmlns="http://www.w3.org/2000/svg">
<path d="M1.04591 10.7227H10.5899C12.3679 10.7227 13.7886 11.1672 14.8519 12.0562C15.9327 12.9278 16.4731 14.1829 16.4731 15.8215C16.4731 16.5537 16.3075 17.2422 15.9763 17.8872C15.6625 18.5322 15.2006 19.0551 14.5905 19.4561C15.4446 19.8396 16.0635 20.3451 16.447 20.9726C16.8479 21.6002 17.0484 22.4195 17.0484 23.4305C17.0484 24.5636 16.7782 25.5572 16.2378 26.4114C15.6974 27.2481 14.9652 27.8931 14.0414 28.3463C13.1349 28.7821 12.1239 29 11.0082 29H1.04591V10.7227ZM9.17787 17.8087C9.77055 17.8087 10.2151 17.678 10.5114 17.4165C10.8252 17.1551 10.9821 16.7367 10.9821 16.1614C10.9821 15.5688 10.8339 15.1591 10.5376 14.9325C10.2412 14.6884 9.77927 14.5664 9.15172 14.5664H6.4585V17.8087H9.17787ZM9.49164 25.1563C10.2064 25.1563 10.7293 25.0255 11.0605 24.7641C11.3917 24.5026 11.5573 24.0494 11.5573 23.4044C11.5573 22.7768 11.383 22.3149 11.0344 22.0185C10.7032 21.7222 10.1715 21.574 9.43935 21.574H6.4585V25.1563H9.49164ZM24.486 10.7227H29.6894L36.9846 29H31.4413L30.0816 25.5223H24.0938L22.7079 29H17.1646L24.486 10.7227ZM28.8265 21.4171L27.0746 16.2922L25.3227 21.4171H28.8265ZM45.2132 10.7227H50.4166L57.7118 29H52.1685L50.8088 25.5223H44.821L43.4351 29H37.8918L45.2132 10.7227ZM49.5537 21.4171L47.8018 16.2922L46.0499 21.4171H49.5537ZM60.0613 10.7227H65.317L71.0172 20.2928V10.7227H76.4298V29H71.2002L65.4738 19.4299V29H60.0613V10.7227ZM79.3074 10.7227H88.8514C90.6294 10.7227 92.0501 11.1672 93.1135 12.0562C94.1943 12.9278 94.7346 14.1829 94.7346 15.8215C94.7346 16.5537 94.569 17.2422 94.2378 17.8872C93.9241 18.5322 93.4621 19.0551 92.852 19.4561C93.7062 19.8396 94.325 20.3451 94.7085 20.9726C95.1094 21.6002 95.3099 22.4195 95.3099 23.4305C95.3099 24.5636 95.0397 25.5572 94.4993 26.4114C93.9589 27.2481 93.2268 27.8931 92.3029 28.3463C91.3964 28.7821 90.3854 29 89.2698 29H79.3074V10.7227ZM87.4394 17.8087C88.0321 17.8087 88.4766 17.678 88.7729 17.4165C89.0867 17.1551 89.2436 16.7367 89.2436 16.1614C89.2436 15.5688 89.0954 15.1591 88.7991 14.9325C88.5028 14.6884 88.0408 14.5664 87.4133 14.5664H84.72V17.8087H87.4394ZM87.7532 25.1563C88.4679 25.1563 88.9908 25.0255 89.322 24.7641C89.6533 24.5026 89.8189 24.0494 89.8189 23.4044C89.8189 22.7768 89.6445 22.3149 89.2959 22.0185C88.9647 21.7222 88.433 21.574 87.7009 21.574H84.72V25.1563H87.7532ZM106.357 29.3922C104.509 29.3922 102.827 28.9913 101.31 28.1894C99.8113 27.3876 98.6259 26.2719 97.7543 24.8425C96.9001 23.3957 96.4731 21.7396 96.4731 19.8744C96.4731 18.0092 96.9001 16.3532 97.7543 14.9063C98.6259 13.4595 99.8113 12.3351 101.31 11.5333C102.827 10.7314 104.509 10.3305 106.357 10.3305C108.205 10.3305 109.869 10.7314 111.351 11.5333C112.85 12.3351 114.027 13.4595 114.881 14.9063C115.753 16.3532 116.188 18.0092 116.188 19.8744C116.188 21.7396 115.753 23.3957 114.881 24.8425C114.027 26.2719 112.85 27.3876 111.351 28.1894C109.869 28.9913 108.205 29.3922 106.357 29.3922ZM106.357 24.3195C107.159 24.3195 107.882 24.1452 108.527 23.7966C109.19 23.4305 109.713 22.9163 110.096 22.2539C110.48 21.574 110.671 20.7809 110.671 19.8744C110.671 18.5322 110.262 17.4601 109.442 16.6582C108.623 15.8564 107.595 15.4554 106.357 15.4554C105.102 15.4554 104.056 15.8564 103.219 16.6582C102.4 17.4601 101.99 18.5322 101.99 19.8744C101.99 20.7809 102.182 21.574 102.565 22.2539C102.949 22.9163 103.472 23.4305 104.134 23.7966C104.797 24.1452 105.538 24.3195 106.357 24.3195ZM127.774 29.3922C125.926 29.3922 124.244 28.9913 122.727 28.1894C121.228 27.3876 120.043 26.2719 119.171 24.8425C118.317 23.3957 117.89 21.7396 117.89 19.8744C117.89 18.0092 118.317 16.3532 119.171 14.9063C120.043 13.4595 121.228 12.3351 122.727 11.5333C124.244 10.7314 125.926 10.3305 127.774 10.3305C129.621 10.3305 131.286 10.7314 132.768 11.5333C134.267 12.3351 135.444 13.4595 136.298 14.9063C137.169 16.3532 137.605 18.0092 137.605 19.8744C137.605 21.7396 137.169 23.3957 136.298 24.8425C135.444 26.2719 134.267 27.3876 132.768 28.1894C131.286 28.9913 129.621 29.3922 127.774 29.3922ZM127.774 24.3195C128.575 24.3195 129.299 24.1452 129.944 23.7966C130.606 23.4305 131.129 22.9163 131.513 22.2539C131.896 21.574 132.088 20.7809 132.088 19.8744C132.088 18.5322 131.678 17.4601 130.859 16.6582C130.04 15.8564 129.011 15.4554 127.774 15.4554C126.518 15.4554 125.473 15.8564 124.636 16.6582C123.817 17.4601 123.407 18.5322 123.407 19.8744C123.407 20.7809 123.599 21.574 123.982 22.2539C124.366 22.9163 124.889 23.4305 125.551 23.7966C126.213 24.1452 126.954 24.3195 127.774 24.3195ZM139.957 10.7227H145.213L150.913 20.2928V10.7227H156.326V29H151.096L145.37 19.4299V29H139.957V10.7227Z" fill="#F6F54D"/>
<path d="M174.632 28.1621C173.628 28.1621 172.616 28.0571 171.596 27.8472C170.576 27.6523 169.752 27.3899 169.122 27.06V22.9439C169.946 23.3937 170.809 23.7311 171.708 23.956C172.623 24.181 173.478 24.2934 174.272 24.2934C175.427 24.2934 176.004 23.986 176.004 23.3712C176.004 23.1163 175.914 22.8989 175.734 22.719C175.57 22.524 175.315 22.3441 174.97 22.1792C174.625 21.9992 174.078 21.7443 173.328 21.4144C171.873 20.7846 170.816 20.0949 170.156 19.3451C169.512 18.5954 169.189 17.6657 169.189 16.5561C169.189 15.6264 169.444 14.8017 169.954 14.0819C170.479 13.3472 171.206 12.7774 172.136 12.3725C173.065 11.9677 174.137 11.7652 175.352 11.7652C176.342 11.7652 177.219 11.8477 177.984 12.0127C178.748 12.1626 179.491 12.41 180.21 12.7549V16.736C178.906 16.0163 177.571 15.6564 176.207 15.6564C175.607 15.6564 175.127 15.7464 174.767 15.9263C174.407 16.0912 174.227 16.3387 174.227 16.6685C174.227 16.9984 174.385 17.2683 174.7 17.4783C175.03 17.6732 175.644 17.9506 176.544 18.3105L177.039 18.5129C178.104 18.9478 178.921 19.3826 179.491 19.8175C180.075 20.2373 180.495 20.7321 180.75 21.302C181.005 21.8568 181.133 22.5615 181.133 23.4162C181.133 24.9007 180.593 26.0628 179.513 26.9025C178.434 27.7422 176.807 28.1621 174.632 28.1621ZM190.629 28.1621C188.98 28.1621 187.608 27.8547 186.513 27.2399C185.419 26.6251 184.601 25.7779 184.061 24.6983C183.537 23.6187 183.274 22.3816 183.274 20.9871V12.1026H187.93V20.9421C187.93 21.9017 188.155 22.629 188.605 23.1238C189.07 23.6187 189.745 23.8661 190.629 23.8661C191.514 23.8661 192.181 23.6187 192.631 23.1238C193.096 22.629 193.328 21.9017 193.328 20.9421V12.1026H197.984V20.9871C197.984 22.3816 197.714 23.6187 197.174 24.6983C196.65 25.7779 195.84 26.6251 194.745 27.2399C193.651 27.8547 192.279 28.1621 190.629 28.1621ZM200.563 12.1026H207.805C209.694 12.1026 211.194 12.59 212.304 13.5646C213.428 14.5243 213.99 15.9038 213.99 17.7032C213.99 19.5026 213.428 20.8896 212.304 21.8643C211.194 22.8389 209.694 23.3263 207.805 23.3263H205.218V27.8247H200.563V12.1026ZM206.928 19.6375C207.648 19.6375 208.21 19.4951 208.615 19.2102C209.02 18.9253 209.222 18.4229 209.222 17.7032C209.222 16.9984 209.02 16.5036 208.615 16.2187C208.21 15.9338 207.648 15.7913 206.928 15.7913H205.218V19.6375H206.928ZM216.025 12.1026H227.429V16.0163H220.681V18.1755H225.539V21.7518H220.681V23.9111H227.429V27.8247H216.025V12.1026ZM229.445 12.1026H236.755C238.644 12.1026 240.136 12.5825 241.231 13.5421C242.325 14.4868 242.873 15.8588 242.873 17.6582C242.873 18.8278 242.625 19.825 242.131 20.6497C241.651 21.4744 240.961 22.1042 240.061 22.539L242.693 27.8247H237.924L235.63 23.2138H234.101V27.8247H229.445V12.1026ZM235.833 19.5251C236.552 19.5251 237.107 19.3901 237.497 19.1202C237.902 18.8353 238.104 18.348 238.104 17.6582C238.104 16.9684 237.902 16.4886 237.497 16.2187C237.107 15.9338 236.552 15.7913 235.833 15.7913H234.101V19.5251H235.833ZM258.292 28.1621C257.287 28.1621 256.275 28.0571 255.256 27.8472C254.236 27.6523 253.411 27.3899 252.781 27.06V22.9439C253.606 23.3937 254.468 23.7311 255.368 23.956C256.283 24.181 257.137 24.2934 257.932 24.2934C259.087 24.2934 259.664 23.986 259.664 23.3712C259.664 23.1163 259.574 22.8989 259.394 22.719C259.229 22.524 258.974 22.3441 258.629 22.1792C258.285 21.9992 257.737 21.7443 256.988 21.4144C255.533 20.7846 254.476 20.0949 253.816 19.3451C253.171 18.5954 252.849 17.6657 252.849 16.5561C252.849 15.6264 253.104 14.8017 253.614 14.0819C254.139 13.3472 254.866 12.7774 255.795 12.3725C256.725 11.9677 257.797 11.7652 259.012 11.7652C260.002 11.7652 260.879 11.8477 261.643 12.0127C262.408 12.1626 263.15 12.41 263.87 12.7549V16.736C262.566 16.0163 261.231 15.6564 259.867 15.6564C259.267 15.6564 258.787 15.7464 258.427 15.9263C258.067 16.0912 257.887 16.3387 257.887 16.6685C257.887 16.9984 258.045 17.2683 258.36 17.4783C258.689 17.6732 259.304 17.9506 260.204 18.3105L260.699 18.5129C261.763 18.9478 262.581 19.3826 263.15 19.8175C263.735 20.2373 264.155 20.7321 264.41 21.302C264.665 21.8568 264.792 22.5615 264.792 23.4162C264.792 24.9007 264.253 26.0628 263.173 26.9025C262.093 27.7422 260.466 28.1621 258.292 28.1621ZM269.917 16.0163H265.688V12.1026H278.801V16.0163H274.573V27.8247H269.917V16.0163ZM287.969 28.1621C286.38 28.1621 284.933 27.8172 283.628 27.1274C282.339 26.4377 281.319 25.478 280.569 24.2484C279.835 23.0039 279.467 21.5794 279.467 19.9749C279.467 18.3705 279.835 16.946 280.569 15.7014C281.319 14.4568 282.339 13.4896 283.628 12.7999C284.933 12.1101 286.38 11.7652 287.969 11.7652C289.559 11.7652 290.991 12.1101 292.265 12.7999C293.555 13.4896 294.567 14.4568 295.302 15.7014C296.052 16.946 296.426 18.3705 296.426 19.9749C296.426 21.5794 296.052 23.0039 295.302 24.2484C294.567 25.478 293.555 26.4377 292.265 27.1274C290.991 27.8172 289.559 28.1621 287.969 28.1621ZM287.969 23.7986C288.659 23.7986 289.281 23.6486 289.836 23.3487C290.406 23.0339 290.856 22.5915 291.186 22.0217C291.516 21.4369 291.681 20.7546 291.681 19.9749C291.681 18.8203 291.328 17.8981 290.623 17.2084C289.919 16.5186 289.034 16.1737 287.969 16.1737C286.89 16.1737 285.99 16.5186 285.27 17.2084C284.566 17.8981 284.213 18.8203 284.213 19.9749C284.213 20.7546 284.378 21.4369 284.708 22.0217C285.038 22.5915 285.488 23.0339 286.058 23.3487C286.627 23.6486 287.265 23.7986 287.969 23.7986ZM298.674 12.1026H305.984C307.874 12.1026 309.366 12.5825 310.46 13.5421C311.555 14.4868 312.102 15.8588 312.102 17.6582C312.102 18.8278 311.855 19.825 311.36 20.6497C310.88 21.4744 310.191 22.1042 309.291 22.539L311.922 27.8247H307.154L304.86 23.2138H303.33V27.8247H298.674V12.1026ZM305.062 19.5251C305.782 19.5251 306.337 19.3901 306.727 19.1202C307.132 18.8353 307.334 18.348 307.334 17.6582C307.334 16.9684 307.132 16.4886 306.727 16.2187C306.337 15.9338 305.782 15.7913 305.062 15.7913H303.33V19.5251H305.062ZM314.357 12.1026H325.76V16.0163H319.013V18.1755H323.871V21.7518H319.013V23.9111H325.76V27.8247H314.357V12.1026Z" fill="white"/>
</svg>
